<?xml version="1.0" encoding="utf-8" standalone="no"?>
<!DOCTYPE svg PUBLIC "-//W3C//DTD SVG 1.1//EN"
  "http://www.w3.org/Graphics/SVG/1.1/DTD/svg11.dtd">
<svg xmlns:xlink="http://www.w3.org/1999/xlink" width="460.8pt" height="345.6pt" viewBox="0 0 460.8 345.6" xmlns="http://www.w3.org/2000/svg" version="1.1">
 <metadata>
  <rdf:RDF xmlns:dc="http://purl.org/dc/elements/1.1/" xmlns:cc="http://creativecommons.org/ns#" xmlns:rdf="http://www.w3.org/1999/02/22-rdf-syntax-ns#">
   <cc:Work>
    <dc:type rdf:resource="http://purl.org/dc/dcmitype/StillImage"/>
    <dc:date>2025-02-13T13:25:22.741947</dc:date>
    <dc:format>image/svg+xml</dc:format>
    <dc:creator>
     <cc:Agent>
      <dc:title>Matplotlib v3.10.0, https://matplotlib.org/</dc:title>
     </cc:Agent>
    </dc:creator>
   </cc:Work>
  </rdf:RDF>
 </metadata>
 <defs>
  <style type="text/css">*{stroke-linejoin: round; stroke-linecap: butt}</style>
 </defs>
 <g id="figure_1">
  <g id="patch_1">
   <path d="M 0 345.6 
L 460.8 345.6 
L 460.8 0 
L 0 0 
z
" style="fill: #ffffff"/>
  </g>
  <g id="axes_1">
   <g id="patch_2">
    <path d="M 57.6 307.584 
L 414.72 307.584 
L 414.72 41.472 
L 57.6 41.472 
z
" style="fill: #ffffff"/>
   </g>
   <g id="matplotlib.axis_1">
    <g id="xtick_1">
     <g id="line2d_1">
      <defs>
       <path id="m708eb1658a" d="M 0 0 
L 0 3.5 
" style="stroke: #000000; stroke-width: 0.8"/>
      </defs>
      <g>
       <use xlink:href="#m708eb1658a" x="72.201297" y="307.584" style="stroke: #000000; stroke-width: 0.8"/>
      </g>
     </g>
     <g id="text_1">
      <!-- $0.0 -->
      <g transform="translate(61.068485 322.182437) scale(0.1 -0.1)">
       <defs>
        <path id="DejaVuSans-24" d="M 2163 -941 
L 1850 -941 
L 1847 0 
Q 1519 6 1191 76 
Q 863 147 531 288 
L 531 850 
Q 850 650 1176 548 
Q 1503 447 1850 444 
L 1850 1869 
Q 1159 1981 845 2250 
Q 531 2519 531 2988 
Q 531 3497 872 3790 
Q 1213 4084 1850 4128 
L 1850 4863 
L 2163 4863 
L 2163 4138 
Q 2453 4125 2725 4076 
Q 2997 4028 3256 3944 
L 3256 3397 
Q 2997 3528 2723 3600 
Q 2450 3672 2163 3684 
L 2163 2350 
Q 2872 2241 3206 1959 
Q 3541 1678 3541 1191 
Q 3541 663 3186 358 
Q 2831 53 2163 6 
L 2163 -941 
z
M 1850 2406 
L 1850 3688 
Q 1488 3647 1297 3481 
Q 1106 3316 1106 3041 
Q 1106 2772 1282 2622 
Q 1459 2472 1850 2406 
z
M 2163 1806 
L 2163 453 
Q 2559 506 2761 678 
Q 2963 850 2963 1131 
Q 2963 1406 2770 1568 
Q 2578 1731 2163 1806 
z
" transform="scale(0.015625)"/>
        <path id="DejaVuSans-30" d="M 2034 4250 
Q 1547 4250 1301 3770 
Q 1056 3291 1056 2328 
Q 1056 1369 1301 889 
Q 1547 409 2034 409 
Q 2525 409 2770 889 
Q 3016 1369 3016 2328 
Q 3016 3291 2770 3770 
Q 2525 4250 2034 4250 
z
M 2034 4750 
Q 2819 4750 3233 4129 
Q 3647 3509 3647 2328 
Q 3647 1150 3233 529 
Q 2819 -91 2034 -91 
Q 1250 -91 836 529 
Q 422 1150 422 2328 
Q 422 3509 836 4129 
Q 1250 4750 2034 4750 
z
" transform="scale(0.015625)"/>
        <path id="DejaVuSans-2e" d="M 684 794 
L 1344 794 
L 1344 0 
L 684 0 
L 684 794 
z
" transform="scale(0.015625)"/>
       </defs>
       <use xlink:href="#DejaVuSans-24"/>
       <use xlink:href="#DejaVuSans-30" transform="translate(63.623047 0)"/>
       <use xlink:href="#DejaVuSans-2e" transform="translate(127.246094 0)"/>
       <use xlink:href="#DejaVuSans-30" transform="translate(159.033203 0)"/>
      </g>
     </g>
    </g>
    <g id="xtick_2">
     <g id="line2d_2">
      <g>
       <use xlink:href="#m708eb1658a" x="153.772791" y="307.584" style="stroke: #000000; stroke-width: 0.8"/>
      </g>
     </g>
     <g id="text_2">
      <!-- $0.5 -->
      <g transform="translate(142.639979 322.182437) scale(0.1 -0.1)">
       <defs>
        <path id="DejaVuSans-35" d="M 691 4666 
L 3169 4666 
L 3169 4134 
L 1269 4134 
L 1269 2991 
Q 1406 3038 1543 3061 
Q 1681 3084 1819 3084 
Q 2600 3084 3056 2656 
Q 3513 2228 3513 1497 
Q 3513 744 3044 326 
Q 2575 -91 1722 -91 
Q 1428 -91 1123 -41 
Q 819 9 494 109 
L 494 744 
Q 775 591 1075 516 
Q 1375 441 1709 441 
Q 2250 441 2565 725 
Q 2881 1009 2881 1497 
Q 2881 1984 2565 2268 
Q 2250 2553 1709 2553 
Q 1456 2553 1204 2497 
Q 953 2441 691 2322 
L 691 4666 
z
" transform="scale(0.015625)"/>
       </defs>
       <use xlink:href="#DejaVuSans-24"/>
       <use xlink:href="#DejaVuSans-30" transform="translate(63.623047 0)"/>
       <use xlink:href="#DejaVuSans-2e" transform="translate(127.246094 0)"/>
       <use xlink:href="#DejaVuSans-35" transform="translate(159.033203 0)"/>
      </g>
     </g>
    </g>
    <g id="xtick_3">
     <g id="line2d_3">
      <g>
       <use xlink:href="#m708eb1658a" x="235.344285" y="307.584" style="stroke: #000000; stroke-width: 0.8"/>
      </g>
     </g>
     <g id="text_3">
      <!-- $1.0 -->
      <g transform="translate(224.211473 322.182437) scale(0.1 -0.1)">
       <defs>
        <path id="DejaVuSans-31" d="M 794 531 
L 1825 531 
L 1825 4091 
L 703 3866 
L 703 4441 
L 1819 4666 
L 2450 4666 
L 2450 531 
L 3481 531 
L 3481 0 
L 794 0 
L 794 531 
z
" transform="scale(0.015625)"/>
       </defs>
       <use xlink:href="#DejaVuSans-24"/>
       <use xlink:href="#DejaVuSans-31" transform="translate(63.623047 0)"/>
       <use xlink:href="#DejaVuSans-2e" transform="translate(127.246094 0)"/>
       <use xlink:href="#DejaVuSans-30" transform="translate(159.033203 0)"/>
      </g>
     </g>
    </g>
    <g id="xtick_4">
     <g id="line2d_4">
      <g>
       <use xlink:href="#m708eb1658a" x="316.915779" y="307.584" style="stroke: #000000; stroke-width: 0.8"/>
      </g>
     </g>
     <g id="text_4">
      <!-- $1.5 -->
      <g transform="translate(305.782966 322.182437) scale(0.1 -0.1)">
       <use xlink:href="#DejaVuSans-24"/>
       <use xlink:href="#DejaVuSans-31" transform="translate(63.623047 0)"/>
       <use xlink:href="#DejaVuSans-2e" transform="translate(127.246094 0)"/>
       <use xlink:href="#DejaVuSans-35" transform="translate(159.033203 0)"/>
      </g>
     </g>
    </g>
    <g id="xtick_5">
     <g id="line2d_5">
      <g>
       <use xlink:href="#m708eb1658a" x="398.487273" y="307.584" style="stroke: #000000; stroke-width: 0.8"/>
      </g>
     </g>
     <g id="text_5">
      <!-- $2.0 -->
      <g transform="translate(387.35446 322.182437) scale(0.1 -0.1)">
       <defs>
        <path id="DejaVuSans-32" d="M 1228 531 
L 3431 531 
L 3431 0 
L 469 0 
L 469 531 
Q 828 903 1448 1529 
Q 2069 2156 2228 2338 
Q 2531 2678 2651 2914 
Q 2772 3150 2772 3378 
Q 2772 3750 2511 3984 
Q 2250 4219 1831 4219 
Q 1534 4219 1204 4116 
Q 875 4013 500 3803 
L 500 4441 
Q 881 4594 1212 4672 
Q 1544 4750 1819 4750 
Q 2544 4750 2975 4387 
Q 3406 4025 3406 3419 
Q 3406 3131 3298 2873 
Q 3191 2616 2906 2266 
Q 2828 2175 2409 1742 
Q 1991 1309 1228 531 
z
" transform="scale(0.015625)"/>
       </defs>
       <use xlink:href="#DejaVuSans-24"/>
       <use xlink:href="#DejaVuSans-32" transform="translate(63.623047 0)"/>
       <use xlink:href="#DejaVuSans-2e" transform="translate(127.246094 0)"/>
       <use xlink:href="#DejaVuSans-30" transform="translate(159.033203 0)"/>
      </g>
     </g>
    </g>
    <g id="text_6">
     <!-- cost per 1m input + output tokens -->
     <g transform="translate(149.768594 335.860562) scale(0.1 -0.1)">
      <defs>
       <path id="DejaVuSans-63" d="M 3122 3366 
L 3122 2828 
Q 2878 2963 2633 3030 
Q 2388 3097 2138 3097 
Q 1578 3097 1268 2742 
Q 959 2388 959 1747 
Q 959 1106 1268 751 
Q 1578 397 2138 397 
Q 2388 397 2633 464 
Q 2878 531 3122 666 
L 3122 134 
Q 2881 22 2623 -34 
Q 2366 -91 2075 -91 
Q 1284 -91 818 406 
Q 353 903 353 1747 
Q 353 2603 823 3093 
Q 1294 3584 2113 3584 
Q 2378 3584 2631 3529 
Q 2884 3475 3122 3366 
z
" transform="scale(0.015625)"/>
       <path id="DejaVuSans-6f" d="M 1959 3097 
Q 1497 3097 1228 2736 
Q 959 2375 959 1747 
Q 959 1119 1226 758 
Q 1494 397 1959 397 
Q 2419 397 2687 759 
Q 2956 1122 2956 1747 
Q 2956 2369 2687 2733 
Q 2419 3097 1959 3097 
z
M 1959 3584 
Q 2709 3584 3137 3096 
Q 3566 2609 3566 1747 
Q 3566 888 3137 398 
Q 2709 -91 1959 -91 
Q 1206 -91 779 398 
Q 353 888 353 1747 
Q 353 2609 779 3096 
Q 1206 3584 1959 3584 
z
" transform="scale(0.015625)"/>
       <path id="DejaVuSans-73" d="M 2834 3397 
L 2834 2853 
Q 2591 2978 2328 3040 
Q 2066 3103 1784 3103 
Q 1356 3103 1142 2972 
Q 928 2841 928 2578 
Q 928 2378 1081 2264 
Q 1234 2150 1697 2047 
L 1894 2003 
Q 2506 1872 2764 1633 
Q 3022 1394 3022 966 
Q 3022 478 2636 193 
Q 2250 -91 1575 -91 
Q 1294 -91 989 -36 
Q 684 19 347 128 
L 347 722 
Q 666 556 975 473 
Q 1284 391 1588 391 
Q 1994 391 2212 530 
Q 2431 669 2431 922 
Q 2431 1156 2273 1281 
Q 2116 1406 1581 1522 
L 1381 1569 
Q 847 1681 609 1914 
Q 372 2147 372 2553 
Q 372 3047 722 3315 
Q 1072 3584 1716 3584 
Q 2034 3584 2315 3537 
Q 2597 3491 2834 3397 
z
" transform="scale(0.015625)"/>
       <path id="DejaVuSans-74" d="M 1172 4494 
L 1172 3500 
L 2356 3500 
L 2356 3053 
L 1172 3053 
L 1172 1153 
Q 1172 725 1289 603 
Q 1406 481 1766 481 
L 2356 481 
L 2356 0 
L 1766 0 
Q 1100 0 847 248 
Q 594 497 594 1153 
L 594 3053 
L 172 3053 
L 172 3500 
L 594 3500 
L 594 4494 
L 1172 4494 
z
" transform="scale(0.015625)"/>
       <path id="DejaVuSans-20" transform="scale(0.015625)"/>
       <path id="DejaVuSans-70" d="M 1159 525 
L 1159 -1331 
L 581 -1331 
L 581 3500 
L 1159 3500 
L 1159 2969 
Q 1341 3281 1617 3432 
Q 1894 3584 2278 3584 
Q 2916 3584 3314 3078 
Q 3713 2572 3713 1747 
Q 3713 922 3314 415 
Q 2916 -91 2278 -91 
Q 1894 -91 1617 61 
Q 1341 213 1159 525 
z
M 3116 1747 
Q 3116 2381 2855 2742 
Q 2594 3103 2138 3103 
Q 1681 3103 1420 2742 
Q 1159 2381 1159 1747 
Q 1159 1113 1420 752 
Q 1681 391 2138 391 
Q 2594 391 2855 752 
Q 3116 1113 3116 1747 
z
" transform="scale(0.015625)"/>
       <path id="DejaVuSans-65" d="M 3597 1894 
L 3597 1613 
L 953 1613 
Q 991 1019 1311 708 
Q 1631 397 2203 397 
Q 2534 397 2845 478 
Q 3156 559 3463 722 
L 3463 178 
Q 3153 47 2828 -22 
Q 2503 -91 2169 -91 
Q 1331 -91 842 396 
Q 353 884 353 1716 
Q 353 2575 817 3079 
Q 1281 3584 2069 3584 
Q 2775 3584 3186 3129 
Q 3597 2675 3597 1894 
z
M 3022 2063 
Q 3016 2534 2758 2815 
Q 2500 3097 2075 3097 
Q 1594 3097 1305 2825 
Q 1016 2553 972 2059 
L 3022 2063 
z
" transform="scale(0.015625)"/>
       <path id="DejaVuSans-72" d="M 2631 2963 
Q 2534 3019 2420 3045 
Q 2306 3072 2169 3072 
Q 1681 3072 1420 2755 
Q 1159 2438 1159 1844 
L 1159 0 
L 581 0 
L 581 3500 
L 1159 3500 
L 1159 2956 
Q 1341 3275 1631 3429 
Q 1922 3584 2338 3584 
Q 2397 3584 2469 3576 
Q 2541 3569 2628 3553 
L 2631 2963 
z
" transform="scale(0.015625)"/>
       <path id="DejaVuSans-6d" d="M 3328 2828 
Q 3544 3216 3844 3400 
Q 4144 3584 4550 3584 
Q 5097 3584 5394 3201 
Q 5691 2819 5691 2113 
L 5691 0 
L 5113 0 
L 5113 2094 
Q 5113 2597 4934 2840 
Q 4756 3084 4391 3084 
Q 3944 3084 3684 2787 
Q 3425 2491 3425 1978 
L 3425 0 
L 2847 0 
L 2847 2094 
Q 2847 2600 2669 2842 
Q 2491 3084 2119 3084 
Q 1678 3084 1418 2786 
Q 1159 2488 1159 1978 
L 1159 0 
L 581 0 
L 581 3500 
L 1159 3500 
L 1159 2956 
Q 1356 3278 1631 3431 
Q 1906 3584 2284 3584 
Q 2666 3584 2933 3390 
Q 3200 3197 3328 2828 
z
" transform="scale(0.015625)"/>
       <path id="DejaVuSans-69" d="M 603 3500 
L 1178 3500 
L 1178 0 
L 603 0 
L 603 3500 
z
M 603 4863 
L 1178 4863 
L 1178 4134 
L 603 4134 
L 603 4863 
z
" transform="scale(0.015625)"/>
       <path id="DejaVuSans-6e" d="M 3513 2113 
L 3513 0 
L 2938 0 
L 2938 2094 
Q 2938 2591 2744 2837 
Q 2550 3084 2163 3084 
Q 1697 3084 1428 2787 
Q 1159 2491 1159 1978 
L 1159 0 
L 581 0 
L 581 3500 
L 1159 3500 
L 1159 2956 
Q 1366 3272 1645 3428 
Q 1925 3584 2291 3584 
Q 2894 3584 3203 3211 
Q 3513 2838 3513 2113 
z
" transform="scale(0.015625)"/>
       <path id="DejaVuSans-75" d="M 544 1381 
L 544 3500 
L 1119 3500 
L 1119 1403 
Q 1119 906 1312 657 
Q 1506 409 1894 409 
Q 2359 409 2629 706 
Q 2900 1003 2900 1516 
L 2900 3500 
L 3475 3500 
L 3475 0 
L 2900 0 
L 2900 538 
Q 2691 219 2414 64 
Q 2138 -91 1772 -91 
Q 1169 -91 856 284 
Q 544 659 544 1381 
z
M 1991 3584 
L 1991 3584 
z
" transform="scale(0.015625)"/>
       <path id="DejaVuSans-2b" d="M 2944 4013 
L 2944 2272 
L 4684 2272 
L 4684 1741 
L 2944 1741 
L 2944 0 
L 2419 0 
L 2419 1741 
L 678 1741 
L 678 2272 
L 2419 2272 
L 2419 4013 
L 2944 4013 
z
" transform="scale(0.015625)"/>
       <path id="DejaVuSans-6b" d="M 581 4863 
L 1159 4863 
L 1159 1991 
L 2875 3500 
L 3609 3500 
L 1753 1863 
L 3688 0 
L 2938 0 
L 1159 1709 
L 1159 0 
L 581 0 
L 581 4863 
z
" transform="scale(0.015625)"/>
      </defs>
      <use xlink:href="#DejaVuSans-63"/>
      <use xlink:href="#DejaVuSans-6f" transform="translate(54.980469 0)"/>
      <use xlink:href="#DejaVuSans-73" transform="translate(116.162109 0)"/>
      <use xlink:href="#DejaVuSans-74" transform="translate(168.261719 0)"/>
      <use xlink:href="#DejaVuSans-20" transform="translate(207.470703 0)"/>
      <use xlink:href="#DejaVuSans-70" transform="translate(239.257812 0)"/>
      <use xlink:href="#DejaVuSans-65" transform="translate(302.734375 0)"/>
      <use xlink:href="#DejaVuSans-72" transform="translate(364.257812 0)"/>
      <use xlink:href="#DejaVuSans-20" transform="translate(405.371094 0)"/>
      <use xlink:href="#DejaVuSans-31" transform="translate(437.158203 0)"/>
      <use xlink:href="#DejaVuSans-6d" transform="translate(500.78125 0)"/>
      <use xlink:href="#DejaVuSans-20" transform="translate(598.193359 0)"/>
      <use xlink:href="#DejaVuSans-69" transform="translate(629.980469 0)"/>
      <use xlink:href="#DejaVuSans-6e" transform="translate(657.763672 0)"/>
      <use xlink:href="#DejaVuSans-70" transform="translate(721.142578 0)"/>
      <use xlink:href="#DejaVuSans-75" transform="translate(784.619141 0)"/>
      <use xlink:href="#DejaVuSans-74" transform="translate(847.998047 0)"/>
      <use xlink:href="#DejaVuSans-20" transform="translate(887.207031 0)"/>
      <use xlink:href="#DejaVuSans-2b" transform="translate(918.994141 0)"/>
      <use xlink:href="#DejaVuSans-20" transform="translate(1002.783203 0)"/>
      <use xlink:href="#DejaVuSans-6f" transform="translate(1034.570312 0)"/>
      <use xlink:href="#DejaVuSans-75" transform="translate(1095.751953 0)"/>
      <use xlink:href="#DejaVuSans-74" transform="translate(1159.130859 0)"/>
      <use xlink:href="#DejaVuSans-70" transform="translate(1198.339844 0)"/>
      <use xlink:href="#DejaVuSans-75" transform="translate(1261.816406 0)"/>
      <use xlink:href="#DejaVuSans-74" transform="translate(1325.195312 0)"/>
      <use xlink:href="#DejaVuSans-20" transform="translate(1364.404297 0)"/>
      <use xlink:href="#DejaVuSans-74" transform="translate(1396.191406 0)"/>
      <use xlink:href="#DejaVuSans-6f" transform="translate(1435.400391 0)"/>
      <use xlink:href="#DejaVuSans-6b" transform="translate(1496.582031 0)"/>
      <use xlink:href="#DejaVuSans-65" transform="translate(1550.867188 0)"/>
      <use xlink:href="#DejaVuSans-6e" transform="translate(1612.390625 0)"/>
      <use xlink:href="#DejaVuSans-73" transform="translate(1675.769531 0)"/>
     </g>
    </g>
   </g>
   <g id="matplotlib.axis_2">
    <g id="ytick_1">
     <g id="line2d_6">
      <defs>
       <path id="m749aac7350" d="M 0 0 
L -3.5 0 
" style="stroke: #000000; stroke-width: 0.8"/>
      </defs>
      <g>
       <use xlink:href="#m749aac7350" x="57.6" y="307.584" style="stroke: #000000; stroke-width: 0.8"/>
      </g>
     </g>
     <g id="text_7">
      <!-- 0.0 -->
      <g transform="translate(34.696875 311.383219) scale(0.1 -0.1)">
       <use xlink:href="#DejaVuSans-30"/>
       <use xlink:href="#DejaVuSans-2e" transform="translate(63.623047 0)"/>
       <use xlink:href="#DejaVuSans-30" transform="translate(95.410156 0)"/>
      </g>
     </g>
    </g>
    <g id="ytick_2">
     <g id="line2d_7">
      <g>
       <use xlink:href="#m749aac7350" x="57.6" y="254.3616" style="stroke: #000000; stroke-width: 0.8"/>
      </g>
     </g>
     <g id="text_8">
      <!-- 0.2 -->
      <g transform="translate(34.696875 258.160819) scale(0.1 -0.1)">
       <use xlink:href="#DejaVuSans-30"/>
       <use xlink:href="#DejaVuSans-2e" transform="translate(63.623047 0)"/>
       <use xlink:href="#DejaVuSans-32" transform="translate(95.410156 0)"/>
      </g>
     </g>
    </g>
    <g id="ytick_3">
     <g id="line2d_8">
      <g>
       <use xlink:href="#m749aac7350" x="57.6" y="201.1392" style="stroke: #000000; stroke-width: 0.8"/>
      </g>
     </g>
     <g id="text_9">
      <!-- 0.4 -->
      <g transform="translate(34.696875 204.938419) scale(0.1 -0.1)">
       <defs>
        <path id="DejaVuSans-34" d="M 2419 4116 
L 825 1625 
L 2419 1625 
L 2419 4116 
z
M 2253 4666 
L 3047 4666 
L 3047 1625 
L 3713 1625 
L 3713 1100 
L 3047 1100 
L 3047 0 
L 2419 0 
L 2419 1100 
L 313 1100 
L 313 1709 
L 2253 4666 
z
" transform="scale(0.015625)"/>
       </defs>
       <use xlink:href="#DejaVuSans-30"/>
       <use xlink:href="#DejaVuSans-2e" transform="translate(63.623047 0)"/>
       <use xlink:href="#DejaVuSans-34" transform="translate(95.410156 0)"/>
      </g>
     </g>
    </g>
    <g id="ytick_4">
     <g id="line2d_9">
      <g>
       <use xlink:href="#m749aac7350" x="57.6" y="147.9168" style="stroke: #000000; stroke-width: 0.8"/>
      </g>
     </g>
     <g id="text_10">
      <!-- 0.6 -->
      <g transform="translate(34.696875 151.716019) scale(0.1 -0.1)">
       <defs>
        <path id="DejaVuSans-36" d="M 2113 2584 
Q 1688 2584 1439 2293 
Q 1191 2003 1191 1497 
Q 1191 994 1439 701 
Q 1688 409 2113 409 
Q 2538 409 2786 701 
Q 3034 994 3034 1497 
Q 3034 2003 2786 2293 
Q 2538 2584 2113 2584 
z
M 3366 4563 
L 3366 3988 
Q 3128 4100 2886 4159 
Q 2644 4219 2406 4219 
Q 1781 4219 1451 3797 
Q 1122 3375 1075 2522 
Q 1259 2794 1537 2939 
Q 1816 3084 2150 3084 
Q 2853 3084 3261 2657 
Q 3669 2231 3669 1497 
Q 3669 778 3244 343 
Q 2819 -91 2113 -91 
Q 1303 -91 875 529 
Q 447 1150 447 2328 
Q 447 3434 972 4092 
Q 1497 4750 2381 4750 
Q 2619 4750 2861 4703 
Q 3103 4656 3366 4563 
z
" transform="scale(0.015625)"/>
       </defs>
       <use xlink:href="#DejaVuSans-30"/>
       <use xlink:href="#DejaVuSans-2e" transform="translate(63.623047 0)"/>
       <use xlink:href="#DejaVuSans-36" transform="translate(95.410156 0)"/>
      </g>
     </g>
    </g>
    <g id="ytick_5">
     <g id="line2d_10">
      <g>
       <use xlink:href="#m749aac7350" x="57.6" y="94.6944" style="stroke: #000000; stroke-width: 0.8"/>
      </g>
     </g>
     <g id="text_11">
      <!-- 0.8 -->
      <g transform="translate(34.696875 98.493619) scale(0.1 -0.1)">
       <defs>
        <path id="DejaVuSans-38" d="M 2034 2216 
Q 1584 2216 1326 1975 
Q 1069 1734 1069 1313 
Q 1069 891 1326 650 
Q 1584 409 2034 409 
Q 2484 409 2743 651 
Q 3003 894 3003 1313 
Q 3003 1734 2745 1975 
Q 2488 2216 2034 2216 
z
M 1403 2484 
Q 997 2584 770 2862 
Q 544 3141 544 3541 
Q 544 4100 942 4425 
Q 1341 4750 2034 4750 
Q 2731 4750 3128 4425 
Q 3525 4100 3525 3541 
Q 3525 3141 3298 2862 
Q 3072 2584 2669 2484 
Q 3125 2378 3379 2068 
Q 3634 1759 3634 1313 
Q 3634 634 3220 271 
Q 2806 -91 2034 -91 
Q 1263 -91 848 271 
Q 434 634 434 1313 
Q 434 1759 690 2068 
Q 947 2378 1403 2484 
z
M 1172 3481 
Q 1172 3119 1398 2916 
Q 1625 2713 2034 2713 
Q 2441 2713 2670 2916 
Q 2900 3119 2900 3481 
Q 2900 3844 2670 4047 
Q 2441 4250 2034 4250 
Q 1625 4250 1398 4047 
Q 1172 3844 1172 3481 
z
" transform="scale(0.015625)"/>
       </defs>
       <use xlink:href="#DejaVuSans-30"/>
       <use xlink:href="#DejaVuSans-2e" transform="translate(63.623047 0)"/>
       <use xlink:href="#DejaVuSans-38" transform="translate(95.410156 0)"/>
      </g>
     </g>
    </g>
    <g id="ytick_6">
     <g id="line2d_11">
      <g>
       <use xlink:href="#m749aac7350" x="57.6" y="41.472" style="stroke: #000000; stroke-width: 0.8"/>
      </g>
     </g>
     <g id="text_12">
      <!-- 1.0 -->
      <g transform="translate(34.696875 45.271219) scale(0.1 -0.1)">
       <use xlink:href="#DejaVuSans-31"/>
       <use xlink:href="#DejaVuSans-2e" transform="translate(63.623047 0)"/>
       <use xlink:href="#DejaVuSans-30" transform="translate(95.410156 0)"/>
      </g>
     </g>
    </g>
    <g id="text_13">
     <!-- avg score on 5 benches: math-500, humaneval, ... -->
     <g transform="translate(17.419375 300.680344) rotate(-90) scale(0.1 -0.1)">
      <defs>
       <path id="DejaVuSans-61" d="M 2194 1759 
Q 1497 1759 1228 1600 
Q 959 1441 959 1056 
Q 959 750 1161 570 
Q 1363 391 1709 391 
Q 2188 391 2477 730 
Q 2766 1069 2766 1631 
L 2766 1759 
L 2194 1759 
z
M 3341 1997 
L 3341 0 
L 2766 0 
L 2766 531 
Q 2569 213 2275 61 
Q 1981 -91 1556 -91 
Q 1019 -91 701 211 
Q 384 513 384 1019 
Q 384 1609 779 1909 
Q 1175 2209 1959 2209 
L 2766 2209 
L 2766 2266 
Q 2766 2663 2505 2880 
Q 2244 3097 1772 3097 
Q 1472 3097 1187 3025 
Q 903 2953 641 2809 
L 641 3341 
Q 956 3463 1253 3523 
Q 1550 3584 1831 3584 
Q 2591 3584 2966 3190 
Q 3341 2797 3341 1997 
z
" transform="scale(0.015625)"/>
       <path id="DejaVuSans-76" d="M 191 3500 
L 800 3500 
L 1894 563 
L 2988 3500 
L 3597 3500 
L 2284 0 
L 1503 0 
L 191 3500 
z
" transform="scale(0.015625)"/>
       <path id="DejaVuSans-67" d="M 2906 1791 
Q 2906 2416 2648 2759 
Q 2391 3103 1925 3103 
Q 1463 3103 1205 2759 
Q 947 2416 947 1791 
Q 947 1169 1205 825 
Q 1463 481 1925 481 
Q 2391 481 2648 825 
Q 2906 1169 2906 1791 
z
M 3481 434 
Q 3481 -459 3084 -895 
Q 2688 -1331 1869 -1331 
Q 1566 -1331 1297 -1286 
Q 1028 -1241 775 -1147 
L 775 -588 
Q 1028 -725 1275 -790 
Q 1522 -856 1778 -856 
Q 2344 -856 2625 -561 
Q 2906 -266 2906 331 
L 2906 616 
Q 2728 306 2450 153 
Q 2172 0 1784 0 
Q 1141 0 747 490 
Q 353 981 353 1791 
Q 353 2603 747 3093 
Q 1141 3584 1784 3584 
Q 2172 3584 2450 3431 
Q 2728 3278 2906 2969 
L 2906 3500 
L 3481 3500 
L 3481 434 
z
" transform="scale(0.015625)"/>
       <path id="DejaVuSans-62" d="M 3116 1747 
Q 3116 2381 2855 2742 
Q 2594 3103 2138 3103 
Q 1681 3103 1420 2742 
Q 1159 2381 1159 1747 
Q 1159 1113 1420 752 
Q 1681 391 2138 391 
Q 2594 391 2855 752 
Q 3116 1113 3116 1747 
z
M 1159 2969 
Q 1341 3281 1617 3432 
Q 1894 3584 2278 3584 
Q 2916 3584 3314 3078 
Q 3713 2572 3713 1747 
Q 3713 922 3314 415 
Q 2916 -91 2278 -91 
Q 1894 -91 1617 61 
Q 1341 213 1159 525 
L 1159 0 
L 581 0 
L 581 4863 
L 1159 4863 
L 1159 2969 
z
" transform="scale(0.015625)"/>
       <path id="DejaVuSans-68" d="M 3513 2113 
L 3513 0 
L 2938 0 
L 2938 2094 
Q 2938 2591 2744 2837 
Q 2550 3084 2163 3084 
Q 1697 3084 1428 2787 
Q 1159 2491 1159 1978 
L 1159 0 
L 581 0 
L 581 4863 
L 1159 4863 
L 1159 2956 
Q 1366 3272 1645 3428 
Q 1925 3584 2291 3584 
Q 2894 3584 3203 3211 
Q 3513 2838 3513 2113 
z
" transform="scale(0.015625)"/>
       <path id="DejaVuSans-3a" d="M 750 794 
L 1409 794 
L 1409 0 
L 750 0 
L 750 794 
z
M 750 3309 
L 1409 3309 
L 1409 2516 
L 750 2516 
L 750 3309 
z
" transform="scale(0.015625)"/>
       <path id="DejaVuSans-2d" d="M 313 2009 
L 1997 2009 
L 1997 1497 
L 313 1497 
L 313 2009 
z
" transform="scale(0.015625)"/>
       <path id="DejaVuSans-2c" d="M 750 794 
L 1409 794 
L 1409 256 
L 897 -744 
L 494 -744 
L 750 256 
L 750 794 
z
" transform="scale(0.015625)"/>
       <path id="DejaVuSans-6c" d="M 603 4863 
L 1178 4863 
L 1178 0 
L 603 0 
L 603 4863 
z
" transform="scale(0.015625)"/>
      </defs>
      <use xlink:href="#DejaVuSans-61"/>
      <use xlink:href="#DejaVuSans-76" transform="translate(61.279297 0)"/>
      <use xlink:href="#DejaVuSans-67" transform="translate(120.458984 0)"/>
      <use xlink:href="#DejaVuSans-20" transform="translate(183.935547 0)"/>
      <use xlink:href="#DejaVuSans-73" transform="translate(215.722656 0)"/>
      <use xlink:href="#DejaVuSans-63" transform="translate(267.822266 0)"/>
      <use xlink:href="#DejaVuSans-6f" transform="translate(322.802734 0)"/>
      <use xlink:href="#DejaVuSans-72" transform="translate(383.984375 0)"/>
      <use xlink:href="#DejaVuSans-65" transform="translate(422.847656 0)"/>
      <use xlink:href="#DejaVuSans-20" transform="translate(484.371094 0)"/>
      <use xlink:href="#DejaVuSans-6f" transform="translate(516.158203 0)"/>
      <use xlink:href="#DejaVuSans-6e" transform="translate(577.339844 0)"/>
      <use xlink:href="#DejaVuSans-20" transform="translate(640.71875 0)"/>
      <use xlink:href="#DejaVuSans-35" transform="translate(672.505859 0)"/>
      <use xlink:href="#DejaVuSans-20" transform="translate(736.128906 0)"/>
      <use xlink:href="#DejaVuSans-62" transform="translate(767.916016 0)"/>
      <use xlink:href="#DejaVuSans-65" transform="translate(831.392578 0)"/>
      <use xlink:href="#DejaVuSans-6e" transform="translate(892.916016 0)"/>
      <use xlink:href="#DejaVuSans-63" transform="translate(956.294922 0)"/>
      <use xlink:href="#DejaVuSans-68" transform="translate(1011.275391 0)"/>
      <use xlink:href="#DejaVuSans-65" transform="translate(1074.654297 0)"/>
      <use xlink:href="#DejaVuSans-73" transform="translate(1136.177734 0)"/>
      <use xlink:href="#DejaVuSans-3a" transform="translate(1188.277344 0)"/>
      <use xlink:href="#DejaVuSans-20" transform="translate(1221.96875 0)"/>
      <use xlink:href="#DejaVuSans-6d" transform="translate(1253.755859 0)"/>
      <use xlink:href="#DejaVuSans-61" transform="translate(1351.167969 0)"/>
      <use xlink:href="#DejaVuSans-74" transform="translate(1412.447266 0)"/>
      <use xlink:href="#DejaVuSans-68" transform="translate(1451.65625 0)"/>
      <use xlink:href="#DejaVuSans-2d" transform="translate(1515.035156 0)"/>
      <use xlink:href="#DejaVuSans-35" transform="translate(1551.119141 0)"/>
      <use xlink:href="#DejaVuSans-30" transform="translate(1614.742188 0)"/>
      <use xlink:href="#DejaVuSans-30" transform="translate(1678.365234 0)"/>
      <use xlink:href="#DejaVuSans-2c" transform="translate(1741.988281 0)"/>
      <use xlink:href="#DejaVuSans-20" transform="translate(1773.775391 0)"/>
      <use xlink:href="#DejaVuSans-68" transform="translate(1805.5625 0)"/>
      <use xlink:href="#DejaVuSans-75" transform="translate(1868.941406 0)"/>
      <use xlink:href="#DejaVuSans-6d" transform="translate(1932.320312 0)"/>
      <use xlink:href="#DejaVuSans-61" transform="translate(2029.732422 0)"/>
      <use xlink:href="#DejaVuSans-6e" transform="translate(2091.011719 0)"/>
      <use xlink:href="#DejaVuSans-65" transform="translate(2154.390625 0)"/>
      <use xlink:href="#DejaVuSans-76" transform="translate(2215.914062 0)"/>
      <use xlink:href="#DejaVuSans-61" transform="translate(2275.09375 0)"/>
      <use xlink:href="#DejaVuSans-6c" transform="translate(2336.373047 0)"/>
      <use xlink:href="#DejaVuSans-2c" transform="translate(2364.15625 0)"/>
      <use xlink:href="#DejaVuSans-20" transform="translate(2395.943359 0)"/>
      <use xlink:href="#DejaVuSans-2e" transform="translate(2427.730469 0)"/>
      <use xlink:href="#DejaVuSans-2e" transform="translate(2459.517578 0)"/>
      <use xlink:href="#DejaVuSans-2e" transform="translate(2491.304688 0)"/>
     </g>
     <!-- bootstrap conf intervals -->
     <g transform="translate(28.617187 234.222531) rotate(-90) scale(0.1 -0.1)">
      <defs>
       <path id="DejaVuSans-66" d="M 2375 4863 
L 2375 4384 
L 1825 4384 
Q 1516 4384 1395 4259 
Q 1275 4134 1275 3809 
L 1275 3500 
L 2222 3500 
L 2222 3053 
L 1275 3053 
L 1275 0 
L 697 0 
L 697 3053 
L 147 3053 
L 147 3500 
L 697 3500 
L 697 3744 
Q 697 4328 969 4595 
Q 1241 4863 1831 4863 
L 2375 4863 
z
" transform="scale(0.015625)"/>
      </defs>
      <use xlink:href="#DejaVuSans-62"/>
      <use xlink:href="#DejaVuSans-6f" transform="translate(63.476562 0)"/>
      <use xlink:href="#DejaVuSans-6f" transform="translate(124.658203 0)"/>
      <use xlink:href="#DejaVuSans-74" transform="translate(185.839844 0)"/>
      <use xlink:href="#DejaVuSans-73" transform="translate(225.048828 0)"/>
      <use xlink:href="#DejaVuSans-74" transform="translate(277.148438 0)"/>
      <use xlink:href="#DejaVuSans-72" transform="translate(316.357422 0)"/>
      <use xlink:href="#DejaVuSans-61" transform="translate(357.470703 0)"/>
      <use xlink:href="#DejaVuSans-70" transform="translate(418.75 0)"/>
      <use xlink:href="#DejaVuSans-20" transform="translate(482.226562 0)"/>
      <use xlink:href="#DejaVuSans-63" transform="translate(514.013672 0)"/>
      <use xlink:href="#DejaVuSans-6f" transform="translate(568.994141 0)"/>
      <use xlink:href="#DejaVuSans-6e" transform="translate(630.175781 0)"/>
      <use xlink:href="#DejaVuSans-66" transform="translate(693.554688 0)"/>
      <use xlink:href="#DejaVuSans-20" transform="translate(728.759766 0)"/>
      <use xlink:href="#DejaVuSans-69" transform="translate(760.546875 0)"/>
      <use xlink:href="#DejaVuSans-6e" transform="translate(788.330078 0)"/>
      <use xlink:href="#DejaVuSans-74" transform="translate(851.708984 0)"/>
      <use xlink:href="#DejaVuSans-65" transform="translate(890.917969 0)"/>
      <use xlink:href="#DejaVuSans-72" transform="translate(952.441406 0)"/>
      <use xlink:href="#DejaVuSans-76" transform="translate(993.554688 0)"/>
      <use xlink:href="#DejaVuSans-61" transform="translate(1052.734375 0)"/>
      <use xlink:href="#DejaVuSans-6c" transform="translate(1114.013672 0)"/>
      <use xlink:href="#DejaVuSans-73" transform="translate(1141.796875 0)"/>
     </g>
    </g>
   </g>
   <g id="LineCollection_1">
    <path d="M 101.272748 101.081088 
L 101.272748 86.71104 
" clip-path="url(#paa48e41f89)" style="fill: none; stroke: #1f77b4"/>
    <path d="M 73.832727 236.798208 
L 73.832727 219.740429 
" clip-path="url(#paa48e41f89)" style="fill: none; stroke: #1f77b4"/>
    <path d="M 75.543835 169.764595 
L 75.543835 151.110144 
" clip-path="url(#paa48e41f89)" style="fill: none; stroke: #1f77b4"/>
    <path d="M 78.423762 142.701005 
L 78.423762 126.095616 
" clip-path="url(#paa48e41f89)" style="fill: none; stroke: #1f77b4"/>
    <path d="M 107.034108 94.162176 
L 107.034108 80.324352 
" clip-path="url(#paa48e41f89)" style="fill: none; stroke: #1f77b4"/>
    <path d="M 78.444801 112.816627 
L 78.444801 96.264461 
" clip-path="url(#paa48e41f89)" style="fill: none; stroke: #1f77b4"/>
    <path d="M 398.487273 211.78368 
L 398.487273 194.193677 
" clip-path="url(#paa48e41f89)" style="fill: none; stroke: #1f77b4"/>
    <path d="M 398.487273 197.999078 
L 398.487273 179.318016 
" clip-path="url(#paa48e41f89)" style="fill: none; stroke: #1f77b4"/>
    <path d="M 398.487273 241.614835 
L 398.487273 222.907162 
" clip-path="url(#paa48e41f89)" style="fill: none; stroke: #1f77b4"/>
    <path d="M 398.487273 135.059389 
L 398.487273 117.07582 
" clip-path="url(#paa48e41f89)" style="fill: none; stroke: #1f77b4"/>
   </g>
   <g id="line2d_12">
    <defs>
     <path id="m50b5145390" d="M 0 1.5 
C 0.397805 1.5 0.77937 1.341951 1.06066 1.06066 
C 1.341951 0.77937 1.5 0.397805 1.5 0 
C 1.5 -0.397805 1.341951 -0.77937 1.06066 -1.06066 
C 0.77937 -1.341951 0.397805 -1.5 0 -1.5 
C -0.397805 -1.5 -0.77937 -1.341951 -1.06066 -1.06066 
C -1.341951 -0.77937 -1.5 -0.397805 -1.5 0 
C -1.5 0.397805 -1.341951 0.77937 -1.06066 1.06066 
C -0.77937 1.341951 -0.397805 1.5 0 1.5 
z
" style="stroke: #1f77b4"/>
    </defs>
    <g clip-path="url(#paa48e41f89)">
     <use xlink:href="#m50b5145390" x="101.272748" y="93.629952" style="fill: #1f77b4; stroke: #1f77b4"/>
     <use xlink:href="#m50b5145390" x="73.832727" y="228.282624" style="fill: #1f77b4; stroke: #1f77b4"/>
     <use xlink:href="#m50b5145390" x="75.543835" y="160.157952" style="fill: #1f77b4; stroke: #1f77b4"/>
     <use xlink:href="#m50b5145390" x="78.423762" y="135.143424" style="fill: #1f77b4; stroke: #1f77b4"/>
     <use xlink:href="#m50b5145390" x="107.034108" y="86.71104" style="fill: #1f77b4; stroke: #1f77b4"/>
     <use xlink:href="#m50b5145390" x="78.444801" y="103.742208" style="fill: #1f77b4; stroke: #1f77b4"/>
     <use xlink:href="#m50b5145390" x="398.487273" y="203.268096" style="fill: #1f77b4; stroke: #1f77b4"/>
     <use xlink:href="#m50b5145390" x="398.487273" y="189.430272" style="fill: #1f77b4; stroke: #1f77b4"/>
     <use xlink:href="#m50b5145390" x="398.487273" y="233.07264" style="fill: #1f77b4; stroke: #1f77b4"/>
     <use xlink:href="#m50b5145390" x="398.487273" y="126.067604" style="fill: #1f77b4; stroke: #1f77b4"/>
    </g>
   </g>
   <g id="patch_3">
    <path d="M 57.6 307.584 
L 57.6 41.472 
" style="fill: none; stroke: #000000; stroke-width: 0.8; stroke-linejoin: miter; stroke-linecap: square"/>
   </g>
   <g id="patch_4">
    <path d="M 414.72 307.584 
L 414.72 41.472 
" style="fill: none; stroke: #000000; stroke-width: 0.8; stroke-linejoin: miter; stroke-linecap: square"/>
   </g>
   <g id="patch_5">
    <path d="M 57.6 307.584 
L 414.72 307.584 
" style="fill: none; stroke: #000000; stroke-width: 0.8; stroke-linejoin: miter; stroke-linecap: square"/>
   </g>
   <g id="patch_6">
    <path d="M 57.6 41.472 
L 414.72 41.472 
" style="fill: none; stroke: #000000; stroke-width: 0.8; stroke-linejoin: miter; stroke-linecap: square"/>
   </g>
   <g id="text_14">
    <!-- gemini-flash-1.5 -->
    <g transform="translate(104.871186 93.50914) scale(0.1 -0.1)">
     <use xlink:href="#DejaVuSans-67"/>
     <use xlink:href="#DejaVuSans-65" transform="translate(63.476562 0)"/>
     <use xlink:href="#DejaVuSans-6d" transform="translate(125 0)"/>
     <use xlink:href="#DejaVuSans-69" transform="translate(222.412109 0)"/>
     <use xlink:href="#DejaVuSans-6e" transform="translate(250.195312 0)"/>
     <use xlink:href="#DejaVuSans-69" transform="translate(313.574219 0)"/>
     <use xlink:href="#DejaVuSans-2d" transform="translate(341.357422 0)"/>
     <use xlink:href="#DejaVuSans-66" transform="translate(377.441406 0)"/>
     <use xlink:href="#DejaVuSans-6c" transform="translate(412.646484 0)"/>
     <use xlink:href="#DejaVuSans-61" transform="translate(440.429688 0)"/>
     <use xlink:href="#DejaVuSans-73" transform="translate(501.708984 0)"/>
     <use xlink:href="#DejaVuSans-68" transform="translate(553.808594 0)"/>
     <use xlink:href="#DejaVuSans-2d" transform="translate(617.1875 0)"/>
     <use xlink:href="#DejaVuSans-31" transform="translate(653.271484 0)"/>
     <use xlink:href="#DejaVuSans-2e" transform="translate(716.894531 0)"/>
     <use xlink:href="#DejaVuSans-35" transform="translate(748.681641 0)"/>
    </g>
   </g>
   <g id="text_15">
    <!-- llama-3.2-1b -->
    <g transform="translate(75.643821 227.201749) scale(0.1 -0.1)">
     <defs>
      <path id="DejaVuSans-33" d="M 2597 2516 
Q 3050 2419 3304 2112 
Q 3559 1806 3559 1356 
Q 3559 666 3084 287 
Q 2609 -91 1734 -91 
Q 1441 -91 1130 -33 
Q 819 25 488 141 
L 488 750 
Q 750 597 1062 519 
Q 1375 441 1716 441 
Q 2309 441 2620 675 
Q 2931 909 2931 1356 
Q 2931 1769 2642 2001 
Q 2353 2234 1838 2234 
L 1294 2234 
L 1294 2753 
L 1863 2753 
Q 2328 2753 2575 2939 
Q 2822 3125 2822 3475 
Q 2822 3834 2567 4026 
Q 2313 4219 1838 4219 
Q 1578 4219 1281 4162 
Q 984 4106 628 3988 
L 628 4550 
Q 988 4650 1302 4700 
Q 1616 4750 1894 4750 
Q 2613 4750 3031 4423 
Q 3450 4097 3450 3541 
Q 3450 3153 3228 2886 
Q 3006 2619 2597 2516 
z
" transform="scale(0.015625)"/>
     </defs>
     <use xlink:href="#DejaVuSans-6c"/>
     <use xlink:href="#DejaVuSans-6c" transform="translate(27.783203 0)"/>
     <use xlink:href="#DejaVuSans-61" transform="translate(55.566406 0)"/>
     <use xlink:href="#DejaVuSans-6d" transform="translate(116.845703 0)"/>
     <use xlink:href="#DejaVuSans-61" transform="translate(214.257812 0)"/>
     <use xlink:href="#DejaVuSans-2d" transform="translate(275.537109 0)"/>
     <use xlink:href="#DejaVuSans-33" transform="translate(311.621094 0)"/>
     <use xlink:href="#DejaVuSans-2e" transform="translate(375.244141 0)"/>
     <use xlink:href="#DejaVuSans-32" transform="translate(407.03125 0)"/>
     <use xlink:href="#DejaVuSans-2d" transform="translate(470.654297 0)"/>
     <use xlink:href="#DejaVuSans-31" transform="translate(506.738281 0)"/>
     <use xlink:href="#DejaVuSans-62" transform="translate(570.361328 0)"/>
    </g>
   </g>
   <g id="text_16">
    <!-- llama-3.2-3b -->
    <g transform="translate(77.377429 159.797124) scale(0.1 -0.1)">
     <use xlink:href="#DejaVuSans-6c"/>
     <use xlink:href="#DejaVuSans-6c" transform="translate(27.783203 0)"/>
     <use xlink:href="#DejaVuSans-61" transform="translate(55.566406 0)"/>
     <use xlink:href="#DejaVuSans-6d" transform="translate(116.845703 0)"/>
     <use xlink:href="#DejaVuSans-61" transform="translate(214.257812 0)"/>
     <use xlink:href="#DejaVuSans-2d" transform="translate(275.537109 0)"/>
     <use xlink:href="#DejaVuSans-33" transform="translate(311.621094 0)"/>
     <use xlink:href="#DejaVuSans-2e" transform="translate(375.244141 0)"/>
     <use xlink:href="#DejaVuSans-32" transform="translate(407.03125 0)"/>
     <use xlink:href="#DejaVuSans-2d" transform="translate(470.654297 0)"/>
     <use xlink:href="#DejaVuSans-33" transform="translate(506.738281 0)"/>
     <use xlink:href="#DejaVuSans-62" transform="translate(570.361328 0)"/>
    </g>
   </g>
   <g id="text_17">
    <!-- llama-3.1-8b -->
    <g transform="translate(80.234856 134.782596) scale(0.1 -0.1)">
     <use xlink:href="#DejaVuSans-6c"/>
     <use xlink:href="#DejaVuSans-6c" transform="translate(27.783203 0)"/>
     <use xlink:href="#DejaVuSans-61" transform="translate(55.566406 0)"/>
     <use xlink:href="#DejaVuSans-6d" transform="translate(116.845703 0)"/>
     <use xlink:href="#DejaVuSans-61" transform="translate(214.257812 0)"/>
     <use xlink:href="#DejaVuSans-2d" transform="translate(275.537109 0)"/>
     <use xlink:href="#DejaVuSans-33" transform="translate(311.621094 0)"/>
     <use xlink:href="#DejaVuSans-2e" transform="translate(375.244141 0)"/>
     <use xlink:href="#DejaVuSans-31" transform="translate(407.03125 0)"/>
     <use xlink:href="#DejaVuSans-2d" transform="translate(470.654297 0)"/>
     <use xlink:href="#DejaVuSans-38" transform="translate(506.738281 0)"/>
     <use xlink:href="#DejaVuSans-62" transform="translate(570.361328 0)"/>
    </g>
   </g>
   <g id="text_18">
    <!-- llama-3.3-70b -->
    <g transform="translate(106.721451 84.670103) scale(0.1 -0.1)">
     <defs>
      <path id="DejaVuSans-37" d="M 525 4666 
L 3525 4666 
L 3525 4397 
L 1831 0 
L 1172 0 
L 2766 4134 
L 525 4134 
L 525 4666 
z
" transform="scale(0.015625)"/>
     </defs>
     <use xlink:href="#DejaVuSans-6c"/>
     <use xlink:href="#DejaVuSans-6c" transform="translate(27.783203 0)"/>
     <use xlink:href="#DejaVuSans-61" transform="translate(55.566406 0)"/>
     <use xlink:href="#DejaVuSans-6d" transform="translate(116.845703 0)"/>
     <use xlink:href="#DejaVuSans-61" transform="translate(214.257812 0)"/>
     <use xlink:href="#DejaVuSans-2d" transform="translate(275.537109 0)"/>
     <use xlink:href="#DejaVuSans-33" transform="translate(311.621094 0)"/>
     <use xlink:href="#DejaVuSans-2e" transform="translate(375.244141 0)"/>
     <use xlink:href="#DejaVuSans-33" transform="translate(407.03125 0)"/>
     <use xlink:href="#DejaVuSans-2d" transform="translate(470.654297 0)"/>
     <use xlink:href="#DejaVuSans-37" transform="translate(506.738281 0)"/>
     <use xlink:href="#DejaVuSans-30" transform="translate(570.361328 0)"/>
     <use xlink:href="#DejaVuSans-62" transform="translate(633.984375 0)"/>
    </g>
   </g>
   <g id="text_19">
    <!-- qwen-2.5-7b -->
    <g transform="translate(79.488864 102.421318) scale(0.1 -0.1)">
     <defs>
      <path id="DejaVuSans-71" d="M 947 1747 
Q 947 1113 1208 752 
Q 1469 391 1925 391 
Q 2381 391 2643 752 
Q 2906 1113 2906 1747 
Q 2906 2381 2643 2742 
Q 2381 3103 1925 3103 
Q 1469 3103 1208 2742 
Q 947 2381 947 1747 
z
M 2906 525 
Q 2725 213 2448 61 
Q 2172 -91 1784 -91 
Q 1150 -91 751 415 
Q 353 922 353 1747 
Q 353 2572 751 3078 
Q 1150 3584 1784 3584 
Q 2172 3584 2448 3432 
Q 2725 3281 2906 2969 
L 2906 3500 
L 3481 3500 
L 3481 -1331 
L 2906 -1331 
L 2906 525 
z
" transform="scale(0.015625)"/>
      <path id="DejaVuSans-77" d="M 269 3500 
L 844 3500 
L 1563 769 
L 2278 3500 
L 2956 3500 
L 3675 769 
L 4391 3500 
L 4966 3500 
L 4050 0 
L 3372 0 
L 2619 2869 
L 1863 0 
L 1184 0 
L 269 3500 
z
" transform="scale(0.015625)"/>
     </defs>
     <use xlink:href="#DejaVuSans-71"/>
     <use xlink:href="#DejaVuSans-77" transform="translate(63.476562 0)"/>
     <use xlink:href="#DejaVuSans-65" transform="translate(145.263672 0)"/>
     <use xlink:href="#DejaVuSans-6e" transform="translate(206.787109 0)"/>
     <use xlink:href="#DejaVuSans-2d" transform="translate(270.166016 0)"/>
     <use xlink:href="#DejaVuSans-32" transform="translate(306.25 0)"/>
     <use xlink:href="#DejaVuSans-2e" transform="translate(369.873047 0)"/>
     <use xlink:href="#DejaVuSans-35" transform="translate(401.660156 0)"/>
     <use xlink:href="#DejaVuSans-2d" transform="translate(465.283203 0)"/>
     <use xlink:href="#DejaVuSans-37" transform="translate(501.367188 0)"/>
     <use xlink:href="#DejaVuSans-62" transform="translate(564.990234 0)"/>
    </g>
   </g>
   <g id="text_20">
    <!-- yandexgpt-4-lite -->
    <g transform="translate(331.980156 201.947206) scale(0.1 -0.1)">
     <defs>
      <path id="DejaVuSans-79" d="M 2059 -325 
Q 1816 -950 1584 -1140 
Q 1353 -1331 966 -1331 
L 506 -1331 
L 506 -850 
L 844 -850 
Q 1081 -850 1212 -737 
Q 1344 -625 1503 -206 
L 1606 56 
L 191 3500 
L 800 3500 
L 1894 763 
L 2988 3500 
L 3597 3500 
L 2059 -325 
z
" transform="scale(0.015625)"/>
      <path id="DejaVuSans-64" d="M 2906 2969 
L 2906 4863 
L 3481 4863 
L 3481 0 
L 2906 0 
L 2906 525 
Q 2725 213 2448 61 
Q 2172 -91 1784 -91 
Q 1150 -91 751 415 
Q 353 922 353 1747 
Q 353 2572 751 3078 
Q 1150 3584 1784 3584 
Q 2172 3584 2448 3432 
Q 2725 3281 2906 2969 
z
M 947 1747 
Q 947 1113 1208 752 
Q 1469 391 1925 391 
Q 2381 391 2643 752 
Q 2906 1113 2906 1747 
Q 2906 2381 2643 2742 
Q 2381 3103 1925 3103 
Q 1469 3103 1208 2742 
Q 947 2381 947 1747 
z
" transform="scale(0.015625)"/>
      <path id="DejaVuSans-78" d="M 3513 3500 
L 2247 1797 
L 3578 0 
L 2900 0 
L 1881 1375 
L 863 0 
L 184 0 
L 1544 1831 
L 300 3500 
L 978 3500 
L 1906 2253 
L 2834 3500 
L 3513 3500 
z
" transform="scale(0.015625)"/>
     </defs>
     <use xlink:href="#DejaVuSans-79"/>
     <use xlink:href="#DejaVuSans-61" transform="translate(59.179688 0)"/>
     <use xlink:href="#DejaVuSans-6e" transform="translate(120.458984 0)"/>
     <use xlink:href="#DejaVuSans-64" transform="translate(183.837891 0)"/>
     <use xlink:href="#DejaVuSans-65" transform="translate(247.314453 0)"/>
     <use xlink:href="#DejaVuSans-78" transform="translate(307.087891 0)"/>
     <use xlink:href="#DejaVuSans-67" transform="translate(366.267578 0)"/>
     <use xlink:href="#DejaVuSans-70" transform="translate(429.744141 0)"/>
     <use xlink:href="#DejaVuSans-74" transform="translate(493.220703 0)"/>
     <use xlink:href="#DejaVuSans-2d" transform="translate(532.429688 0)"/>
     <use xlink:href="#DejaVuSans-34" transform="translate(568.513672 0)"/>
     <use xlink:href="#DejaVuSans-2d" transform="translate(632.136719 0)"/>
     <use xlink:href="#DejaVuSans-6c" transform="translate(668.220703 0)"/>
     <use xlink:href="#DejaVuSans-69" transform="translate(696.003906 0)"/>
     <use xlink:href="#DejaVuSans-74" transform="translate(723.787109 0)"/>
     <use xlink:href="#DejaVuSans-65" transform="translate(762.996094 0)"/>
    </g>
   </g>
   <g id="text_21">
    <!-- gigachat-lite -->
    <g transform="translate(352.015 188.109382) scale(0.1 -0.1)">
     <use xlink:href="#DejaVuSans-67"/>
     <use xlink:href="#DejaVuSans-69" transform="translate(63.476562 0)"/>
     <use xlink:href="#DejaVuSans-67" transform="translate(91.259766 0)"/>
     <use xlink:href="#DejaVuSans-61" transform="translate(154.736328 0)"/>
     <use xlink:href="#DejaVuSans-63" transform="translate(216.015625 0)"/>
     <use xlink:href="#DejaVuSans-68" transform="translate(270.996094 0)"/>
     <use xlink:href="#DejaVuSans-61" transform="translate(334.375 0)"/>
     <use xlink:href="#DejaVuSans-74" transform="translate(395.654297 0)"/>
     <use xlink:href="#DejaVuSans-2d" transform="translate(434.863281 0)"/>
     <use xlink:href="#DejaVuSans-6c" transform="translate(470.947266 0)"/>
     <use xlink:href="#DejaVuSans-69" transform="translate(498.730469 0)"/>
     <use xlink:href="#DejaVuSans-74" transform="translate(526.513672 0)"/>
     <use xlink:href="#DejaVuSans-65" transform="translate(565.722656 0)"/>
    </g>
   </g>
   <g id="text_22">
    <!-- yandexgpt-3-lite -->
    <g transform="translate(325.117656 231.75175) scale(0.1 -0.1)">
     <use xlink:href="#DejaVuSans-79"/>
     <use xlink:href="#DejaVuSans-61" transform="translate(59.179688 0)"/>
     <use xlink:href="#DejaVuSans-6e" transform="translate(120.458984 0)"/>
     <use xlink:href="#DejaVuSans-64" transform="translate(183.837891 0)"/>
     <use xlink:href="#DejaVuSans-65" transform="translate(247.314453 0)"/>
     <use xlink:href="#DejaVuSans-78" transform="translate(307.087891 0)"/>
     <use xlink:href="#DejaVuSans-67" transform="translate(366.267578 0)"/>
     <use xlink:href="#DejaVuSans-70" transform="translate(429.744141 0)"/>
     <use xlink:href="#DejaVuSans-74" transform="translate(493.220703 0)"/>
     <use xlink:href="#DejaVuSans-2d" transform="translate(532.429688 0)"/>
     <use xlink:href="#DejaVuSans-33" transform="translate(568.513672 0)"/>
     <use xlink:href="#DejaVuSans-2d" transform="translate(632.136719 0)"/>
     <use xlink:href="#DejaVuSans-6c" transform="translate(668.220703 0)"/>
     <use xlink:href="#DejaVuSans-69" transform="translate(696.003906 0)"/>
     <use xlink:href="#DejaVuSans-74" transform="translate(723.787109 0)"/>
     <use xlink:href="#DejaVuSans-65" transform="translate(762.996094 0)"/>
    </g>
   </g>
   <g id="text_23">
    <!-- llama-3.1-8b:yandex -->
    <g transform="translate(310.649375 124.746714) scale(0.1 -0.1)">
     <use xlink:href="#DejaVuSans-6c"/>
     <use xlink:href="#DejaVuSans-6c" transform="translate(27.783203 0)"/>
     <use xlink:href="#DejaVuSans-61" transform="translate(55.566406 0)"/>
     <use xlink:href="#DejaVuSans-6d" transform="translate(116.845703 0)"/>
     <use xlink:href="#DejaVuSans-61" transform="translate(214.257812 0)"/>
     <use xlink:href="#DejaVuSans-2d" transform="translate(275.537109 0)"/>
     <use xlink:href="#DejaVuSans-33" transform="translate(311.621094 0)"/>
     <use xlink:href="#DejaVuSans-2e" transform="translate(375.244141 0)"/>
     <use xlink:href="#DejaVuSans-31" transform="translate(407.03125 0)"/>
     <use xlink:href="#DejaVuSans-2d" transform="translate(470.654297 0)"/>
     <use xlink:href="#DejaVuSans-38" transform="translate(506.738281 0)"/>
     <use xlink:href="#DejaVuSans-62" transform="translate(570.361328 0)"/>
     <use xlink:href="#DejaVuSans-3a" transform="translate(633.837891 0)"/>
     <use xlink:href="#DejaVuSans-79" transform="translate(667.529297 0)"/>
     <use xlink:href="#DejaVuSans-61" transform="translate(726.708984 0)"/>
     <use xlink:href="#DejaVuSans-6e" transform="translate(787.988281 0)"/>
     <use xlink:href="#DejaVuSans-64" transform="translate(851.367188 0)"/>
     <use xlink:href="#DejaVuSans-65" transform="translate(914.84375 0)"/>
     <use xlink:href="#DejaVuSans-78" transform="translate(974.617188 0)"/>
    </g>
   </g>
  </g>
 </g>
 <defs>
  <clipPath id="paa48e41f89">
   <rect x="57.6" y="41.472" width="357.12" height="266.112"/>
  </clipPath>
 </defs>
</svg>
