<?xml version="1.0" encoding="utf-8" standalone="no"?>
<!DOCTYPE svg PUBLIC "-//W3C//DTD SVG 1.1//EN"
  "http://www.w3.org/Graphics/SVG/1.1/DTD/svg11.dtd">
<svg xmlns:xlink="http://www.w3.org/1999/xlink" width="576pt" height="288pt" viewBox="0 0 576 288" xmlns="http://www.w3.org/2000/svg" version="1.1">
 <metadata>
  <rdf:RDF xmlns:dc="http://purl.org/dc/elements/1.1/" xmlns:cc="http://creativecommons.org/ns#" xmlns:rdf="http://www.w3.org/1999/02/22-rdf-syntax-ns#">
   <cc:Work>
    <dc:type rdf:resource="http://purl.org/dc/dcmitype/StillImage"/>
    <dc:date>2025-02-25T10:22:24.598098</dc:date>
    <dc:format>image/svg+xml</dc:format>
    <dc:creator>
     <cc:Agent>
      <dc:title>Matplotlib v3.10.0, https://matplotlib.org/</dc:title>
     </cc:Agent>
    </dc:creator>
   </cc:Work>
  </rdf:RDF>
 </metadata>
 <defs>
  <style type="text/css">*{stroke-linejoin: round; stroke-linecap: butt}</style>
 </defs>
 <g id="figure_1">
  <g id="patch_1">
   <path d="M 0 288 
L 576 288 
L 576 0 
L 0 0 
z
" style="fill: #ffffff"/>
  </g>
  <g id="axes_1">
   <g id="patch_2">
    <path d="M 245.02 123.743636 
C 245.02 109.953367 242.303618 96.29719 237.02631 83.556642 
C 231.749002 70.816094 224.013399 59.238946 214.262206 49.487752 
C 204.511012 39.736559 192.933865 32.000956 180.193317 26.723649 
C 167.452769 21.446341 153.796592 18.729958 140.006322 18.729958 
C 126.216052 18.729958 112.559875 21.446341 99.819327 26.723649 
C 87.078779 32.000956 75.501631 39.736559 65.750438 49.487752 
C 55.999245 59.238946 48.263642 70.816094 42.986334 83.556642 
C 37.709026 96.29719 34.992644 109.953367 34.992644 123.743636 
C 34.992644 137.533906 37.709026 151.190083 42.986334 163.930631 
C 48.263642 176.671179 55.999245 188.248327 65.750438 197.99952 
C 75.501631 207.750714 87.078779 215.486316 99.819327 220.763624 
C 112.559875 226.040932 126.216052 228.757314 140.006322 228.757314 
C 153.796592 228.757314 167.452769 226.040932 180.193317 220.763624 
C 192.933865 215.486316 204.511012 207.750714 214.262206 197.99952 
C 224.013399 188.248327 231.749002 176.671179 237.02631 163.930631 
C 242.303618 151.190083 245.02 137.533906 245.02 123.743636 
M 140.006322 123.743636 
C 140.006322 123.743636 140.006322 123.743636 140.006322 123.743636 
C 140.006322 123.743636 140.006322 123.743636 140.006322 123.743636 
C 140.006322 123.743636 140.006322 123.743636 140.006322 123.743636 
C 140.006322 123.743636 140.006322 123.743636 140.006322 123.743636 
C 140.006322 123.743636 140.006322 123.743636 140.006322 123.743636 
C 140.006322 123.743636 140.006322 123.743636 140.006322 123.743636 
C 140.006322 123.743636 140.006322 123.743636 140.006322 123.743636 
C 140.006322 123.743636 140.006322 123.743636 140.006322 123.743636 
C 140.006322 123.743636 140.006322 123.743636 140.006322 123.743636 
C 140.006322 123.743636 140.006322 123.743636 140.006322 123.743636 
C 140.006322 123.743636 140.006322 123.743636 140.006322 123.743636 
C 140.006322 123.743636 140.006322 123.743636 140.006322 123.743636 
C 140.006322 123.743636 140.006322 123.743636 140.006322 123.743636 
C 140.006322 123.743636 140.006322 123.743636 140.006322 123.743636 
C 140.006322 123.743636 140.006322 123.743636 140.006322 123.743636 
C 140.006322 123.743636 140.006322 123.743636 140.006322 123.743636 
z
" style="fill: #ffffff"/>
   </g>
   <g id="FillBetweenPolyCollection_1">
    <path d="M 234.108423 123.743636 
L 226.423828 123.743636 
L 153.635747 81.79658 
L 84.576505 83.471517 
L 102.667347 150.87199 
L 159.700443 184.355909 
L 226.423828 123.743636 
L 234.108423 123.743636 
L 234.108423 123.743636 
L 162.854483 194.063045 
L 94.107843 157.090833 
L 75.769899 77.073143 
L 157.529868 69.811707 
L 234.108423 123.743636 
z
" clip-path="url(#pa7a1cba670)" style="fill: #1f77b4; fill-opacity: 0.2"/>
   </g>
   <g id="FillBetweenPolyCollection_2">
    <path d="M 215.668677 123.743636 
L 204.589734 123.743636 
L 143.900443 111.758763 
L 121.38294 110.212957 
L 118.34207 139.483637 
L 155.899205 172.6569 
L 204.589734 123.743636 
L 215.668677 123.743636 
L 215.668677 123.743636 
L 159.963694 185.166111 
L 108.996707 146.273441 
L 112.550431 103.795764 
L 146.504637 103.743879 
L 215.668677 123.743636 
z
" clip-path="url(#pa7a1cba670)" style="fill: #ff7f0e; fill-opacity: 0.2"/>
   </g>
   <g id="FillBetweenPolyCollection_3">
    <path d="M 219.842971 123.743636 
L 209.315349 123.743636 
L 147.381552 101.045013 
L 112.237691 103.568545 
L 113.669388 142.878539 
L 154.030377 166.90524 
L 209.315349 123.743636 
L 219.842971 123.743636 
L 219.842971 123.743636 
L 157.48747 177.545077 
L 103.877996 149.992402 
L 102.771709 96.691106 
L 150.495538 91.46115 
L 219.842971 123.743636 
z
" clip-path="url(#pa7a1cba670)" style="fill: #2ca02c; fill-opacity: 0.2"/>
   </g>
   <g id="matplotlib.axis_1">
    <g id="xtick_1">
     <g id="line2d_1">
      <path d="M 140.006322 123.743636 
L 245.02 123.743636 
" clip-path="url(#pa7a1cba670)" style="fill: none; stroke-dasharray: 0.8,1.32; stroke-dashoffset: 0; stroke: #b0b0b0; stroke-width: 0.8"/>
     </g>
     <g id="text_1">
      <!-- mgsm-en -->
      <g transform="translate(235.45125 126.503011) scale(0.1 -0.1)">
       <defs>
        <path id="DejaVuSans-6d" d="M 3328 2828 
Q 3544 3216 3844 3400 
Q 4144 3584 4550 3584 
Q 5097 3584 5394 3201 
Q 5691 2819 5691 2113 
L 5691 0 
L 5113 0 
L 5113 2094 
Q 5113 2597 4934 2840 
Q 4756 3084 4391 3084 
Q 3944 3084 3684 2787 
Q 3425 2491 3425 1978 
L 3425 0 
L 2847 0 
L 2847 2094 
Q 2847 2600 2669 2842 
Q 2491 3084 2119 3084 
Q 1678 3084 1418 2786 
Q 1159 2488 1159 1978 
L 1159 0 
L 581 0 
L 581 3500 
L 1159 3500 
L 1159 2956 
Q 1356 3278 1631 3431 
Q 1906 3584 2284 3584 
Q 2666 3584 2933 3390 
Q 3200 3197 3328 2828 
z
" transform="scale(0.015625)"/>
        <path id="DejaVuSans-67" d="M 2906 1791 
Q 2906 2416 2648 2759 
Q 2391 3103 1925 3103 
Q 1463 3103 1205 2759 
Q 947 2416 947 1791 
Q 947 1169 1205 825 
Q 1463 481 1925 481 
Q 2391 481 2648 825 
Q 2906 1169 2906 1791 
z
M 3481 434 
Q 3481 -459 3084 -895 
Q 2688 -1331 1869 -1331 
Q 1566 -1331 1297 -1286 
Q 1028 -1241 775 -1147 
L 775 -588 
Q 1028 -725 1275 -790 
Q 1522 -856 1778 -856 
Q 2344 -856 2625 -561 
Q 2906 -266 2906 331 
L 2906 616 
Q 2728 306 2450 153 
Q 2172 0 1784 0 
Q 1141 0 747 490 
Q 353 981 353 1791 
Q 353 2603 747 3093 
Q 1141 3584 1784 3584 
Q 2172 3584 2450 3431 
Q 2728 3278 2906 2969 
L 2906 3500 
L 3481 3500 
L 3481 434 
z
" transform="scale(0.015625)"/>
        <path id="DejaVuSans-73" d="M 2834 3397 
L 2834 2853 
Q 2591 2978 2328 3040 
Q 2066 3103 1784 3103 
Q 1356 3103 1142 2972 
Q 928 2841 928 2578 
Q 928 2378 1081 2264 
Q 1234 2150 1697 2047 
L 1894 2003 
Q 2506 1872 2764 1633 
Q 3022 1394 3022 966 
Q 3022 478 2636 193 
Q 2250 -91 1575 -91 
Q 1294 -91 989 -36 
Q 684 19 347 128 
L 347 722 
Q 666 556 975 473 
Q 1284 391 1588 391 
Q 1994 391 2212 530 
Q 2431 669 2431 922 
Q 2431 1156 2273 1281 
Q 2116 1406 1581 1522 
L 1381 1569 
Q 847 1681 609 1914 
Q 372 2147 372 2553 
Q 372 3047 722 3315 
Q 1072 3584 1716 3584 
Q 2034 3584 2315 3537 
Q 2597 3491 2834 3397 
z
" transform="scale(0.015625)"/>
        <path id="DejaVuSans-2d" d="M 313 2009 
L 1997 2009 
L 1997 1497 
L 313 1497 
L 313 2009 
z
" transform="scale(0.015625)"/>
        <path id="DejaVuSans-65" d="M 3597 1894 
L 3597 1613 
L 953 1613 
Q 991 1019 1311 708 
Q 1631 397 2203 397 
Q 2534 397 2845 478 
Q 3156 559 3463 722 
L 3463 178 
Q 3153 47 2828 -22 
Q 2503 -91 2169 -91 
Q 1331 -91 842 396 
Q 353 884 353 1716 
Q 353 2575 817 3079 
Q 1281 3584 2069 3584 
Q 2775 3584 3186 3129 
Q 3597 2675 3597 1894 
z
M 3022 2063 
Q 3016 2534 2758 2815 
Q 2500 3097 2075 3097 
Q 1594 3097 1305 2825 
Q 1016 2553 972 2059 
L 3022 2063 
z
" transform="scale(0.015625)"/>
        <path id="DejaVuSans-6e" d="M 3513 2113 
L 3513 0 
L 2938 0 
L 2938 2094 
Q 2938 2591 2744 2837 
Q 2550 3084 2163 3084 
Q 1697 3084 1428 2787 
Q 1159 2491 1159 1978 
L 1159 0 
L 581 0 
L 581 3500 
L 1159 3500 
L 1159 2956 
Q 1366 3272 1645 3428 
Q 1925 3584 2291 3584 
Q 2894 3584 3203 3211 
Q 3513 2838 3513 2113 
z
" transform="scale(0.015625)"/>
       </defs>
       <use xlink:href="#DejaVuSans-6d"/>
       <use xlink:href="#DejaVuSans-67" transform="translate(97.412109 0)"/>
       <use xlink:href="#DejaVuSans-73" transform="translate(160.888672 0)"/>
       <use xlink:href="#DejaVuSans-6d" transform="translate(212.988281 0)"/>
       <use xlink:href="#DejaVuSans-2d" transform="translate(310.400391 0)"/>
       <use xlink:href="#DejaVuSans-65" transform="translate(346.484375 0)"/>
       <use xlink:href="#DejaVuSans-6e" transform="translate(408.007812 0)"/>
      </g>
     </g>
    </g>
    <g id="xtick_2">
     <g id="line2d_2">
      <path d="M 140.006322 123.743636 
L 172.457333 23.869694 
" clip-path="url(#pa7a1cba670)" style="fill: none; stroke-dasharray: 0.8,1.32; stroke-dashoffset: 0; stroke: #b0b0b0; stroke-width: 0.8"/>
     </g>
     <g id="text_2">
      <!-- math-500 -->
      <g transform="translate(152.372634 13.314277) scale(0.1 -0.1)">
       <defs>
        <path id="DejaVuSans-61" d="M 2194 1759 
Q 1497 1759 1228 1600 
Q 959 1441 959 1056 
Q 959 750 1161 570 
Q 1363 391 1709 391 
Q 2188 391 2477 730 
Q 2766 1069 2766 1631 
L 2766 1759 
L 2194 1759 
z
M 3341 1997 
L 3341 0 
L 2766 0 
L 2766 531 
Q 2569 213 2275 61 
Q 1981 -91 1556 -91 
Q 1019 -91 701 211 
Q 384 513 384 1019 
Q 384 1609 779 1909 
Q 1175 2209 1959 2209 
L 2766 2209 
L 2766 2266 
Q 2766 2663 2505 2880 
Q 2244 3097 1772 3097 
Q 1472 3097 1187 3025 
Q 903 2953 641 2809 
L 641 3341 
Q 956 3463 1253 3523 
Q 1550 3584 1831 3584 
Q 2591 3584 2966 3190 
Q 3341 2797 3341 1997 
z
" transform="scale(0.015625)"/>
        <path id="DejaVuSans-74" d="M 1172 4494 
L 1172 3500 
L 2356 3500 
L 2356 3053 
L 1172 3053 
L 1172 1153 
Q 1172 725 1289 603 
Q 1406 481 1766 481 
L 2356 481 
L 2356 0 
L 1766 0 
Q 1100 0 847 248 
Q 594 497 594 1153 
L 594 3053 
L 172 3053 
L 172 3500 
L 594 3500 
L 594 4494 
L 1172 4494 
z
" transform="scale(0.015625)"/>
        <path id="DejaVuSans-68" d="M 3513 2113 
L 3513 0 
L 2938 0 
L 2938 2094 
Q 2938 2591 2744 2837 
Q 2550 3084 2163 3084 
Q 1697 3084 1428 2787 
Q 1159 2491 1159 1978 
L 1159 0 
L 581 0 
L 581 4863 
L 1159 4863 
L 1159 2956 
Q 1366 3272 1645 3428 
Q 1925 3584 2291 3584 
Q 2894 3584 3203 3211 
Q 3513 2838 3513 2113 
z
" transform="scale(0.015625)"/>
        <path id="DejaVuSans-35" d="M 691 4666 
L 3169 4666 
L 3169 4134 
L 1269 4134 
L 1269 2991 
Q 1406 3038 1543 3061 
Q 1681 3084 1819 3084 
Q 2600 3084 3056 2656 
Q 3513 2228 3513 1497 
Q 3513 744 3044 326 
Q 2575 -91 1722 -91 
Q 1428 -91 1123 -41 
Q 819 9 494 109 
L 494 744 
Q 775 591 1075 516 
Q 1375 441 1709 441 
Q 2250 441 2565 725 
Q 2881 1009 2881 1497 
Q 2881 1984 2565 2268 
Q 2250 2553 1709 2553 
Q 1456 2553 1204 2497 
Q 953 2441 691 2322 
L 691 4666 
z
" transform="scale(0.015625)"/>
        <path id="DejaVuSans-30" d="M 2034 4250 
Q 1547 4250 1301 3770 
Q 1056 3291 1056 2328 
Q 1056 1369 1301 889 
Q 1547 409 2034 409 
Q 2525 409 2770 889 
Q 3016 1369 3016 2328 
Q 3016 3291 2770 3770 
Q 2525 4250 2034 4250 
z
M 2034 4750 
Q 2819 4750 3233 4129 
Q 3647 3509 3647 2328 
Q 3647 1150 3233 529 
Q 2819 -91 2034 -91 
Q 1250 -91 836 529 
Q 422 1150 422 2328 
Q 422 3509 836 4129 
Q 1250 4750 2034 4750 
z
" transform="scale(0.015625)"/>
       </defs>
       <use xlink:href="#DejaVuSans-6d"/>
       <use xlink:href="#DejaVuSans-61" transform="translate(97.412109 0)"/>
       <use xlink:href="#DejaVuSans-74" transform="translate(158.691406 0)"/>
       <use xlink:href="#DejaVuSans-68" transform="translate(197.900391 0)"/>
       <use xlink:href="#DejaVuSans-2d" transform="translate(261.279297 0)"/>
       <use xlink:href="#DejaVuSans-35" transform="translate(297.363281 0)"/>
       <use xlink:href="#DejaVuSans-30" transform="translate(360.986328 0)"/>
       <use xlink:href="#DejaVuSans-30" transform="translate(424.609375 0)"/>
      </g>
     </g>
    </g>
    <g id="xtick_3">
     <g id="line2d_3">
      <path d="M 140.006322 123.743636 
L 55.048472 62.018145 
" clip-path="url(#pa7a1cba670)" style="fill: none; stroke-dasharray: 0.8,1.32; stroke-dashoffset: 0; stroke: #b0b0b0; stroke-width: 0.8"/>
     </g>
     <g id="text_3">
      <!-- humaneval -->
      <g transform="translate(15.792546 56.548527) scale(0.1 -0.1)">
       <defs>
        <path id="DejaVuSans-75" d="M 544 1381 
L 544 3500 
L 1119 3500 
L 1119 1403 
Q 1119 906 1312 657 
Q 1506 409 1894 409 
Q 2359 409 2629 706 
Q 2900 1003 2900 1516 
L 2900 3500 
L 3475 3500 
L 3475 0 
L 2900 0 
L 2900 538 
Q 2691 219 2414 64 
Q 2138 -91 1772 -91 
Q 1169 -91 856 284 
Q 544 659 544 1381 
z
M 1991 3584 
L 1991 3584 
z
" transform="scale(0.015625)"/>
        <path id="DejaVuSans-76" d="M 191 3500 
L 800 3500 
L 1894 563 
L 2988 3500 
L 3597 3500 
L 2284 0 
L 1503 0 
L 191 3500 
z
" transform="scale(0.015625)"/>
        <path id="DejaVuSans-6c" d="M 603 4863 
L 1178 4863 
L 1178 0 
L 603 0 
L 603 4863 
z
" transform="scale(0.015625)"/>
       </defs>
       <use xlink:href="#DejaVuSans-68"/>
       <use xlink:href="#DejaVuSans-75" transform="translate(63.378906 0)"/>
       <use xlink:href="#DejaVuSans-6d" transform="translate(126.757812 0)"/>
       <use xlink:href="#DejaVuSans-61" transform="translate(224.169922 0)"/>
       <use xlink:href="#DejaVuSans-6e" transform="translate(285.449219 0)"/>
       <use xlink:href="#DejaVuSans-65" transform="translate(348.828125 0)"/>
       <use xlink:href="#DejaVuSans-76" transform="translate(410.351562 0)"/>
       <use xlink:href="#DejaVuSans-61" transform="translate(469.53125 0)"/>
       <use xlink:href="#DejaVuSans-6c" transform="translate(530.810547 0)"/>
      </g>
     </g>
    </g>
    <g id="xtick_4">
     <g id="line2d_4">
      <path d="M 140.006322 123.743636 
L 55.048472 185.469128 
" clip-path="url(#pa7a1cba670)" style="fill: none; stroke-dasharray: 0.8,1.32; stroke-dashoffset: 0; stroke: #b0b0b0; stroke-width: 0.8"/>
     </g>
     <g id="text_4">
      <!-- mmlu-pro-1k -->
      <g transform="translate(11.469109 196.457496) scale(0.1 -0.1)">
       <defs>
        <path id="DejaVuSans-70" d="M 1159 525 
L 1159 -1331 
L 581 -1331 
L 581 3500 
L 1159 3500 
L 1159 2969 
Q 1341 3281 1617 3432 
Q 1894 3584 2278 3584 
Q 2916 3584 3314 3078 
Q 3713 2572 3713 1747 
Q 3713 922 3314 415 
Q 2916 -91 2278 -91 
Q 1894 -91 1617 61 
Q 1341 213 1159 525 
z
M 3116 1747 
Q 3116 2381 2855 2742 
Q 2594 3103 2138 3103 
Q 1681 3103 1420 2742 
Q 1159 2381 1159 1747 
Q 1159 1113 1420 752 
Q 1681 391 2138 391 
Q 2594 391 2855 752 
Q 3116 1113 3116 1747 
z
" transform="scale(0.015625)"/>
        <path id="DejaVuSans-72" d="M 2631 2963 
Q 2534 3019 2420 3045 
Q 2306 3072 2169 3072 
Q 1681 3072 1420 2755 
Q 1159 2438 1159 1844 
L 1159 0 
L 581 0 
L 581 3500 
L 1159 3500 
L 1159 2956 
Q 1341 3275 1631 3429 
Q 1922 3584 2338 3584 
Q 2397 3584 2469 3576 
Q 2541 3569 2628 3553 
L 2631 2963 
z
" transform="scale(0.015625)"/>
        <path id="DejaVuSans-6f" d="M 1959 3097 
Q 1497 3097 1228 2736 
Q 959 2375 959 1747 
Q 959 1119 1226 758 
Q 1494 397 1959 397 
Q 2419 397 2687 759 
Q 2956 1122 2956 1747 
Q 2956 2369 2687 2733 
Q 2419 3097 1959 3097 
z
M 1959 3584 
Q 2709 3584 3137 3096 
Q 3566 2609 3566 1747 
Q 3566 888 3137 398 
Q 2709 -91 1959 -91 
Q 1206 -91 779 398 
Q 353 888 353 1747 
Q 353 2609 779 3096 
Q 1206 3584 1959 3584 
z
" transform="scale(0.015625)"/>
        <path id="DejaVuSans-31" d="M 794 531 
L 1825 531 
L 1825 4091 
L 703 3866 
L 703 4441 
L 1819 4666 
L 2450 4666 
L 2450 531 
L 3481 531 
L 3481 0 
L 794 0 
L 794 531 
z
" transform="scale(0.015625)"/>
        <path id="DejaVuSans-6b" d="M 581 4863 
L 1159 4863 
L 1159 1991 
L 2875 3500 
L 3609 3500 
L 1753 1863 
L 3688 0 
L 2938 0 
L 1159 1709 
L 1159 0 
L 581 0 
L 581 4863 
z
" transform="scale(0.015625)"/>
       </defs>
       <use xlink:href="#DejaVuSans-6d"/>
       <use xlink:href="#DejaVuSans-6d" transform="translate(97.412109 0)"/>
       <use xlink:href="#DejaVuSans-6c" transform="translate(194.824219 0)"/>
       <use xlink:href="#DejaVuSans-75" transform="translate(222.607422 0)"/>
       <use xlink:href="#DejaVuSans-2d" transform="translate(285.986328 0)"/>
       <use xlink:href="#DejaVuSans-70" transform="translate(322.070312 0)"/>
       <use xlink:href="#DejaVuSans-72" transform="translate(385.546875 0)"/>
       <use xlink:href="#DejaVuSans-6f" transform="translate(424.410156 0)"/>
       <use xlink:href="#DejaVuSans-2d" transform="translate(487.466797 0)"/>
       <use xlink:href="#DejaVuSans-31" transform="translate(523.550781 0)"/>
       <use xlink:href="#DejaVuSans-6b" transform="translate(587.173828 0)"/>
      </g>
     </g>
    </g>
    <g id="xtick_5">
     <g id="line2d_5">
      <path d="M 140.006322 123.743636 
L 172.457333 223.617579 
" clip-path="url(#pa7a1cba670)" style="fill: none; stroke-dasharray: 0.8,1.32; stroke-dashoffset: 0; stroke: #b0b0b0; stroke-width: 0.8"/>
     </g>
     <g id="text_5">
      <!-- bbh-1k -->
      <g transform="translate(159.385915 239.691745) scale(0.1 -0.1)">
       <defs>
        <path id="DejaVuSans-62" d="M 3116 1747 
Q 3116 2381 2855 2742 
Q 2594 3103 2138 3103 
Q 1681 3103 1420 2742 
Q 1159 2381 1159 1747 
Q 1159 1113 1420 752 
Q 1681 391 2138 391 
Q 2594 391 2855 752 
Q 3116 1113 3116 1747 
z
M 1159 2969 
Q 1341 3281 1617 3432 
Q 1894 3584 2278 3584 
Q 2916 3584 3314 3078 
Q 3713 2572 3713 1747 
Q 3713 922 3314 415 
Q 2916 -91 2278 -91 
Q 1894 -91 1617 61 
Q 1341 213 1159 525 
L 1159 0 
L 581 0 
L 581 4863 
L 1159 4863 
L 1159 2969 
z
" transform="scale(0.015625)"/>
       </defs>
       <use xlink:href="#DejaVuSans-62"/>
       <use xlink:href="#DejaVuSans-62" transform="translate(63.476562 0)"/>
       <use xlink:href="#DejaVuSans-68" transform="translate(126.953125 0)"/>
       <use xlink:href="#DejaVuSans-2d" transform="translate(190.332031 0)"/>
       <use xlink:href="#DejaVuSans-31" transform="translate(226.416016 0)"/>
       <use xlink:href="#DejaVuSans-6b" transform="translate(290.039062 0)"/>
      </g>
     </g>
    </g>
   </g>
   <g id="matplotlib.axis_2">
    <g id="ytick_1">
     <g id="line2d_6">
      <path d="M 140.006322 123.743636 
C 140.006322 123.743636 140.006322 123.743636 140.006322 123.743636 
C 140.006322 123.743636 140.006322 123.743636 140.006322 123.743636 
C 140.006322 123.743636 140.006322 123.743636 140.006322 123.743636 
C 140.006322 123.743636 140.006322 123.743636 140.006322 123.743636 
C 140.006322 123.743636 140.006322 123.743636 140.006322 123.743636 
C 140.006322 123.743636 140.006322 123.743636 140.006322 123.743636 
C 140.006322 123.743636 140.006322 123.743636 140.006322 123.743636 
C 140.006322 123.743636 140.006322 123.743636 140.006322 123.743636 
C 140.006322 123.743636 140.006322 123.743636 140.006322 123.743636 
C 140.006322 123.743636 140.006322 123.743636 140.006322 123.743636 
C 140.006322 123.743636 140.006322 123.743636 140.006322 123.743636 
C 140.006322 123.743636 140.006322 123.743636 140.006322 123.743636 
C 140.006322 123.743636 140.006322 123.743636 140.006322 123.743636 
C 140.006322 123.743636 140.006322 123.743636 140.006322 123.743636 
C 140.006322 123.743636 140.006322 123.743636 140.006322 123.743636 
C 140.006322 123.743636 140.006322 123.743636 140.006322 123.743636 
" clip-path="url(#pa7a1cba670)" style="fill: none; stroke-dasharray: 0.8,1.32; stroke-dashoffset: 0; stroke: #b0b0b0; stroke-width: 0.8"/>
     </g>
     <g id="text_6">
      <!-- 0.0 -->
      <g transform="translate(140.006322 121.663949) scale(0.1 -0.1)">
       <defs>
        <path id="DejaVuSans-2e" d="M 684 794 
L 1344 794 
L 1344 0 
L 684 0 
L 684 794 
z
" transform="scale(0.015625)"/>
       </defs>
       <use xlink:href="#DejaVuSans-30"/>
       <use xlink:href="#DejaVuSans-2e" transform="translate(63.623047 0)"/>
       <use xlink:href="#DejaVuSans-30" transform="translate(95.410156 0)"/>
      </g>
     </g>
    </g>
    <g id="ytick_2">
     <g id="line2d_7">
      <path d="M 161.009058 123.743636 
C 161.009058 120.985582 160.465781 118.254347 159.41032 115.706237 
C 158.354858 113.158128 156.807737 110.842698 154.857499 108.89246 
C 152.90726 106.942221 150.591831 105.3951 148.043721 104.339639 
C 145.495611 103.284177 142.764376 102.740901 140.006322 102.740901 
C 137.248268 102.740901 134.517033 103.284177 131.968923 104.339639 
C 129.420813 105.3951 127.105384 106.942221 125.155145 108.89246 
C 123.204907 110.842698 121.657786 113.158128 120.602324 115.706237 
C 119.546863 118.254347 119.003586 120.985582 119.003586 123.743636 
C 119.003586 126.50169 119.546863 129.232926 120.602324 131.781035 
C 121.657786 134.329145 123.204907 136.644574 125.155145 138.594813 
C 127.105384 140.545052 129.420813 142.092172 131.968923 143.147634 
C 134.517033 144.203095 137.248268 144.746372 140.006322 144.746372 
C 142.764376 144.746372 145.495611 144.203095 148.043721 143.147634 
C 150.591831 142.092172 152.90726 140.545052 154.857499 138.594813 
C 156.807737 136.644574 158.354858 134.329145 159.41032 131.781035 
C 160.465781 129.232926 161.009058 126.50169 161.009058 123.743636 
" clip-path="url(#pa7a1cba670)" style="fill: none; stroke-dasharray: 0.8,1.32; stroke-dashoffset: 0; stroke: #b0b0b0; stroke-width: 0.8"/>
     </g>
     <g id="text_7">
      <!-- 0.2 -->
      <g transform="translate(159.41032 113.62655) scale(0.1 -0.1)">
       <defs>
        <path id="DejaVuSans-32" d="M 1228 531 
L 3431 531 
L 3431 0 
L 469 0 
L 469 531 
Q 828 903 1448 1529 
Q 2069 2156 2228 2338 
Q 2531 2678 2651 2914 
Q 2772 3150 2772 3378 
Q 2772 3750 2511 3984 
Q 2250 4219 1831 4219 
Q 1534 4219 1204 4116 
Q 875 4013 500 3803 
L 500 4441 
Q 881 4594 1212 4672 
Q 1544 4750 1819 4750 
Q 2544 4750 2975 4387 
Q 3406 4025 3406 3419 
Q 3406 3131 3298 2873 
Q 3191 2616 2906 2266 
Q 2828 2175 2409 1742 
Q 1991 1309 1228 531 
z
" transform="scale(0.015625)"/>
       </defs>
       <use xlink:href="#DejaVuSans-30"/>
       <use xlink:href="#DejaVuSans-2e" transform="translate(63.623047 0)"/>
       <use xlink:href="#DejaVuSans-32" transform="translate(95.410156 0)"/>
      </g>
     </g>
    </g>
    <g id="ytick_3">
     <g id="line2d_8">
      <path d="M 182.011793 123.743636 
C 182.011793 118.227528 180.92524 112.765058 178.814317 107.668838 
C 176.703394 102.572619 173.609153 97.94176 169.708675 94.041283 
C 165.808198 90.140805 161.177339 87.046564 156.08112 84.935641 
C 150.984901 82.824718 145.52243 81.738165 140.006322 81.738165 
C 134.490214 81.738165 129.027743 82.824718 123.931524 84.935641 
C 118.835305 87.046564 114.204446 90.140805 110.303968 94.041283 
C 106.403491 97.94176 103.30925 102.572619 101.198327 107.668838 
C 99.087404 112.765058 98.000851 118.227528 98.000851 123.743636 
C 98.000851 129.259744 99.087404 134.722215 101.198327 139.818434 
C 103.30925 144.914653 106.403491 149.545513 110.303968 153.44599 
C 114.204446 157.346467 118.835305 160.440708 123.931524 162.551631 
C 129.027743 164.662555 134.490214 165.749108 140.006322 165.749108 
C 145.52243 165.749108 150.984901 164.662555 156.08112 162.551631 
C 161.177339 160.440708 165.808198 157.346467 169.708675 153.44599 
C 173.609153 149.545513 176.703394 144.914653 178.814317 139.818434 
C 180.92524 134.722215 182.011793 129.259744 182.011793 123.743636 
" clip-path="url(#pa7a1cba670)" style="fill: none; stroke-dasharray: 0.8,1.32; stroke-dashoffset: 0; stroke: #b0b0b0; stroke-width: 0.8"/>
     </g>
     <g id="text_8">
      <!-- 0.4 -->
      <g transform="translate(178.814317 105.589151) scale(0.1 -0.1)">
       <defs>
        <path id="DejaVuSans-34" d="M 2419 4116 
L 825 1625 
L 2419 1625 
L 2419 4116 
z
M 2253 4666 
L 3047 4666 
L 3047 1625 
L 3713 1625 
L 3713 1100 
L 3047 1100 
L 3047 0 
L 2419 0 
L 2419 1100 
L 313 1100 
L 313 1709 
L 2253 4666 
z
" transform="scale(0.015625)"/>
       </defs>
       <use xlink:href="#DejaVuSans-30"/>
       <use xlink:href="#DejaVuSans-2e" transform="translate(63.623047 0)"/>
       <use xlink:href="#DejaVuSans-34" transform="translate(95.410156 0)"/>
      </g>
     </g>
    </g>
    <g id="ytick_4">
     <g id="line2d_9">
      <path d="M 203.014529 123.743636 
C 203.014529 115.469474 201.384699 107.275768 198.218315 99.63144 
C 195.05193 91.987111 190.410568 85.040822 184.559852 79.190106 
C 178.709136 73.33939 171.762848 68.698028 164.118519 65.531644 
C 156.47419 62.365259 148.280484 60.73543 140.006322 60.73543 
C 131.73216 60.73543 123.538454 62.365259 115.894125 65.531644 
C 108.249796 68.698028 101.303508 73.33939 95.452792 79.190106 
C 89.602076 85.040822 84.960714 91.987111 81.794329 99.63144 
C 78.627945 107.275768 76.998115 115.469474 76.998115 123.743636 
C 76.998115 132.017798 78.627945 140.211504 81.794329 147.855833 
C 84.960714 155.500162 89.602076 162.446451 95.452792 168.297167 
C 101.303508 174.147883 108.249796 178.789244 115.894125 181.955629 
C 123.538454 185.122014 131.73216 186.751843 140.006322 186.751843 
C 148.280484 186.751843 156.47419 185.122014 164.118519 181.955629 
C 171.762848 178.789244 178.709136 174.147883 184.559852 168.297167 
C 190.410568 162.446451 195.05193 155.500162 198.218315 147.855833 
C 201.384699 140.211504 203.014529 132.017798 203.014529 123.743636 
" clip-path="url(#pa7a1cba670)" style="fill: none; stroke-dasharray: 0.8,1.32; stroke-dashoffset: 0; stroke: #b0b0b0; stroke-width: 0.8"/>
     </g>
     <g id="text_9">
      <!-- 0.6 -->
      <g transform="translate(198.218315 97.551752) scale(0.1 -0.1)">
       <defs>
        <path id="DejaVuSans-36" d="M 2113 2584 
Q 1688 2584 1439 2293 
Q 1191 2003 1191 1497 
Q 1191 994 1439 701 
Q 1688 409 2113 409 
Q 2538 409 2786 701 
Q 3034 994 3034 1497 
Q 3034 2003 2786 2293 
Q 2538 2584 2113 2584 
z
M 3366 4563 
L 3366 3988 
Q 3128 4100 2886 4159 
Q 2644 4219 2406 4219 
Q 1781 4219 1451 3797 
Q 1122 3375 1075 2522 
Q 1259 2794 1537 2939 
Q 1816 3084 2150 3084 
Q 2853 3084 3261 2657 
Q 3669 2231 3669 1497 
Q 3669 778 3244 343 
Q 2819 -91 2113 -91 
Q 1303 -91 875 529 
Q 447 1150 447 2328 
Q 447 3434 972 4092 
Q 1497 4750 2381 4750 
Q 2619 4750 2861 4703 
Q 3103 4656 3366 4563 
z
" transform="scale(0.015625)"/>
       </defs>
       <use xlink:href="#DejaVuSans-30"/>
       <use xlink:href="#DejaVuSans-2e" transform="translate(63.623047 0)"/>
       <use xlink:href="#DejaVuSans-36" transform="translate(95.410156 0)"/>
      </g>
     </g>
    </g>
    <g id="ytick_5">
     <g id="line2d_10">
      <path d="M 224.017264 123.743636 
C 224.017264 112.71142 221.844158 101.786479 217.622312 91.594041 
C 213.400466 81.401602 207.211984 72.139884 199.411029 64.338929 
C 191.610074 56.537975 182.348356 50.349492 172.155918 46.127646 
C 161.963479 41.9058 151.038538 39.732694 140.006322 39.732694 
C 128.974106 39.732694 118.049165 41.9058 107.856726 46.127646 
C 97.664288 50.349492 88.40257 56.537975 80.601615 64.338929 
C 72.80066 72.139884 66.612178 81.401602 62.390332 91.594041 
C 58.168485 101.786479 55.99538 112.71142 55.99538 123.743636 
C 55.99538 134.775852 58.168485 145.700794 62.390332 155.893232 
C 66.612178 166.085671 72.80066 175.347389 80.601615 183.148343 
C 88.40257 190.949298 97.664288 197.13778 107.856726 201.359627 
C 118.049165 205.581473 128.974106 207.754579 140.006322 207.754579 
C 151.038538 207.754579 161.963479 205.581473 172.155918 201.359627 
C 182.348356 197.13778 191.610074 190.949298 199.411029 183.148343 
C 207.211984 175.347389 213.400466 166.085671 217.622312 155.893232 
C 221.844158 145.700794 224.017264 134.775852 224.017264 123.743636 
" clip-path="url(#pa7a1cba670)" style="fill: none; stroke-dasharray: 0.8,1.32; stroke-dashoffset: 0; stroke: #b0b0b0; stroke-width: 0.8"/>
     </g>
     <g id="text_10">
      <!-- 0.8 -->
      <g transform="translate(217.622312 89.514353) scale(0.1 -0.1)">
       <defs>
        <path id="DejaVuSans-38" d="M 2034 2216 
Q 1584 2216 1326 1975 
Q 1069 1734 1069 1313 
Q 1069 891 1326 650 
Q 1584 409 2034 409 
Q 2484 409 2743 651 
Q 3003 894 3003 1313 
Q 3003 1734 2745 1975 
Q 2488 2216 2034 2216 
z
M 1403 2484 
Q 997 2584 770 2862 
Q 544 3141 544 3541 
Q 544 4100 942 4425 
Q 1341 4750 2034 4750 
Q 2731 4750 3128 4425 
Q 3525 4100 3525 3541 
Q 3525 3141 3298 2862 
Q 3072 2584 2669 2484 
Q 3125 2378 3379 2068 
Q 3634 1759 3634 1313 
Q 3634 634 3220 271 
Q 2806 -91 2034 -91 
Q 1263 -91 848 271 
Q 434 634 434 1313 
Q 434 1759 690 2068 
Q 947 2378 1403 2484 
z
M 1172 3481 
Q 1172 3119 1398 2916 
Q 1625 2713 2034 2713 
Q 2441 2713 2670 2916 
Q 2900 3119 2900 3481 
Q 2900 3844 2670 4047 
Q 2441 4250 2034 4250 
Q 1625 4250 1398 4047 
Q 1172 3844 1172 3481 
z
" transform="scale(0.015625)"/>
       </defs>
       <use xlink:href="#DejaVuSans-30"/>
       <use xlink:href="#DejaVuSans-2e" transform="translate(63.623047 0)"/>
       <use xlink:href="#DejaVuSans-38" transform="translate(95.410156 0)"/>
      </g>
     </g>
    </g>
    <g id="ytick_6">
     <g id="line2d_11">
      <path d="M 245.02 123.743636 
C 245.02 109.953367 242.303618 96.29719 237.02631 83.556642 
C 231.749002 70.816094 224.013399 59.238946 214.262206 49.487752 
C 204.511012 39.736559 192.933865 32.000956 180.193317 26.723649 
C 167.452769 21.446341 153.796592 18.729958 140.006322 18.729958 
C 126.216052 18.729958 112.559875 21.446341 99.819327 26.723649 
C 87.078779 32.000956 75.501631 39.736559 65.750438 49.487752 
C 55.999245 59.238946 48.263642 70.816094 42.986334 83.556642 
C 37.709026 96.29719 34.992644 109.953367 34.992644 123.743636 
C 34.992644 137.533906 37.709026 151.190083 42.986334 163.930631 
C 48.263642 176.671179 55.999245 188.248327 65.750438 197.99952 
C 75.501631 207.750714 87.078779 215.486316 99.819327 220.763624 
C 112.559875 226.040932 126.216052 228.757314 140.006322 228.757314 
C 153.796592 228.757314 167.452769 226.040932 180.193317 220.763624 
C 192.933865 215.486316 204.511012 207.750714 214.262206 197.99952 
C 224.013399 188.248327 231.749002 176.671179 237.02631 163.930631 
C 242.303618 151.190083 245.02 137.533906 245.02 123.743636 
" clip-path="url(#pa7a1cba670)" style="fill: none; stroke-dasharray: 0.8,1.32; stroke-dashoffset: 0; stroke: #b0b0b0; stroke-width: 0.8"/>
     </g>
     <g id="text_11">
      <!-- 1.0 -->
      <g transform="translate(237.02631 81.476954) scale(0.1 -0.1)">
       <use xlink:href="#DejaVuSans-31"/>
       <use xlink:href="#DejaVuSans-2e" transform="translate(63.623047 0)"/>
       <use xlink:href="#DejaVuSans-30" transform="translate(95.410156 0)"/>
      </g>
     </g>
    </g>
   </g>
   <g id="line2d_12">
    <path d="M 229.705505 123.743636 
L 155.582807 75.804144 
L 80.43222 80.460518 
L 98.801765 153.6805 
L 161.529952 189.986558 
L 229.705505 123.743636 
" clip-path="url(#pa7a1cba670)" style="fill: none; stroke: #1f77b4; stroke-width: 1.5; stroke-linecap: square"/>
   </g>
   <g id="line2d_13">
    <path d="M 210.365486 123.743636 
L 145.198484 107.763806 
L 117.212752 107.183139 
L 114.094178 142.569911 
L 157.854378 178.674305 
L 210.365486 123.743636 
" clip-path="url(#pa7a1cba670)" style="fill: none; stroke: #ff7f0e; stroke-width: 1.5; stroke-linecap: square"/>
   </g>
   <g id="line2d_14">
    <path d="M 214.566033 123.743636 
L 148.856598 96.505288 
L 108.01602 100.501322 
L 109.421496 145.964813 
L 155.987222 172.927789 
L 214.566033 123.743636 
" clip-path="url(#pa7a1cba670)" style="fill: none; stroke: #2ca02c; stroke-width: 1.5; stroke-linecap: square"/>
   </g>
   <g id="text_12">
    <!-- lite -->
    <g transform="translate(130.628509 12.729958) scale(0.12 -0.12)">
     <defs>
      <path id="DejaVuSans-69" d="M 603 3500 
L 1178 3500 
L 1178 0 
L 603 0 
L 603 3500 
z
M 603 4863 
L 1178 4863 
L 1178 4134 
L 603 4134 
L 603 4863 
z
" transform="scale(0.015625)"/>
     </defs>
     <use xlink:href="#DejaVuSans-6c"/>
     <use xlink:href="#DejaVuSans-69" transform="translate(27.783203 0)"/>
     <use xlink:href="#DejaVuSans-74" transform="translate(55.566406 0)"/>
     <use xlink:href="#DejaVuSans-65" transform="translate(94.775391 0)"/>
    </g>
   </g>
   <g id="legend_1">
    <g id="line2d_15">
     <path d="M 18.953197 262.507709 
L 28.953197 262.507709 
L 38.953197 262.507709 
" style="fill: none; stroke: #1f77b4; stroke-width: 1.5; stroke-linecap: square"/>
    </g>
    <g id="text_13">
     <!-- llama-3.1-8b:yandex -->
     <g transform="translate(46.953197 266.007709) scale(0.1 -0.1)">
      <defs>
       <path id="DejaVuSans-33" d="M 2597 2516 
Q 3050 2419 3304 2112 
Q 3559 1806 3559 1356 
Q 3559 666 3084 287 
Q 2609 -91 1734 -91 
Q 1441 -91 1130 -33 
Q 819 25 488 141 
L 488 750 
Q 750 597 1062 519 
Q 1375 441 1716 441 
Q 2309 441 2620 675 
Q 2931 909 2931 1356 
Q 2931 1769 2642 2001 
Q 2353 2234 1838 2234 
L 1294 2234 
L 1294 2753 
L 1863 2753 
Q 2328 2753 2575 2939 
Q 2822 3125 2822 3475 
Q 2822 3834 2567 4026 
Q 2313 4219 1838 4219 
Q 1578 4219 1281 4162 
Q 984 4106 628 3988 
L 628 4550 
Q 988 4650 1302 4700 
Q 1616 4750 1894 4750 
Q 2613 4750 3031 4423 
Q 3450 4097 3450 3541 
Q 3450 3153 3228 2886 
Q 3006 2619 2597 2516 
z
" transform="scale(0.015625)"/>
       <path id="DejaVuSans-3a" d="M 750 794 
L 1409 794 
L 1409 0 
L 750 0 
L 750 794 
z
M 750 3309 
L 1409 3309 
L 1409 2516 
L 750 2516 
L 750 3309 
z
" transform="scale(0.015625)"/>
       <path id="DejaVuSans-79" d="M 2059 -325 
Q 1816 -950 1584 -1140 
Q 1353 -1331 966 -1331 
L 506 -1331 
L 506 -850 
L 844 -850 
Q 1081 -850 1212 -737 
Q 1344 -625 1503 -206 
L 1606 56 
L 191 3500 
L 800 3500 
L 1894 763 
L 2988 3500 
L 3597 3500 
L 2059 -325 
z
" transform="scale(0.015625)"/>
       <path id="DejaVuSans-64" d="M 2906 2969 
L 2906 4863 
L 3481 4863 
L 3481 0 
L 2906 0 
L 2906 525 
Q 2725 213 2448 61 
Q 2172 -91 1784 -91 
Q 1150 -91 751 415 
Q 353 922 353 1747 
Q 353 2572 751 3078 
Q 1150 3584 1784 3584 
Q 2172 3584 2448 3432 
Q 2725 3281 2906 2969 
z
M 947 1747 
Q 947 1113 1208 752 
Q 1469 391 1925 391 
Q 2381 391 2643 752 
Q 2906 1113 2906 1747 
Q 2906 2381 2643 2742 
Q 2381 3103 1925 3103 
Q 1469 3103 1208 2742 
Q 947 2381 947 1747 
z
" transform="scale(0.015625)"/>
       <path id="DejaVuSans-78" d="M 3513 3500 
L 2247 1797 
L 3578 0 
L 2900 0 
L 1881 1375 
L 863 0 
L 184 0 
L 1544 1831 
L 300 3500 
L 978 3500 
L 1906 2253 
L 2834 3500 
L 3513 3500 
z
" transform="scale(0.015625)"/>
      </defs>
      <use xlink:href="#DejaVuSans-6c"/>
      <use xlink:href="#DejaVuSans-6c" transform="translate(27.783203 0)"/>
      <use xlink:href="#DejaVuSans-61" transform="translate(55.566406 0)"/>
      <use xlink:href="#DejaVuSans-6d" transform="translate(116.845703 0)"/>
      <use xlink:href="#DejaVuSans-61" transform="translate(214.257812 0)"/>
      <use xlink:href="#DejaVuSans-2d" transform="translate(275.537109 0)"/>
      <use xlink:href="#DejaVuSans-33" transform="translate(311.621094 0)"/>
      <use xlink:href="#DejaVuSans-2e" transform="translate(375.244141 0)"/>
      <use xlink:href="#DejaVuSans-31" transform="translate(407.03125 0)"/>
      <use xlink:href="#DejaVuSans-2d" transform="translate(470.654297 0)"/>
      <use xlink:href="#DejaVuSans-38" transform="translate(506.738281 0)"/>
      <use xlink:href="#DejaVuSans-62" transform="translate(570.361328 0)"/>
      <use xlink:href="#DejaVuSans-3a" transform="translate(633.837891 0)"/>
      <use xlink:href="#DejaVuSans-79" transform="translate(667.529297 0)"/>
      <use xlink:href="#DejaVuSans-61" transform="translate(726.708984 0)"/>
      <use xlink:href="#DejaVuSans-6e" transform="translate(787.988281 0)"/>
      <use xlink:href="#DejaVuSans-64" transform="translate(851.367188 0)"/>
      <use xlink:href="#DejaVuSans-65" transform="translate(914.84375 0)"/>
      <use xlink:href="#DejaVuSans-78" transform="translate(974.617188 0)"/>
     </g>
    </g>
    <g id="line2d_16">
     <path d="M 18.953197 277.185834 
L 28.953197 277.185834 
L 38.953197 277.185834 
" style="fill: none; stroke: #ff7f0e; stroke-width: 1.5; stroke-linecap: square"/>
    </g>
    <g id="text_14">
     <!-- yandexgpt-4-lite -->
     <g transform="translate(46.953197 280.685834) scale(0.1 -0.1)">
      <use xlink:href="#DejaVuSans-79"/>
      <use xlink:href="#DejaVuSans-61" transform="translate(59.179688 0)"/>
      <use xlink:href="#DejaVuSans-6e" transform="translate(120.458984 0)"/>
      <use xlink:href="#DejaVuSans-64" transform="translate(183.837891 0)"/>
      <use xlink:href="#DejaVuSans-65" transform="translate(247.314453 0)"/>
      <use xlink:href="#DejaVuSans-78" transform="translate(307.087891 0)"/>
      <use xlink:href="#DejaVuSans-67" transform="translate(366.267578 0)"/>
      <use xlink:href="#DejaVuSans-70" transform="translate(429.744141 0)"/>
      <use xlink:href="#DejaVuSans-74" transform="translate(493.220703 0)"/>
      <use xlink:href="#DejaVuSans-2d" transform="translate(532.429688 0)"/>
      <use xlink:href="#DejaVuSans-34" transform="translate(568.513672 0)"/>
      <use xlink:href="#DejaVuSans-2d" transform="translate(632.136719 0)"/>
      <use xlink:href="#DejaVuSans-6c" transform="translate(668.220703 0)"/>
      <use xlink:href="#DejaVuSans-69" transform="translate(696.003906 0)"/>
      <use xlink:href="#DejaVuSans-74" transform="translate(723.787109 0)"/>
      <use xlink:href="#DejaVuSans-65" transform="translate(762.996094 0)"/>
     </g>
    </g>
    <g id="line2d_17">
     <path d="M 170.334447 262.507709 
L 180.334447 262.507709 
L 190.334447 262.507709 
" style="fill: none; stroke: #2ca02c; stroke-width: 1.5; stroke-linecap: square"/>
    </g>
    <g id="text_15">
     <!-- gigachat-lite -->
     <g transform="translate(198.334447 266.007709) scale(0.1 -0.1)">
      <defs>
       <path id="DejaVuSans-63" d="M 3122 3366 
L 3122 2828 
Q 2878 2963 2633 3030 
Q 2388 3097 2138 3097 
Q 1578 3097 1268 2742 
Q 959 2388 959 1747 
Q 959 1106 1268 751 
Q 1578 397 2138 397 
Q 2388 397 2633 464 
Q 2878 531 3122 666 
L 3122 134 
Q 2881 22 2623 -34 
Q 2366 -91 2075 -91 
Q 1284 -91 818 406 
Q 353 903 353 1747 
Q 353 2603 823 3093 
Q 1294 3584 2113 3584 
Q 2378 3584 2631 3529 
Q 2884 3475 3122 3366 
z
" transform="scale(0.015625)"/>
      </defs>
      <use xlink:href="#DejaVuSans-67"/>
      <use xlink:href="#DejaVuSans-69" transform="translate(63.476562 0)"/>
      <use xlink:href="#DejaVuSans-67" transform="translate(91.259766 0)"/>
      <use xlink:href="#DejaVuSans-61" transform="translate(154.736328 0)"/>
      <use xlink:href="#DejaVuSans-63" transform="translate(216.015625 0)"/>
      <use xlink:href="#DejaVuSans-68" transform="translate(270.996094 0)"/>
      <use xlink:href="#DejaVuSans-61" transform="translate(334.375 0)"/>
      <use xlink:href="#DejaVuSans-74" transform="translate(395.654297 0)"/>
      <use xlink:href="#DejaVuSans-2d" transform="translate(434.863281 0)"/>
      <use xlink:href="#DejaVuSans-6c" transform="translate(470.947266 0)"/>
      <use xlink:href="#DejaVuSans-69" transform="translate(498.730469 0)"/>
      <use xlink:href="#DejaVuSans-74" transform="translate(526.513672 0)"/>
      <use xlink:href="#DejaVuSans-65" transform="translate(565.722656 0)"/>
     </g>
    </g>
   </g>
  </g>
  <g id="axes_2">
   <g id="patch_3">
    <path d="M 527.62 123.743636 
C 527.62 109.953367 524.903618 96.29719 519.62631 83.556642 
C 514.349002 70.816094 506.613399 59.238946 496.862206 49.487752 
C 487.111012 39.736559 475.533865 32.000956 462.793317 26.723649 
C 450.052769 21.446341 436.396592 18.729958 422.606322 18.729958 
C 408.816052 18.729958 395.159875 21.446341 382.419327 26.723649 
C 369.678779 32.000956 358.101631 39.736559 348.350438 49.487752 
C 338.599245 59.238946 330.863642 70.816094 325.586334 83.556642 
C 320.309026 96.29719 317.592644 109.953367 317.592644 123.743636 
C 317.592644 137.533906 320.309026 151.190083 325.586334 163.930631 
C 330.863642 176.671179 338.599245 188.248327 348.350438 197.99952 
C 358.101631 207.750714 369.678779 215.486316 382.419327 220.763624 
C 395.159875 226.040932 408.816052 228.757314 422.606322 228.757314 
C 436.396592 228.757314 450.052769 226.040932 462.793317 220.763624 
C 475.533865 215.486316 487.111012 207.750714 496.862206 197.99952 
C 506.613399 188.248327 514.349002 176.671179 519.62631 163.930631 
C 524.903618 151.190083 527.62 137.533906 527.62 123.743636 
M 422.606322 123.743636 
C 422.606322 123.743636 422.606322 123.743636 422.606322 123.743636 
C 422.606322 123.743636 422.606322 123.743636 422.606322 123.743636 
C 422.606322 123.743636 422.606322 123.743636 422.606322 123.743636 
C 422.606322 123.743636 422.606322 123.743636 422.606322 123.743636 
C 422.606322 123.743636 422.606322 123.743636 422.606322 123.743636 
C 422.606322 123.743636 422.606322 123.743636 422.606322 123.743636 
C 422.606322 123.743636 422.606322 123.743636 422.606322 123.743636 
C 422.606322 123.743636 422.606322 123.743636 422.606322 123.743636 
C 422.606322 123.743636 422.606322 123.743636 422.606322 123.743636 
C 422.606322 123.743636 422.606322 123.743636 422.606322 123.743636 
C 422.606322 123.743636 422.606322 123.743636 422.606322 123.743636 
C 422.606322 123.743636 422.606322 123.743636 422.606322 123.743636 
C 422.606322 123.743636 422.606322 123.743636 422.606322 123.743636 
C 422.606322 123.743636 422.606322 123.743636 422.606322 123.743636 
C 422.606322 123.743636 422.606322 123.743636 422.606322 123.743636 
C 422.606322 123.743636 422.606322 123.743636 422.606322 123.743636 
z
" style="fill: #ffffff"/>
   </g>
   <g id="FillBetweenPolyCollection_4">
    <path d="M 523.445706 123.743636 
L 517.643701 123.743636 
L 438.345062 75.304774 
L 367.176505 83.471517 
L 371.652851 160.7635 
L 445.32203 193.655396 
L 517.643701 123.743636 
L 523.445706 123.743636 
L 523.445706 123.743636 
L 448.729386 204.14216 
L 361.861459 167.877363 
L 356.271854 75.548824 
L 441.922786 64.293672 
L 523.445706 123.743636 
z
" clip-path="url(#p3b6cdc981d)" style="fill: #1f77b4; fill-opacity: 0.2"/>
   </g>
   <g id="FillBetweenPolyCollection_5">
    <path d="M 522.920638 123.743636 
L 517.643701 123.743636 
L 439.318593 72.308556 
L 349.071158 70.317213 
L 366.130591 164.775657 
L 448.404876 203.143421 
L 517.643701 123.743636 
L 522.920638 123.743636 
L 522.920638 123.743636 
L 451.000957 211.133336 
L 358.887934 170.037755 
L 342.828828 65.781895 
L 442.888204 61.322422 
L 522.920638 123.743636 
z
" clip-path="url(#p3b6cdc981d)" style="fill: #ff7f0e; fill-opacity: 0.2"/>
   </g>
   <g id="FillBetweenPolyCollection_6">
    <path d="M 524.994658 123.743636 
L 519.743974 123.743636 
L 443.204601 60.348651 
L 357.851863 76.696768 
L 366.109352 164.791088 
L 449.045783 205.115931 
L 519.743974 123.743636 
L 524.994658 123.743636 
L 524.994658 123.743636 
L 452.298997 215.128294 
L 357.592327 170.979069 
L 350.599364 71.427519 
L 446.457815 50.336288 
L 524.994658 123.743636 
z
" clip-path="url(#p3b6cdc981d)" style="fill: #2ca02c; fill-opacity: 0.2"/>
   </g>
   <g id="matplotlib.axis_3">
    <g id="xtick_6">
     <g id="line2d_18">
      <path d="M 422.606322 123.743636 
L 527.62 123.743636 
" clip-path="url(#p3b6cdc981d)" style="fill: none; stroke-dasharray: 0.8,1.32; stroke-dashoffset: 0; stroke: #b0b0b0; stroke-width: 0.8"/>
     </g>
     <g id="text_16">
      <!-- mgsm-en -->
      <g transform="translate(518.05125 126.503011) scale(0.1 -0.1)">
       <use xlink:href="#DejaVuSans-6d"/>
       <use xlink:href="#DejaVuSans-67" transform="translate(97.412109 0)"/>
       <use xlink:href="#DejaVuSans-73" transform="translate(160.888672 0)"/>
       <use xlink:href="#DejaVuSans-6d" transform="translate(212.988281 0)"/>
       <use xlink:href="#DejaVuSans-2d" transform="translate(310.400391 0)"/>
       <use xlink:href="#DejaVuSans-65" transform="translate(346.484375 0)"/>
       <use xlink:href="#DejaVuSans-6e" transform="translate(408.007812 0)"/>
      </g>
     </g>
    </g>
    <g id="xtick_7">
     <g id="line2d_19">
      <path d="M 422.606322 123.743636 
L 455.057333 23.869694 
" clip-path="url(#p3b6cdc981d)" style="fill: none; stroke-dasharray: 0.8,1.32; stroke-dashoffset: 0; stroke: #b0b0b0; stroke-width: 0.8"/>
     </g>
     <g id="text_17">
      <!-- math-500 -->
      <g transform="translate(434.972634 13.314277) scale(0.1 -0.1)">
       <use xlink:href="#DejaVuSans-6d"/>
       <use xlink:href="#DejaVuSans-61" transform="translate(97.412109 0)"/>
       <use xlink:href="#DejaVuSans-74" transform="translate(158.691406 0)"/>
       <use xlink:href="#DejaVuSans-68" transform="translate(197.900391 0)"/>
       <use xlink:href="#DejaVuSans-2d" transform="translate(261.279297 0)"/>
       <use xlink:href="#DejaVuSans-35" transform="translate(297.363281 0)"/>
       <use xlink:href="#DejaVuSans-30" transform="translate(360.986328 0)"/>
       <use xlink:href="#DejaVuSans-30" transform="translate(424.609375 0)"/>
      </g>
     </g>
    </g>
    <g id="xtick_8">
     <g id="line2d_20">
      <path d="M 422.606322 123.743636 
L 337.648472 62.018145 
" clip-path="url(#p3b6cdc981d)" style="fill: none; stroke-dasharray: 0.8,1.32; stroke-dashoffset: 0; stroke: #b0b0b0; stroke-width: 0.8"/>
     </g>
     <g id="text_18">
      <!-- humaneval -->
      <g transform="translate(298.392546 56.548527) scale(0.1 -0.1)">
       <use xlink:href="#DejaVuSans-68"/>
       <use xlink:href="#DejaVuSans-75" transform="translate(63.378906 0)"/>
       <use xlink:href="#DejaVuSans-6d" transform="translate(126.757812 0)"/>
       <use xlink:href="#DejaVuSans-61" transform="translate(224.169922 0)"/>
       <use xlink:href="#DejaVuSans-6e" transform="translate(285.449219 0)"/>
       <use xlink:href="#DejaVuSans-65" transform="translate(348.828125 0)"/>
       <use xlink:href="#DejaVuSans-76" transform="translate(410.351562 0)"/>
       <use xlink:href="#DejaVuSans-61" transform="translate(469.53125 0)"/>
       <use xlink:href="#DejaVuSans-6c" transform="translate(530.810547 0)"/>
      </g>
     </g>
    </g>
    <g id="xtick_9">
     <g id="line2d_21">
      <path d="M 422.606322 123.743636 
L 337.648472 185.469128 
" clip-path="url(#p3b6cdc981d)" style="fill: none; stroke-dasharray: 0.8,1.32; stroke-dashoffset: 0; stroke: #b0b0b0; stroke-width: 0.8"/>
     </g>
     <g id="text_19">
      <!-- mmlu-pro-1k -->
      <g transform="translate(294.069109 196.457496) scale(0.1 -0.1)">
       <use xlink:href="#DejaVuSans-6d"/>
       <use xlink:href="#DejaVuSans-6d" transform="translate(97.412109 0)"/>
       <use xlink:href="#DejaVuSans-6c" transform="translate(194.824219 0)"/>
       <use xlink:href="#DejaVuSans-75" transform="translate(222.607422 0)"/>
       <use xlink:href="#DejaVuSans-2d" transform="translate(285.986328 0)"/>
       <use xlink:href="#DejaVuSans-70" transform="translate(322.070312 0)"/>
       <use xlink:href="#DejaVuSans-72" transform="translate(385.546875 0)"/>
       <use xlink:href="#DejaVuSans-6f" transform="translate(424.410156 0)"/>
       <use xlink:href="#DejaVuSans-2d" transform="translate(487.466797 0)"/>
       <use xlink:href="#DejaVuSans-31" transform="translate(523.550781 0)"/>
       <use xlink:href="#DejaVuSans-6b" transform="translate(587.173828 0)"/>
      </g>
     </g>
    </g>
    <g id="xtick_10">
     <g id="line2d_22">
      <path d="M 422.606322 123.743636 
L 455.057333 223.617579 
" clip-path="url(#p3b6cdc981d)" style="fill: none; stroke-dasharray: 0.8,1.32; stroke-dashoffset: 0; stroke: #b0b0b0; stroke-width: 0.8"/>
     </g>
     <g id="text_20">
      <!-- bbh-1k -->
      <g transform="translate(441.985915 239.691745) scale(0.1 -0.1)">
       <use xlink:href="#DejaVuSans-62"/>
       <use xlink:href="#DejaVuSans-62" transform="translate(63.476562 0)"/>
       <use xlink:href="#DejaVuSans-68" transform="translate(126.953125 0)"/>
       <use xlink:href="#DejaVuSans-2d" transform="translate(190.332031 0)"/>
       <use xlink:href="#DejaVuSans-31" transform="translate(226.416016 0)"/>
       <use xlink:href="#DejaVuSans-6b" transform="translate(290.039062 0)"/>
      </g>
     </g>
    </g>
   </g>
   <g id="matplotlib.axis_4">
    <g id="ytick_7">
     <g id="line2d_23">
      <path d="M 422.606322 123.743636 
C 422.606322 123.743636 422.606322 123.743636 422.606322 123.743636 
C 422.606322 123.743636 422.606322 123.743636 422.606322 123.743636 
C 422.606322 123.743636 422.606322 123.743636 422.606322 123.743636 
C 422.606322 123.743636 422.606322 123.743636 422.606322 123.743636 
C 422.606322 123.743636 422.606322 123.743636 422.606322 123.743636 
C 422.606322 123.743636 422.606322 123.743636 422.606322 123.743636 
C 422.606322 123.743636 422.606322 123.743636 422.606322 123.743636 
C 422.606322 123.743636 422.606322 123.743636 422.606322 123.743636 
C 422.606322 123.743636 422.606322 123.743636 422.606322 123.743636 
C 422.606322 123.743636 422.606322 123.743636 422.606322 123.743636 
C 422.606322 123.743636 422.606322 123.743636 422.606322 123.743636 
C 422.606322 123.743636 422.606322 123.743636 422.606322 123.743636 
C 422.606322 123.743636 422.606322 123.743636 422.606322 123.743636 
C 422.606322 123.743636 422.606322 123.743636 422.606322 123.743636 
C 422.606322 123.743636 422.606322 123.743636 422.606322 123.743636 
C 422.606322 123.743636 422.606322 123.743636 422.606322 123.743636 
" clip-path="url(#p3b6cdc981d)" style="fill: none; stroke-dasharray: 0.8,1.32; stroke-dashoffset: 0; stroke: #b0b0b0; stroke-width: 0.8"/>
     </g>
     <g id="text_21">
      <!-- 0.0 -->
      <g transform="translate(422.606322 121.663949) scale(0.1 -0.1)">
       <use xlink:href="#DejaVuSans-30"/>
       <use xlink:href="#DejaVuSans-2e" transform="translate(63.623047 0)"/>
       <use xlink:href="#DejaVuSans-30" transform="translate(95.410156 0)"/>
      </g>
     </g>
    </g>
    <g id="ytick_8">
     <g id="line2d_24">
      <path d="M 443.609058 123.743636 
C 443.609058 120.985582 443.065781 118.254347 442.01032 115.706237 
C 440.954858 113.158128 439.407737 110.842698 437.457499 108.89246 
C 435.50726 106.942221 433.191831 105.3951 430.643721 104.339639 
C 428.095611 103.284177 425.364376 102.740901 422.606322 102.740901 
C 419.848268 102.740901 417.117033 103.284177 414.568923 104.339639 
C 412.020813 105.3951 409.705384 106.942221 407.755145 108.89246 
C 405.804907 110.842698 404.257786 113.158128 403.202324 115.706237 
C 402.146863 118.254347 401.603586 120.985582 401.603586 123.743636 
C 401.603586 126.50169 402.146863 129.232926 403.202324 131.781035 
C 404.257786 134.329145 405.804907 136.644574 407.755145 138.594813 
C 409.705384 140.545052 412.020813 142.092172 414.568923 143.147634 
C 417.117033 144.203095 419.848268 144.746372 422.606322 144.746372 
C 425.364376 144.746372 428.095611 144.203095 430.643721 143.147634 
C 433.191831 142.092172 435.50726 140.545052 437.457499 138.594813 
C 439.407737 136.644574 440.954858 134.329145 442.01032 131.781035 
C 443.065781 129.232926 443.609058 126.50169 443.609058 123.743636 
" clip-path="url(#p3b6cdc981d)" style="fill: none; stroke-dasharray: 0.8,1.32; stroke-dashoffset: 0; stroke: #b0b0b0; stroke-width: 0.8"/>
     </g>
     <g id="text_22">
      <!-- 0.2 -->
      <g transform="translate(442.01032 113.62655) scale(0.1 -0.1)">
       <use xlink:href="#DejaVuSans-30"/>
       <use xlink:href="#DejaVuSans-2e" transform="translate(63.623047 0)"/>
       <use xlink:href="#DejaVuSans-32" transform="translate(95.410156 0)"/>
      </g>
     </g>
    </g>
    <g id="ytick_9">
     <g id="line2d_25">
      <path d="M 464.611793 123.743636 
C 464.611793 118.227528 463.52524 112.765058 461.414317 107.668838 
C 459.303394 102.572619 456.209153 97.94176 452.308675 94.041283 
C 448.408198 90.140805 443.777339 87.046564 438.68112 84.935641 
C 433.584901 82.824718 428.12243 81.738165 422.606322 81.738165 
C 417.090214 81.738165 411.627743 82.824718 406.531524 84.935641 
C 401.435305 87.046564 396.804446 90.140805 392.903968 94.041283 
C 389.003491 97.94176 385.90925 102.572619 383.798327 107.668838 
C 381.687404 112.765058 380.600851 118.227528 380.600851 123.743636 
C 380.600851 129.259744 381.687404 134.722215 383.798327 139.818434 
C 385.90925 144.914653 389.003491 149.545513 392.903968 153.44599 
C 396.804446 157.346467 401.435305 160.440708 406.531524 162.551631 
C 411.627743 164.662555 417.090214 165.749108 422.606322 165.749108 
C 428.12243 165.749108 433.584901 164.662555 438.68112 162.551631 
C 443.777339 160.440708 448.408198 157.346467 452.308675 153.44599 
C 456.209153 149.545513 459.303394 144.914653 461.414317 139.818434 
C 463.52524 134.722215 464.611793 129.259744 464.611793 123.743636 
" clip-path="url(#p3b6cdc981d)" style="fill: none; stroke-dasharray: 0.8,1.32; stroke-dashoffset: 0; stroke: #b0b0b0; stroke-width: 0.8"/>
     </g>
     <g id="text_23">
      <!-- 0.4 -->
      <g transform="translate(461.414317 105.589151) scale(0.1 -0.1)">
       <use xlink:href="#DejaVuSans-30"/>
       <use xlink:href="#DejaVuSans-2e" transform="translate(63.623047 0)"/>
       <use xlink:href="#DejaVuSans-34" transform="translate(95.410156 0)"/>
      </g>
     </g>
    </g>
    <g id="ytick_10">
     <g id="line2d_26">
      <path d="M 485.614529 123.743636 
C 485.614529 115.469474 483.984699 107.275768 480.818315 99.63144 
C 477.65193 91.987111 473.010568 85.040822 467.159852 79.190106 
C 461.309136 73.33939 454.362848 68.698028 446.718519 65.531644 
C 439.07419 62.365259 430.880484 60.73543 422.606322 60.73543 
C 414.33216 60.73543 406.138454 62.365259 398.494125 65.531644 
C 390.849796 68.698028 383.903508 73.33939 378.052792 79.190106 
C 372.202076 85.040822 367.560714 91.987111 364.394329 99.63144 
C 361.227945 107.275768 359.598115 115.469474 359.598115 123.743636 
C 359.598115 132.017798 361.227945 140.211504 364.394329 147.855833 
C 367.560714 155.500162 372.202076 162.446451 378.052792 168.297167 
C 383.903508 174.147883 390.849796 178.789244 398.494125 181.955629 
C 406.138454 185.122014 414.33216 186.751843 422.606322 186.751843 
C 430.880484 186.751843 439.07419 185.122014 446.718519 181.955629 
C 454.362848 178.789244 461.309136 174.147883 467.159852 168.297167 
C 473.010568 162.446451 477.65193 155.500162 480.818315 147.855833 
C 483.984699 140.211504 485.614529 132.017798 485.614529 123.743636 
" clip-path="url(#p3b6cdc981d)" style="fill: none; stroke-dasharray: 0.8,1.32; stroke-dashoffset: 0; stroke: #b0b0b0; stroke-width: 0.8"/>
     </g>
     <g id="text_24">
      <!-- 0.6 -->
      <g transform="translate(480.818315 97.551752) scale(0.1 -0.1)">
       <use xlink:href="#DejaVuSans-30"/>
       <use xlink:href="#DejaVuSans-2e" transform="translate(63.623047 0)"/>
       <use xlink:href="#DejaVuSans-36" transform="translate(95.410156 0)"/>
      </g>
     </g>
    </g>
    <g id="ytick_11">
     <g id="line2d_27">
      <path d="M 506.617264 123.743636 
C 506.617264 112.71142 504.444158 101.786479 500.222312 91.594041 
C 496.000466 81.401602 489.811984 72.139884 482.011029 64.338929 
C 474.210074 56.537975 464.948356 50.349492 454.755918 46.127646 
C 444.563479 41.9058 433.638538 39.732694 422.606322 39.732694 
C 411.574106 39.732694 400.649165 41.9058 390.456726 46.127646 
C 380.264288 50.349492 371.00257 56.537975 363.201615 64.338929 
C 355.40066 72.139884 349.212178 81.401602 344.990332 91.594041 
C 340.768485 101.786479 338.59538 112.71142 338.59538 123.743636 
C 338.59538 134.775852 340.768485 145.700794 344.990332 155.893232 
C 349.212178 166.085671 355.40066 175.347389 363.201615 183.148343 
C 371.00257 190.949298 380.264288 197.13778 390.456726 201.359627 
C 400.649165 205.581473 411.574106 207.754579 422.606322 207.754579 
C 433.638538 207.754579 444.563479 205.581473 454.755918 201.359627 
C 464.948356 197.13778 474.210074 190.949298 482.011029 183.148343 
C 489.811984 175.347389 496.000466 166.085671 500.222312 155.893232 
C 504.444158 145.700794 506.617264 134.775852 506.617264 123.743636 
" clip-path="url(#p3b6cdc981d)" style="fill: none; stroke-dasharray: 0.8,1.32; stroke-dashoffset: 0; stroke: #b0b0b0; stroke-width: 0.8"/>
     </g>
     <g id="text_25">
      <!-- 0.8 -->
      <g transform="translate(500.222312 89.514353) scale(0.1 -0.1)">
       <use xlink:href="#DejaVuSans-30"/>
       <use xlink:href="#DejaVuSans-2e" transform="translate(63.623047 0)"/>
       <use xlink:href="#DejaVuSans-38" transform="translate(95.410156 0)"/>
      </g>
     </g>
    </g>
    <g id="ytick_12">
     <g id="line2d_28">
      <path d="M 527.62 123.743636 
C 527.62 109.953367 524.903618 96.29719 519.62631 83.556642 
C 514.349002 70.816094 506.613399 59.238946 496.862206 49.487752 
C 487.111012 39.736559 475.533865 32.000956 462.793317 26.723649 
C 450.052769 21.446341 436.396592 18.729958 422.606322 18.729958 
C 408.816052 18.729958 395.159875 21.446341 382.419327 26.723649 
C 369.678779 32.000956 358.101631 39.736559 348.350438 49.487752 
C 338.599245 59.238946 330.863642 70.816094 325.586334 83.556642 
C 320.309026 96.29719 317.592644 109.953367 317.592644 123.743636 
C 317.592644 137.533906 320.309026 151.190083 325.586334 163.930631 
C 330.863642 176.671179 338.599245 188.248327 348.350438 197.99952 
C 358.101631 207.750714 369.678779 215.486316 382.419327 220.763624 
C 395.159875 226.040932 408.816052 228.757314 422.606322 228.757314 
C 436.396592 228.757314 450.052769 226.040932 462.793317 220.763624 
C 475.533865 215.486316 487.111012 207.750714 496.862206 197.99952 
C 506.613399 188.248327 514.349002 176.671179 519.62631 163.930631 
C 524.903618 151.190083 527.62 137.533906 527.62 123.743636 
" clip-path="url(#p3b6cdc981d)" style="fill: none; stroke-dasharray: 0.8,1.32; stroke-dashoffset: 0; stroke: #b0b0b0; stroke-width: 0.8"/>
     </g>
     <g id="text_26">
      <!-- 1.0 -->
      <g transform="translate(519.62631 81.476954) scale(0.1 -0.1)">
       <use xlink:href="#DejaVuSans-31"/>
       <use xlink:href="#DejaVuSans-2e" transform="translate(63.623047 0)"/>
       <use xlink:href="#DejaVuSans-30" transform="translate(95.410156 0)"/>
      </g>
     </g>
    </g>
   </g>
   <g id="line2d_29">
    <path d="M 520.794111 123.743636 
L 440.454378 68.812968 
L 361.478113 79.331393 
L 367.383719 163.865206 
L 447.106835 199.148463 
L 520.794111 123.743636 
" clip-path="url(#p3b6cdc981d)" style="fill: none; stroke: #1f77b4; stroke-width: 1.5; stroke-linecap: square"/>
   </g>
   <g id="line2d_30">
    <path d="M 520.794111 123.743636 
L 441.265653 66.316119 
L 346.455078 68.416519 
L 363.135827 166.95148 
L 449.865171 207.637748 
L 520.794111 123.743636 
" clip-path="url(#p3b6cdc981d)" style="fill: none; stroke: #ff7f0e; stroke-width: 1.5; stroke-linecap: square"/>
   </g>
   <g id="line2d_31">
    <path d="M 522.369316 123.743636 
L 444.67301 55.829355 
L 353.707578 73.685768 
L 362.286248 167.568735 
L 450.676447 210.134597 
L 522.369316 123.743636 
" clip-path="url(#p3b6cdc981d)" style="fill: none; stroke: #2ca02c; stroke-width: 1.5; stroke-linecap: square"/>
   </g>
   <g id="text_27">
    <!-- pro -->
    <g transform="translate(412.794447 12.729958) scale(0.12 -0.12)">
     <use xlink:href="#DejaVuSans-70"/>
     <use xlink:href="#DejaVuSans-72" transform="translate(63.476562 0)"/>
     <use xlink:href="#DejaVuSans-6f" transform="translate(102.339844 0)"/>
    </g>
   </g>
   <g id="legend_2">
    <g id="line2d_32">
     <path d="M 331.076634 262.507709 
L 341.076634 262.507709 
L 351.076634 262.507709 
" style="fill: none; stroke: #1f77b4; stroke-width: 1.5; stroke-linecap: square"/>
    </g>
    <g id="text_28">
     <!-- gigachat-max -->
     <g transform="translate(359.076634 266.007709) scale(0.1 -0.1)">
      <use xlink:href="#DejaVuSans-67"/>
      <use xlink:href="#DejaVuSans-69" transform="translate(63.476562 0)"/>
      <use xlink:href="#DejaVuSans-67" transform="translate(91.259766 0)"/>
      <use xlink:href="#DejaVuSans-61" transform="translate(154.736328 0)"/>
      <use xlink:href="#DejaVuSans-63" transform="translate(216.015625 0)"/>
      <use xlink:href="#DejaVuSans-68" transform="translate(270.996094 0)"/>
      <use xlink:href="#DejaVuSans-61" transform="translate(334.375 0)"/>
      <use xlink:href="#DejaVuSans-74" transform="translate(395.654297 0)"/>
      <use xlink:href="#DejaVuSans-2d" transform="translate(434.863281 0)"/>
      <use xlink:href="#DejaVuSans-6d" transform="translate(470.947266 0)"/>
      <use xlink:href="#DejaVuSans-61" transform="translate(568.359375 0)"/>
      <use xlink:href="#DejaVuSans-78" transform="translate(629.638672 0)"/>
     </g>
    </g>
    <g id="line2d_33">
     <path d="M 331.076634 277.185834 
L 341.076634 277.185834 
L 351.076634 277.185834 
" style="fill: none; stroke: #ff7f0e; stroke-width: 1.5; stroke-linecap: square"/>
    </g>
    <g id="text_29">
     <!-- yandexgpt-5-pro -->
     <g transform="translate(359.076634 280.685834) scale(0.1 -0.1)">
      <use xlink:href="#DejaVuSans-79"/>
      <use xlink:href="#DejaVuSans-61" transform="translate(59.179688 0)"/>
      <use xlink:href="#DejaVuSans-6e" transform="translate(120.458984 0)"/>
      <use xlink:href="#DejaVuSans-64" transform="translate(183.837891 0)"/>
      <use xlink:href="#DejaVuSans-65" transform="translate(247.314453 0)"/>
      <use xlink:href="#DejaVuSans-78" transform="translate(307.087891 0)"/>
      <use xlink:href="#DejaVuSans-67" transform="translate(366.267578 0)"/>
      <use xlink:href="#DejaVuSans-70" transform="translate(429.744141 0)"/>
      <use xlink:href="#DejaVuSans-74" transform="translate(493.220703 0)"/>
      <use xlink:href="#DejaVuSans-2d" transform="translate(532.429688 0)"/>
      <use xlink:href="#DejaVuSans-35" transform="translate(568.513672 0)"/>
      <use xlink:href="#DejaVuSans-2d" transform="translate(632.136719 0)"/>
      <use xlink:href="#DejaVuSans-70" transform="translate(668.220703 0)"/>
      <use xlink:href="#DejaVuSans-72" transform="translate(731.697266 0)"/>
      <use xlink:href="#DejaVuSans-6f" transform="translate(770.560547 0)"/>
     </g>
    </g>
    <g id="line2d_34">
     <path d="M 462.254759 262.507709 
L 472.254759 262.507709 
L 482.254759 262.507709 
" style="fill: none; stroke: #2ca02c; stroke-width: 1.5; stroke-linecap: square"/>
    </g>
    <g id="text_30">
     <!-- t-pro -->
     <g transform="translate(490.254759 266.007709) scale(0.1 -0.1)">
      <use xlink:href="#DejaVuSans-74"/>
      <use xlink:href="#DejaVuSans-2d" transform="translate(39.208984 0)"/>
      <use xlink:href="#DejaVuSans-70" transform="translate(75.292969 0)"/>
      <use xlink:href="#DejaVuSans-72" transform="translate(138.769531 0)"/>
      <use xlink:href="#DejaVuSans-6f" transform="translate(177.632812 0)"/>
     </g>
    </g>
   </g>
  </g>
 </g>
 <defs>
  <clipPath id="pa7a1cba670">
   <path d="M 245.02 123.743636 
C 245.02 109.953367 242.303618 96.29719 237.02631 83.556642 
C 231.749002 70.816094 224.013399 59.238946 214.262206 49.487752 
C 204.511012 39.736559 192.933865 32.000956 180.193317 26.723649 
C 167.452769 21.446341 153.796592 18.729958 140.006322 18.729958 
C 126.216052 18.729958 112.559875 21.446341 99.819327 26.723649 
C 87.078779 32.000956 75.501631 39.736559 65.750438 49.487752 
C 55.999245 59.238946 48.263642 70.816094 42.986334 83.556642 
C 37.709026 96.29719 34.992644 109.953367 34.992644 123.743636 
C 34.992644 137.533906 37.709026 151.190083 42.986334 163.930631 
C 48.263642 176.671179 55.999245 188.248327 65.750438 197.99952 
C 75.501631 207.750714 87.078779 215.486316 99.819327 220.763624 
C 112.559875 226.040932 126.216052 228.757314 140.006322 228.757314 
C 153.796592 228.757314 167.452769 226.040932 180.193317 220.763624 
C 192.933865 215.486316 204.511012 207.750714 214.262206 197.99952 
C 224.013399 188.248327 231.749002 176.671179 237.02631 163.930631 
C 242.303618 151.190083 245.02 137.533906 245.02 123.743636 
M 140.006322 123.743636 
C 140.006322 123.743636 140.006322 123.743636 140.006322 123.743636 
C 140.006322 123.743636 140.006322 123.743636 140.006322 123.743636 
C 140.006322 123.743636 140.006322 123.743636 140.006322 123.743636 
C 140.006322 123.743636 140.006322 123.743636 140.006322 123.743636 
C 140.006322 123.743636 140.006322 123.743636 140.006322 123.743636 
C 140.006322 123.743636 140.006322 123.743636 140.006322 123.743636 
C 140.006322 123.743636 140.006322 123.743636 140.006322 123.743636 
C 140.006322 123.743636 140.006322 123.743636 140.006322 123.743636 
C 140.006322 123.743636 140.006322 123.743636 140.006322 123.743636 
C 140.006322 123.743636 140.006322 123.743636 140.006322 123.743636 
C 140.006322 123.743636 140.006322 123.743636 140.006322 123.743636 
C 140.006322 123.743636 140.006322 123.743636 140.006322 123.743636 
C 140.006322 123.743636 140.006322 123.743636 140.006322 123.743636 
C 140.006322 123.743636 140.006322 123.743636 140.006322 123.743636 
C 140.006322 123.743636 140.006322 123.743636 140.006322 123.743636 
C 140.006322 123.743636 140.006322 123.743636 140.006322 123.743636 
z
"/>
  </clipPath>
  <clipPath id="p3b6cdc981d">
   <path d="M 527.62 123.743636 
C 527.62 109.953367 524.903618 96.29719 519.62631 83.556642 
C 514.349002 70.816094 506.613399 59.238946 496.862206 49.487752 
C 487.111012 39.736559 475.533865 32.000956 462.793317 26.723649 
C 450.052769 21.446341 436.396592 18.729958 422.606322 18.729958 
C 408.816052 18.729958 395.159875 21.446341 382.419327 26.723649 
C 369.678779 32.000956 358.101631 39.736559 348.350438 49.487752 
C 338.599245 59.238946 330.863642 70.816094 325.586334 83.556642 
C 320.309026 96.29719 317.592644 109.953367 317.592644 123.743636 
C 317.592644 137.533906 320.309026 151.190083 325.586334 163.930631 
C 330.863642 176.671179 338.599245 188.248327 348.350438 197.99952 
C 358.101631 207.750714 369.678779 215.486316 382.419327 220.763624 
C 395.159875 226.040932 408.816052 228.757314 422.606322 228.757314 
C 436.396592 228.757314 450.052769 226.040932 462.793317 220.763624 
C 475.533865 215.486316 487.111012 207.750714 496.862206 197.99952 
C 506.613399 188.248327 514.349002 176.671179 519.62631 163.930631 
C 524.903618 151.190083 527.62 137.533906 527.62 123.743636 
M 422.606322 123.743636 
C 422.606322 123.743636 422.606322 123.743636 422.606322 123.743636 
C 422.606322 123.743636 422.606322 123.743636 422.606322 123.743636 
C 422.606322 123.743636 422.606322 123.743636 422.606322 123.743636 
C 422.606322 123.743636 422.606322 123.743636 422.606322 123.743636 
C 422.606322 123.743636 422.606322 123.743636 422.606322 123.743636 
C 422.606322 123.743636 422.606322 123.743636 422.606322 123.743636 
C 422.606322 123.743636 422.606322 123.743636 422.606322 123.743636 
C 422.606322 123.743636 422.606322 123.743636 422.606322 123.743636 
C 422.606322 123.743636 422.606322 123.743636 422.606322 123.743636 
C 422.606322 123.743636 422.606322 123.743636 422.606322 123.743636 
C 422.606322 123.743636 422.606322 123.743636 422.606322 123.743636 
C 422.606322 123.743636 422.606322 123.743636 422.606322 123.743636 
C 422.606322 123.743636 422.606322 123.743636 422.606322 123.743636 
C 422.606322 123.743636 422.606322 123.743636 422.606322 123.743636 
C 422.606322 123.743636 422.606322 123.743636 422.606322 123.743636 
C 422.606322 123.743636 422.606322 123.743636 422.606322 123.743636 
z
"/>
  </clipPath>
 </defs>
</svg>
