<?xml version="1.0" encoding="utf-8" standalone="no"?>
<!DOCTYPE svg PUBLIC "-//W3C//DTD SVG 1.1//EN"
  "http://www.w3.org/Graphics/SVG/1.1/DTD/svg11.dtd">
<svg xmlns:xlink="http://www.w3.org/1999/xlink" width="576pt" height="288pt" viewBox="0 0 576 288" xmlns="http://www.w3.org/2000/svg" version="1.1">
 <metadata>
  <rdf:RDF xmlns:dc="http://purl.org/dc/elements/1.1/" xmlns:cc="http://creativecommons.org/ns#" xmlns:rdf="http://www.w3.org/1999/02/22-rdf-syntax-ns#">
   <cc:Work>
    <dc:type rdf:resource="http://purl.org/dc/dcmitype/StillImage"/>
    <dc:date>2025-02-18T16:14:32.568768</dc:date>
    <dc:format>image/svg+xml</dc:format>
    <dc:creator>
     <cc:Agent>
      <dc:title>Matplotlib v3.10.0, https://matplotlib.org/</dc:title>
     </cc:Agent>
    </dc:creator>
   </cc:Work>
  </rdf:RDF>
 </metadata>
 <defs>
  <style type="text/css">*{stroke-linejoin: round; stroke-linecap: butt}</style>
 </defs>
 <g id="figure_1">
  <g id="patch_1">
   <path d="M 0 288 
L 576 288 
L 576 0 
L 0 0 
z
" style="fill: #ffffff"/>
  </g>
  <g id="axes_1">
   <g id="patch_2">
    <path d="M 242.192345 123.743636 
C 242.192345 110.139029 239.512534 96.666709 234.306276 84.09769 
C 229.100018 71.528671 221.468561 60.10739 211.848651 50.48748 
C 202.228741 40.867569 190.807459 33.236113 178.238441 28.029855 
C 165.669422 22.823597 152.197102 20.143786 138.592494 20.143786 
C 124.987887 20.143786 111.515567 22.823597 98.946548 28.029855 
C 86.377529 33.236113 74.956248 40.867569 65.336338 50.48748 
C 55.716427 60.10739 48.084971 71.528671 42.878713 84.09769 
C 37.672455 96.666709 34.992644 110.139029 34.992644 123.743636 
C 34.992644 137.348244 37.672455 150.820564 42.878713 163.389583 
C 48.084971 175.958601 55.716427 187.379883 65.336338 196.999793 
C 74.956248 206.619703 86.377529 214.25116 98.946548 219.457418 
C 111.515567 224.663676 124.987887 227.343487 138.592494 227.343487 
C 152.197102 227.343487 165.669422 224.663676 178.238441 219.457418 
C 190.807459 214.25116 202.228741 206.619703 211.848651 196.999793 
C 221.468561 187.379883 229.100018 175.958601 234.306276 163.389583 
C 239.512534 150.820564 242.192345 137.348244 242.192345 123.743636 
M 138.592494 123.743636 
C 138.592494 123.743636 138.592494 123.743636 138.592494 123.743636 
C 138.592494 123.743636 138.592494 123.743636 138.592494 123.743636 
C 138.592494 123.743636 138.592494 123.743636 138.592494 123.743636 
C 138.592494 123.743636 138.592494 123.743636 138.592494 123.743636 
C 138.592494 123.743636 138.592494 123.743636 138.592494 123.743636 
C 138.592494 123.743636 138.592494 123.743636 138.592494 123.743636 
C 138.592494 123.743636 138.592494 123.743636 138.592494 123.743636 
C 138.592494 123.743636 138.592494 123.743636 138.592494 123.743636 
C 138.592494 123.743636 138.592494 123.743636 138.592494 123.743636 
C 138.592494 123.743636 138.592494 123.743636 138.592494 123.743636 
C 138.592494 123.743636 138.592494 123.743636 138.592494 123.743636 
C 138.592494 123.743636 138.592494 123.743636 138.592494 123.743636 
C 138.592494 123.743636 138.592494 123.743636 138.592494 123.743636 
C 138.592494 123.743636 138.592494 123.743636 138.592494 123.743636 
C 138.592494 123.743636 138.592494 123.743636 138.592494 123.743636 
C 138.592494 123.743636 138.592494 123.743636 138.592494 123.743636 
z
" style="fill: #ffffff"/>
   </g>
   <g id="FillBetweenPolyCollection_1">
    <path d="M 231.454652 123.743636 
L 222.200811 123.743636 
L 153.670406 77.338595 
L 84.931067 84.756327 
L 96.453944 154.359085 
L 158.121104 183.846517 
L 222.200811 123.743636 
L 231.454652 123.743636 
L 231.454652 123.743636 
L 161.741162 194.987909 
L 87.609479 160.784965 
L 76.243026 78.444096 
L 157.543378 65.418813 
L 231.454652 123.743636 
z
" clip-path="url(#p170abf36a1)" style="fill: #1f77b4; fill-opacity: 0.2"/>
   </g>
   <g id="FillBetweenPolyCollection_2">
    <path d="M 218.364379 123.743636 
L 201.736603 123.743636 
L 141.473765 114.875998 
L 120.153406 110.346854 
L 123.505967 134.70464 
L 153.639128 170.052413 
L 201.736603 123.743636 
L 218.364379 123.743636 
L 218.364379 123.743636 
L 159.417676 187.836954 
L 111.730095 143.260312 
L 105.905019 99.994795 
L 145.347472 102.953951 
L 218.364379 123.743636 
z
" clip-path="url(#p170abf36a1)" style="fill: #ff7f0e; fill-opacity: 0.2"/>
   </g>
   <g id="FillBetweenPolyCollection_3">
    <path d="M 220.488176 123.743636 
L 206.968396 123.743636 
L 145.635599 102.067188 
L 112.652049 104.8968 
L 114.32833 141.372584 
L 151.718281 164.140655 
L 206.968396 123.743636 
L 220.488176 123.743636 
L 220.488176 123.743636 
L 156.520398 178.920052 
L 102.51055 149.958703 
L 100.038036 95.732183 
L 149.797434 89.258377 
L 220.488176 123.743636 
z
" clip-path="url(#p170abf36a1)" style="fill: #2ca02c; fill-opacity: 0.2"/>
   </g>
   <g id="matplotlib.axis_1">
    <g id="xtick_1">
     <g id="line2d_1">
      <path d="M 138.592494 123.743636 
L 242.192345 123.743636 
" clip-path="url(#p170abf36a1)" style="fill: none; stroke-dasharray: 0.8,1.32; stroke-dashoffset: 0; stroke: #b0b0b0; stroke-width: 0.8"/>
     </g>
     <g id="text_1">
      <!-- mgsm-en -->
      <g transform="translate(232.623595 126.503011) scale(0.1 -0.1)">
       <defs>
        <path id="DejaVuSans-6d" d="M 3328 2828 
Q 3544 3216 3844 3400 
Q 4144 3584 4550 3584 
Q 5097 3584 5394 3201 
Q 5691 2819 5691 2113 
L 5691 0 
L 5113 0 
L 5113 2094 
Q 5113 2597 4934 2840 
Q 4756 3084 4391 3084 
Q 3944 3084 3684 2787 
Q 3425 2491 3425 1978 
L 3425 0 
L 2847 0 
L 2847 2094 
Q 2847 2600 2669 2842 
Q 2491 3084 2119 3084 
Q 1678 3084 1418 2786 
Q 1159 2488 1159 1978 
L 1159 0 
L 581 0 
L 581 3500 
L 1159 3500 
L 1159 2956 
Q 1356 3278 1631 3431 
Q 1906 3584 2284 3584 
Q 2666 3584 2933 3390 
Q 3200 3197 3328 2828 
z
" transform="scale(0.015625)"/>
        <path id="DejaVuSans-67" d="M 2906 1791 
Q 2906 2416 2648 2759 
Q 2391 3103 1925 3103 
Q 1463 3103 1205 2759 
Q 947 2416 947 1791 
Q 947 1169 1205 825 
Q 1463 481 1925 481 
Q 2391 481 2648 825 
Q 2906 1169 2906 1791 
z
M 3481 434 
Q 3481 -459 3084 -895 
Q 2688 -1331 1869 -1331 
Q 1566 -1331 1297 -1286 
Q 1028 -1241 775 -1147 
L 775 -588 
Q 1028 -725 1275 -790 
Q 1522 -856 1778 -856 
Q 2344 -856 2625 -561 
Q 2906 -266 2906 331 
L 2906 616 
Q 2728 306 2450 153 
Q 2172 0 1784 0 
Q 1141 0 747 490 
Q 353 981 353 1791 
Q 353 2603 747 3093 
Q 1141 3584 1784 3584 
Q 2172 3584 2450 3431 
Q 2728 3278 2906 2969 
L 2906 3500 
L 3481 3500 
L 3481 434 
z
" transform="scale(0.015625)"/>
        <path id="DejaVuSans-73" d="M 2834 3397 
L 2834 2853 
Q 2591 2978 2328 3040 
Q 2066 3103 1784 3103 
Q 1356 3103 1142 2972 
Q 928 2841 928 2578 
Q 928 2378 1081 2264 
Q 1234 2150 1697 2047 
L 1894 2003 
Q 2506 1872 2764 1633 
Q 3022 1394 3022 966 
Q 3022 478 2636 193 
Q 2250 -91 1575 -91 
Q 1294 -91 989 -36 
Q 684 19 347 128 
L 347 722 
Q 666 556 975 473 
Q 1284 391 1588 391 
Q 1994 391 2212 530 
Q 2431 669 2431 922 
Q 2431 1156 2273 1281 
Q 2116 1406 1581 1522 
L 1381 1569 
Q 847 1681 609 1914 
Q 372 2147 372 2553 
Q 372 3047 722 3315 
Q 1072 3584 1716 3584 
Q 2034 3584 2315 3537 
Q 2597 3491 2834 3397 
z
" transform="scale(0.015625)"/>
        <path id="DejaVuSans-2d" d="M 313 2009 
L 1997 2009 
L 1997 1497 
L 313 1497 
L 313 2009 
z
" transform="scale(0.015625)"/>
        <path id="DejaVuSans-65" d="M 3597 1894 
L 3597 1613 
L 953 1613 
Q 991 1019 1311 708 
Q 1631 397 2203 397 
Q 2534 397 2845 478 
Q 3156 559 3463 722 
L 3463 178 
Q 3153 47 2828 -22 
Q 2503 -91 2169 -91 
Q 1331 -91 842 396 
Q 353 884 353 1716 
Q 353 2575 817 3079 
Q 1281 3584 2069 3584 
Q 2775 3584 3186 3129 
Q 3597 2675 3597 1894 
z
M 3022 2063 
Q 3016 2534 2758 2815 
Q 2500 3097 2075 3097 
Q 1594 3097 1305 2825 
Q 1016 2553 972 2059 
L 3022 2063 
z
" transform="scale(0.015625)"/>
        <path id="DejaVuSans-6e" d="M 3513 2113 
L 3513 0 
L 2938 0 
L 2938 2094 
Q 2938 2591 2744 2837 
Q 2550 3084 2163 3084 
Q 1697 3084 1428 2787 
Q 1159 2491 1159 1978 
L 1159 0 
L 581 0 
L 581 3500 
L 1159 3500 
L 1159 2956 
Q 1366 3272 1645 3428 
Q 1925 3584 2291 3584 
Q 2894 3584 3203 3211 
Q 3513 2838 3513 2113 
z
" transform="scale(0.015625)"/>
       </defs>
       <use xlink:href="#DejaVuSans-6d"/>
       <use xlink:href="#DejaVuSans-67" transform="translate(97.412109 0)"/>
       <use xlink:href="#DejaVuSans-73" transform="translate(160.888672 0)"/>
       <use xlink:href="#DejaVuSans-6d" transform="translate(212.988281 0)"/>
       <use xlink:href="#DejaVuSans-2d" transform="translate(310.400391 0)"/>
       <use xlink:href="#DejaVuSans-65" transform="translate(346.484375 0)"/>
       <use xlink:href="#DejaVuSans-6e" transform="translate(408.007812 0)"/>
      </g>
     </g>
    </g>
    <g id="xtick_2">
     <g id="line2d_2">
      <path d="M 138.592494 123.743636 
L 170.606609 25.214324 
" clip-path="url(#p170abf36a1)" style="fill: none; stroke-dasharray: 0.8,1.32; stroke-dashoffset: 0; stroke: #b0b0b0; stroke-width: 0.8"/>
     </g>
     <g id="text_2">
      <!-- math-500 -->
      <g transform="translate(150.521909 14.658907) scale(0.1 -0.1)">
       <defs>
        <path id="DejaVuSans-61" d="M 2194 1759 
Q 1497 1759 1228 1600 
Q 959 1441 959 1056 
Q 959 750 1161 570 
Q 1363 391 1709 391 
Q 2188 391 2477 730 
Q 2766 1069 2766 1631 
L 2766 1759 
L 2194 1759 
z
M 3341 1997 
L 3341 0 
L 2766 0 
L 2766 531 
Q 2569 213 2275 61 
Q 1981 -91 1556 -91 
Q 1019 -91 701 211 
Q 384 513 384 1019 
Q 384 1609 779 1909 
Q 1175 2209 1959 2209 
L 2766 2209 
L 2766 2266 
Q 2766 2663 2505 2880 
Q 2244 3097 1772 3097 
Q 1472 3097 1187 3025 
Q 903 2953 641 2809 
L 641 3341 
Q 956 3463 1253 3523 
Q 1550 3584 1831 3584 
Q 2591 3584 2966 3190 
Q 3341 2797 3341 1997 
z
" transform="scale(0.015625)"/>
        <path id="DejaVuSans-74" d="M 1172 4494 
L 1172 3500 
L 2356 3500 
L 2356 3053 
L 1172 3053 
L 1172 1153 
Q 1172 725 1289 603 
Q 1406 481 1766 481 
L 2356 481 
L 2356 0 
L 1766 0 
Q 1100 0 847 248 
Q 594 497 594 1153 
L 594 3053 
L 172 3053 
L 172 3500 
L 594 3500 
L 594 4494 
L 1172 4494 
z
" transform="scale(0.015625)"/>
        <path id="DejaVuSans-68" d="M 3513 2113 
L 3513 0 
L 2938 0 
L 2938 2094 
Q 2938 2591 2744 2837 
Q 2550 3084 2163 3084 
Q 1697 3084 1428 2787 
Q 1159 2491 1159 1978 
L 1159 0 
L 581 0 
L 581 4863 
L 1159 4863 
L 1159 2956 
Q 1366 3272 1645 3428 
Q 1925 3584 2291 3584 
Q 2894 3584 3203 3211 
Q 3513 2838 3513 2113 
z
" transform="scale(0.015625)"/>
        <path id="DejaVuSans-35" d="M 691 4666 
L 3169 4666 
L 3169 4134 
L 1269 4134 
L 1269 2991 
Q 1406 3038 1543 3061 
Q 1681 3084 1819 3084 
Q 2600 3084 3056 2656 
Q 3513 2228 3513 1497 
Q 3513 744 3044 326 
Q 2575 -91 1722 -91 
Q 1428 -91 1123 -41 
Q 819 9 494 109 
L 494 744 
Q 775 591 1075 516 
Q 1375 441 1709 441 
Q 2250 441 2565 725 
Q 2881 1009 2881 1497 
Q 2881 1984 2565 2268 
Q 2250 2553 1709 2553 
Q 1456 2553 1204 2497 
Q 953 2441 691 2322 
L 691 4666 
z
" transform="scale(0.015625)"/>
        <path id="DejaVuSans-30" d="M 2034 4250 
Q 1547 4250 1301 3770 
Q 1056 3291 1056 2328 
Q 1056 1369 1301 889 
Q 1547 409 2034 409 
Q 2525 409 2770 889 
Q 3016 1369 3016 2328 
Q 3016 3291 2770 3770 
Q 2525 4250 2034 4250 
z
M 2034 4750 
Q 2819 4750 3233 4129 
Q 3647 3509 3647 2328 
Q 3647 1150 3233 529 
Q 2819 -91 2034 -91 
Q 1250 -91 836 529 
Q 422 1150 422 2328 
Q 422 3509 836 4129 
Q 1250 4750 2034 4750 
z
" transform="scale(0.015625)"/>
       </defs>
       <use xlink:href="#DejaVuSans-6d"/>
       <use xlink:href="#DejaVuSans-61" transform="translate(97.412109 0)"/>
       <use xlink:href="#DejaVuSans-74" transform="translate(158.691406 0)"/>
       <use xlink:href="#DejaVuSans-68" transform="translate(197.900391 0)"/>
       <use xlink:href="#DejaVuSans-2d" transform="translate(261.279297 0)"/>
       <use xlink:href="#DejaVuSans-35" transform="translate(297.363281 0)"/>
       <use xlink:href="#DejaVuSans-30" transform="translate(360.986328 0)"/>
       <use xlink:href="#DejaVuSans-30" transform="translate(424.609375 0)"/>
      </g>
     </g>
    </g>
    <g id="xtick_3">
     <g id="line2d_3">
      <path d="M 138.592494 123.743636 
L 54.778455 62.849172 
" clip-path="url(#p170abf36a1)" style="fill: none; stroke-dasharray: 0.8,1.32; stroke-dashoffset: 0; stroke: #b0b0b0; stroke-width: 0.8"/>
     </g>
     <g id="text_3">
      <!-- humaneval -->
      <g transform="translate(15.522529 57.379554) scale(0.1 -0.1)">
       <defs>
        <path id="DejaVuSans-75" d="M 544 1381 
L 544 3500 
L 1119 3500 
L 1119 1403 
Q 1119 906 1312 657 
Q 1506 409 1894 409 
Q 2359 409 2629 706 
Q 2900 1003 2900 1516 
L 2900 3500 
L 3475 3500 
L 3475 0 
L 2900 0 
L 2900 538 
Q 2691 219 2414 64 
Q 2138 -91 1772 -91 
Q 1169 -91 856 284 
Q 544 659 544 1381 
z
M 1991 3584 
L 1991 3584 
z
" transform="scale(0.015625)"/>
        <path id="DejaVuSans-76" d="M 191 3500 
L 800 3500 
L 1894 563 
L 2988 3500 
L 3597 3500 
L 2284 0 
L 1503 0 
L 191 3500 
z
" transform="scale(0.015625)"/>
        <path id="DejaVuSans-6c" d="M 603 4863 
L 1178 4863 
L 1178 0 
L 603 0 
L 603 4863 
z
" transform="scale(0.015625)"/>
       </defs>
       <use xlink:href="#DejaVuSans-68"/>
       <use xlink:href="#DejaVuSans-75" transform="translate(63.378906 0)"/>
       <use xlink:href="#DejaVuSans-6d" transform="translate(126.757812 0)"/>
       <use xlink:href="#DejaVuSans-61" transform="translate(224.169922 0)"/>
       <use xlink:href="#DejaVuSans-6e" transform="translate(285.449219 0)"/>
       <use xlink:href="#DejaVuSans-65" transform="translate(348.828125 0)"/>
       <use xlink:href="#DejaVuSans-76" transform="translate(410.351562 0)"/>
       <use xlink:href="#DejaVuSans-61" transform="translate(469.53125 0)"/>
       <use xlink:href="#DejaVuSans-6c" transform="translate(530.810547 0)"/>
      </g>
     </g>
    </g>
    <g id="xtick_4">
     <g id="line2d_4">
      <path d="M 138.592494 123.743636 
L 54.778455 184.638101 
" clip-path="url(#p170abf36a1)" style="fill: none; stroke-dasharray: 0.8,1.32; stroke-dashoffset: 0; stroke: #b0b0b0; stroke-width: 0.8"/>
     </g>
     <g id="text_4">
      <!-- mmlu-pro-1k -->
      <g transform="translate(11.199092 195.626469) scale(0.1 -0.1)">
       <defs>
        <path id="DejaVuSans-70" d="M 1159 525 
L 1159 -1331 
L 581 -1331 
L 581 3500 
L 1159 3500 
L 1159 2969 
Q 1341 3281 1617 3432 
Q 1894 3584 2278 3584 
Q 2916 3584 3314 3078 
Q 3713 2572 3713 1747 
Q 3713 922 3314 415 
Q 2916 -91 2278 -91 
Q 1894 -91 1617 61 
Q 1341 213 1159 525 
z
M 3116 1747 
Q 3116 2381 2855 2742 
Q 2594 3103 2138 3103 
Q 1681 3103 1420 2742 
Q 1159 2381 1159 1747 
Q 1159 1113 1420 752 
Q 1681 391 2138 391 
Q 2594 391 2855 752 
Q 3116 1113 3116 1747 
z
" transform="scale(0.015625)"/>
        <path id="DejaVuSans-72" d="M 2631 2963 
Q 2534 3019 2420 3045 
Q 2306 3072 2169 3072 
Q 1681 3072 1420 2755 
Q 1159 2438 1159 1844 
L 1159 0 
L 581 0 
L 581 3500 
L 1159 3500 
L 1159 2956 
Q 1341 3275 1631 3429 
Q 1922 3584 2338 3584 
Q 2397 3584 2469 3576 
Q 2541 3569 2628 3553 
L 2631 2963 
z
" transform="scale(0.015625)"/>
        <path id="DejaVuSans-6f" d="M 1959 3097 
Q 1497 3097 1228 2736 
Q 959 2375 959 1747 
Q 959 1119 1226 758 
Q 1494 397 1959 397 
Q 2419 397 2687 759 
Q 2956 1122 2956 1747 
Q 2956 2369 2687 2733 
Q 2419 3097 1959 3097 
z
M 1959 3584 
Q 2709 3584 3137 3096 
Q 3566 2609 3566 1747 
Q 3566 888 3137 398 
Q 2709 -91 1959 -91 
Q 1206 -91 779 398 
Q 353 888 353 1747 
Q 353 2609 779 3096 
Q 1206 3584 1959 3584 
z
" transform="scale(0.015625)"/>
        <path id="DejaVuSans-31" d="M 794 531 
L 1825 531 
L 1825 4091 
L 703 3866 
L 703 4441 
L 1819 4666 
L 2450 4666 
L 2450 531 
L 3481 531 
L 3481 0 
L 794 0 
L 794 531 
z
" transform="scale(0.015625)"/>
        <path id="DejaVuSans-6b" d="M 581 4863 
L 1159 4863 
L 1159 1991 
L 2875 3500 
L 3609 3500 
L 1753 1863 
L 3688 0 
L 2938 0 
L 1159 1709 
L 1159 0 
L 581 0 
L 581 4863 
z
" transform="scale(0.015625)"/>
       </defs>
       <use xlink:href="#DejaVuSans-6d"/>
       <use xlink:href="#DejaVuSans-6d" transform="translate(97.412109 0)"/>
       <use xlink:href="#DejaVuSans-6c" transform="translate(194.824219 0)"/>
       <use xlink:href="#DejaVuSans-75" transform="translate(222.607422 0)"/>
       <use xlink:href="#DejaVuSans-2d" transform="translate(285.986328 0)"/>
       <use xlink:href="#DejaVuSans-70" transform="translate(322.070312 0)"/>
       <use xlink:href="#DejaVuSans-72" transform="translate(385.546875 0)"/>
       <use xlink:href="#DejaVuSans-6f" transform="translate(424.410156 0)"/>
       <use xlink:href="#DejaVuSans-2d" transform="translate(487.466797 0)"/>
       <use xlink:href="#DejaVuSans-31" transform="translate(523.550781 0)"/>
       <use xlink:href="#DejaVuSans-6b" transform="translate(587.173828 0)"/>
      </g>
     </g>
    </g>
    <g id="xtick_5">
     <g id="line2d_5">
      <path d="M 138.592494 123.743636 
L 170.606609 222.272949 
" clip-path="url(#p170abf36a1)" style="fill: none; stroke-dasharray: 0.8,1.32; stroke-dashoffset: 0; stroke: #b0b0b0; stroke-width: 0.8"/>
     </g>
     <g id="text_5">
      <!-- bbh-1k -->
      <g transform="translate(157.53519 238.347115) scale(0.1 -0.1)">
       <defs>
        <path id="DejaVuSans-62" d="M 3116 1747 
Q 3116 2381 2855 2742 
Q 2594 3103 2138 3103 
Q 1681 3103 1420 2742 
Q 1159 2381 1159 1747 
Q 1159 1113 1420 752 
Q 1681 391 2138 391 
Q 2594 391 2855 752 
Q 3116 1113 3116 1747 
z
M 1159 2969 
Q 1341 3281 1617 3432 
Q 1894 3584 2278 3584 
Q 2916 3584 3314 3078 
Q 3713 2572 3713 1747 
Q 3713 922 3314 415 
Q 2916 -91 2278 -91 
Q 1894 -91 1617 61 
Q 1341 213 1159 525 
L 1159 0 
L 581 0 
L 581 4863 
L 1159 4863 
L 1159 2969 
z
" transform="scale(0.015625)"/>
       </defs>
       <use xlink:href="#DejaVuSans-62"/>
       <use xlink:href="#DejaVuSans-62" transform="translate(63.476562 0)"/>
       <use xlink:href="#DejaVuSans-68" transform="translate(126.953125 0)"/>
       <use xlink:href="#DejaVuSans-2d" transform="translate(190.332031 0)"/>
       <use xlink:href="#DejaVuSans-31" transform="translate(226.416016 0)"/>
       <use xlink:href="#DejaVuSans-6b" transform="translate(290.039062 0)"/>
      </g>
     </g>
    </g>
   </g>
   <g id="matplotlib.axis_2">
    <g id="ytick_1">
     <g id="line2d_6">
      <path d="M 138.592494 123.743636 
C 138.592494 123.743636 138.592494 123.743636 138.592494 123.743636 
C 138.592494 123.743636 138.592494 123.743636 138.592494 123.743636 
C 138.592494 123.743636 138.592494 123.743636 138.592494 123.743636 
C 138.592494 123.743636 138.592494 123.743636 138.592494 123.743636 
C 138.592494 123.743636 138.592494 123.743636 138.592494 123.743636 
C 138.592494 123.743636 138.592494 123.743636 138.592494 123.743636 
C 138.592494 123.743636 138.592494 123.743636 138.592494 123.743636 
C 138.592494 123.743636 138.592494 123.743636 138.592494 123.743636 
C 138.592494 123.743636 138.592494 123.743636 138.592494 123.743636 
C 138.592494 123.743636 138.592494 123.743636 138.592494 123.743636 
C 138.592494 123.743636 138.592494 123.743636 138.592494 123.743636 
C 138.592494 123.743636 138.592494 123.743636 138.592494 123.743636 
C 138.592494 123.743636 138.592494 123.743636 138.592494 123.743636 
C 138.592494 123.743636 138.592494 123.743636 138.592494 123.743636 
C 138.592494 123.743636 138.592494 123.743636 138.592494 123.743636 
C 138.592494 123.743636 138.592494 123.743636 138.592494 123.743636 
" clip-path="url(#p170abf36a1)" style="fill: none; stroke-dasharray: 0.8,1.32; stroke-dashoffset: 0; stroke: #b0b0b0; stroke-width: 0.8"/>
     </g>
     <g id="text_6">
      <!-- 0.0 -->
      <g transform="translate(138.592494 121.663949) scale(0.1 -0.1)">
       <defs>
        <path id="DejaVuSans-2e" d="M 684 794 
L 1344 794 
L 1344 0 
L 684 0 
L 684 794 
z
" transform="scale(0.015625)"/>
       </defs>
       <use xlink:href="#DejaVuSans-30"/>
       <use xlink:href="#DejaVuSans-2e" transform="translate(63.623047 0)"/>
       <use xlink:href="#DejaVuSans-30" transform="translate(95.410156 0)"/>
      </g>
     </g>
    </g>
    <g id="ytick_2">
     <g id="line2d_7">
      <path d="M 159.312464 123.743636 
C 159.312464 121.022715 158.776502 118.328251 157.735251 115.814447 
C 156.693999 113.300643 155.167708 111.016387 153.243726 109.092405 
C 151.319744 107.168423 149.035487 105.642132 146.521684 104.60088 
C 144.00788 103.559629 141.313416 103.023666 138.592494 103.023666 
C 135.871573 103.023666 133.177109 103.559629 130.663305 104.60088 
C 128.149501 105.642132 125.865245 107.168423 123.941263 109.092405 
C 122.017281 111.016387 120.49099 113.300643 119.449738 115.814447 
C 118.408486 118.328251 117.872524 121.022715 117.872524 123.743636 
C 117.872524 126.464558 118.408486 129.159022 119.449738 131.672826 
C 120.49099 134.186629 122.017281 136.470886 123.941263 138.394868 
C 125.865245 140.31885 128.149501 141.845141 130.663305 142.886393 
C 133.177109 143.927644 135.871573 144.463606 138.592494 144.463606 
C 141.313416 144.463606 144.00788 143.927644 146.521684 142.886393 
C 149.035487 141.845141 151.319744 140.31885 153.243726 138.394868 
C 155.167708 136.470886 156.693999 134.186629 157.735251 131.672826 
C 158.776502 129.159022 159.312464 126.464558 159.312464 123.743636 
" clip-path="url(#p170abf36a1)" style="fill: none; stroke-dasharray: 0.8,1.32; stroke-dashoffset: 0; stroke: #b0b0b0; stroke-width: 0.8"/>
     </g>
     <g id="text_7">
      <!-- 0.2 -->
      <g transform="translate(157.735251 113.73476) scale(0.1 -0.1)">
       <defs>
        <path id="DejaVuSans-32" d="M 1228 531 
L 3431 531 
L 3431 0 
L 469 0 
L 469 531 
Q 828 903 1448 1529 
Q 2069 2156 2228 2338 
Q 2531 2678 2651 2914 
Q 2772 3150 2772 3378 
Q 2772 3750 2511 3984 
Q 2250 4219 1831 4219 
Q 1534 4219 1204 4116 
Q 875 4013 500 3803 
L 500 4441 
Q 881 4594 1212 4672 
Q 1544 4750 1819 4750 
Q 2544 4750 2975 4387 
Q 3406 4025 3406 3419 
Q 3406 3131 3298 2873 
Q 3191 2616 2906 2266 
Q 2828 2175 2409 1742 
Q 1991 1309 1228 531 
z
" transform="scale(0.015625)"/>
       </defs>
       <use xlink:href="#DejaVuSans-30"/>
       <use xlink:href="#DejaVuSans-2e" transform="translate(63.623047 0)"/>
       <use xlink:href="#DejaVuSans-32" transform="translate(95.410156 0)"/>
      </g>
     </g>
    </g>
    <g id="ytick_3">
     <g id="line2d_8">
      <path d="M 180.032434 123.743636 
C 180.032434 118.301793 178.96051 112.912865 176.878007 107.885258 
C 174.795504 102.85765 171.742921 98.289138 167.894957 94.441174 
C 164.046993 90.59321 159.47848 87.540627 154.450873 85.458124 
C 149.423265 83.375621 144.034337 82.303696 138.592494 82.303696 
C 133.150651 82.303696 127.761723 83.375621 122.734116 85.458124 
C 117.706508 87.540627 113.137996 90.59321 109.290032 94.441174 
C 105.442067 98.289138 102.389485 102.85765 100.306982 107.885258 
C 98.224479 112.912865 97.152554 118.301793 97.152554 123.743636 
C 97.152554 129.185479 98.224479 134.574407 100.306982 139.602015 
C 102.389485 144.629622 105.442067 149.198135 109.290032 153.046099 
C 113.137996 156.894063 117.706508 159.946646 122.734116 162.029149 
C 127.761723 164.111652 133.150651 165.183577 138.592494 165.183577 
C 144.034337 165.183577 149.423265 164.111652 154.450873 162.029149 
C 159.47848 159.946646 164.046993 156.894063 167.894957 153.046099 
C 171.742921 149.198135 174.795504 144.629622 176.878007 139.602015 
C 178.96051 134.574407 180.032434 129.185479 180.032434 123.743636 
" clip-path="url(#p170abf36a1)" style="fill: none; stroke-dasharray: 0.8,1.32; stroke-dashoffset: 0; stroke: #b0b0b0; stroke-width: 0.8"/>
     </g>
     <g id="text_8">
      <!-- 0.4 -->
      <g transform="translate(176.878007 105.80557) scale(0.1 -0.1)">
       <defs>
        <path id="DejaVuSans-34" d="M 2419 4116 
L 825 1625 
L 2419 1625 
L 2419 4116 
z
M 2253 4666 
L 3047 4666 
L 3047 1625 
L 3713 1625 
L 3713 1100 
L 3047 1100 
L 3047 0 
L 2419 0 
L 2419 1100 
L 313 1100 
L 313 1709 
L 2253 4666 
z
" transform="scale(0.015625)"/>
       </defs>
       <use xlink:href="#DejaVuSans-30"/>
       <use xlink:href="#DejaVuSans-2e" transform="translate(63.623047 0)"/>
       <use xlink:href="#DejaVuSans-34" transform="translate(95.410156 0)"/>
      </g>
     </g>
    </g>
    <g id="ytick_4">
     <g id="line2d_9">
      <path d="M 200.752405 123.743636 
C 200.752405 115.580872 199.144518 107.49748 196.020763 99.956069 
C 192.897008 92.414657 188.318135 85.561889 182.546188 79.789942 
C 176.774242 74.017996 169.921473 69.439122 162.380062 66.315368 
C 154.838651 63.191613 146.755259 61.583726 138.592494 61.583726 
C 130.42973 61.583726 122.346338 63.191613 114.804926 66.315368 
C 107.263515 69.439122 100.410746 74.017996 94.6388 79.789942 
C 88.866854 85.561889 84.28798 92.414657 81.164225 99.956069 
C 78.040471 107.49748 76.432584 115.580872 76.432584 123.743636 
C 76.432584 131.906401 78.040471 139.989793 81.164225 147.531204 
C 84.28798 155.072615 88.866854 161.925384 94.6388 167.69733 
C 100.410746 173.469277 107.263515 178.04815 114.804926 181.171905 
C 122.346338 184.29566 130.42973 185.903547 138.592494 185.903547 
C 146.755259 185.903547 154.838651 184.29566 162.380062 181.171905 
C 169.921473 178.04815 176.774242 173.469277 182.546188 167.69733 
C 188.318135 161.925384 192.897008 155.072615 196.020763 147.531204 
C 199.144518 139.989793 200.752405 131.906401 200.752405 123.743636 
" clip-path="url(#p170abf36a1)" style="fill: none; stroke-dasharray: 0.8,1.32; stroke-dashoffset: 0; stroke: #b0b0b0; stroke-width: 0.8"/>
     </g>
     <g id="text_9">
      <!-- 0.6 -->
      <g transform="translate(196.020763 97.876381) scale(0.1 -0.1)">
       <defs>
        <path id="DejaVuSans-36" d="M 2113 2584 
Q 1688 2584 1439 2293 
Q 1191 2003 1191 1497 
Q 1191 994 1439 701 
Q 1688 409 2113 409 
Q 2538 409 2786 701 
Q 3034 994 3034 1497 
Q 3034 2003 2786 2293 
Q 2538 2584 2113 2584 
z
M 3366 4563 
L 3366 3988 
Q 3128 4100 2886 4159 
Q 2644 4219 2406 4219 
Q 1781 4219 1451 3797 
Q 1122 3375 1075 2522 
Q 1259 2794 1537 2939 
Q 1816 3084 2150 3084 
Q 2853 3084 3261 2657 
Q 3669 2231 3669 1497 
Q 3669 778 3244 343 
Q 2819 -91 2113 -91 
Q 1303 -91 875 529 
Q 447 1150 447 2328 
Q 447 3434 972 4092 
Q 1497 4750 2381 4750 
Q 2619 4750 2861 4703 
Q 3103 4656 3366 4563 
z
" transform="scale(0.015625)"/>
       </defs>
       <use xlink:href="#DejaVuSans-30"/>
       <use xlink:href="#DejaVuSans-2e" transform="translate(63.623047 0)"/>
       <use xlink:href="#DejaVuSans-36" transform="translate(95.410156 0)"/>
      </g>
     </g>
    </g>
    <g id="ytick_5">
     <g id="line2d_10">
      <path d="M 221.472375 123.743636 
C 221.472375 112.85995 219.328526 102.082094 215.163519 92.026879 
C 210.998513 81.971664 204.893348 72.834639 197.19742 65.138711 
C 189.501491 57.442783 180.364466 51.337618 170.309251 47.172611 
C 160.254036 43.007605 149.47618 40.863756 138.592494 40.863756 
C 127.708808 40.863756 116.930952 43.007605 106.875737 47.172611 
C 96.820522 51.337618 87.683497 57.442783 79.987569 65.138711 
C 72.291641 72.834639 66.186476 81.971664 62.021469 92.026879 
C 57.856463 102.082094 55.712614 112.85995 55.712614 123.743636 
C 55.712614 134.627323 57.856463 145.405179 62.021469 155.460393 
C 66.186476 165.515608 72.291641 174.652633 79.987569 182.348562 
C 87.683497 190.04449 96.820522 196.149655 106.875737 200.314661 
C 116.930952 204.479668 127.708808 206.623517 138.592494 206.623517 
C 149.47618 206.623517 160.254036 204.479668 170.309251 200.314661 
C 180.364466 196.149655 189.501491 190.04449 197.19742 182.348562 
C 204.893348 174.652633 210.998513 165.515608 215.163519 155.460393 
C 219.328526 145.405179 221.472375 134.627323 221.472375 123.743636 
" clip-path="url(#p170abf36a1)" style="fill: none; stroke-dasharray: 0.8,1.32; stroke-dashoffset: 0; stroke: #b0b0b0; stroke-width: 0.8"/>
     </g>
     <g id="text_10">
      <!-- 0.8 -->
      <g transform="translate(215.163519 89.947192) scale(0.1 -0.1)">
       <defs>
        <path id="DejaVuSans-38" d="M 2034 2216 
Q 1584 2216 1326 1975 
Q 1069 1734 1069 1313 
Q 1069 891 1326 650 
Q 1584 409 2034 409 
Q 2484 409 2743 651 
Q 3003 894 3003 1313 
Q 3003 1734 2745 1975 
Q 2488 2216 2034 2216 
z
M 1403 2484 
Q 997 2584 770 2862 
Q 544 3141 544 3541 
Q 544 4100 942 4425 
Q 1341 4750 2034 4750 
Q 2731 4750 3128 4425 
Q 3525 4100 3525 3541 
Q 3525 3141 3298 2862 
Q 3072 2584 2669 2484 
Q 3125 2378 3379 2068 
Q 3634 1759 3634 1313 
Q 3634 634 3220 271 
Q 2806 -91 2034 -91 
Q 1263 -91 848 271 
Q 434 634 434 1313 
Q 434 1759 690 2068 
Q 947 2378 1403 2484 
z
M 1172 3481 
Q 1172 3119 1398 2916 
Q 1625 2713 2034 2713 
Q 2441 2713 2670 2916 
Q 2900 3119 2900 3481 
Q 2900 3844 2670 4047 
Q 2441 4250 2034 4250 
Q 1625 4250 1398 4047 
Q 1172 3844 1172 3481 
z
" transform="scale(0.015625)"/>
       </defs>
       <use xlink:href="#DejaVuSans-30"/>
       <use xlink:href="#DejaVuSans-2e" transform="translate(63.623047 0)"/>
       <use xlink:href="#DejaVuSans-38" transform="translate(95.410156 0)"/>
      </g>
     </g>
    </g>
    <g id="ytick_6">
     <g id="line2d_11">
      <path d="M 242.192345 123.743636 
C 242.192345 110.139029 239.512534 96.666709 234.306276 84.09769 
C 229.100018 71.528671 221.468561 60.10739 211.848651 50.48748 
C 202.228741 40.867569 190.807459 33.236113 178.238441 28.029855 
C 165.669422 22.823597 152.197102 20.143786 138.592494 20.143786 
C 124.987887 20.143786 111.515567 22.823597 98.946548 28.029855 
C 86.377529 33.236113 74.956248 40.867569 65.336338 50.48748 
C 55.716427 60.10739 48.084971 71.528671 42.878713 84.09769 
C 37.672455 96.666709 34.992644 110.139029 34.992644 123.743636 
C 34.992644 137.348244 37.672455 150.820564 42.878713 163.389583 
C 48.084971 175.958601 55.716427 187.379883 65.336338 196.999793 
C 74.956248 206.619703 86.377529 214.25116 98.946548 219.457418 
C 111.515567 224.663676 124.987887 227.343487 138.592494 227.343487 
C 152.197102 227.343487 165.669422 224.663676 178.238441 219.457418 
C 190.807459 214.25116 202.228741 206.619703 211.848651 196.999793 
C 221.468561 187.379883 229.100018 175.958601 234.306276 163.389583 
C 239.512534 150.820564 242.192345 137.348244 242.192345 123.743636 
" clip-path="url(#p170abf36a1)" style="fill: none; stroke-dasharray: 0.8,1.32; stroke-dashoffset: 0; stroke: #b0b0b0; stroke-width: 0.8"/>
     </g>
     <g id="text_11">
      <!-- 1.0 -->
      <g transform="translate(234.306276 82.018003) scale(0.1 -0.1)">
       <use xlink:href="#DejaVuSans-31"/>
       <use xlink:href="#DejaVuSans-2e" transform="translate(63.623047 0)"/>
       <use xlink:href="#DejaVuSans-30" transform="translate(95.410156 0)"/>
      </g>
     </g>
    </g>
   </g>
   <g id="line2d_12">
    <path d="M 227.084033 123.743636 
L 155.887476 70.515157 
L 79.820454 81.04325 
L 92.286395 157.386987 
L 159.935237 189.429845 
L 227.084033 123.743636 
" clip-path="url(#p170abf36a1)" style="fill: none; stroke: #1f77b4; stroke-width: 1.5; stroke-linecap: square"/>
   </g>
   <g id="line2d_13">
    <path d="M 210.076391 123.743636 
L 143.394611 108.964239 
L 112.610142 104.866352 
L 117.638984 138.967252 
L 156.520398 178.920052 
L 210.076391 123.743636 
" clip-path="url(#p170abf36a1)" style="fill: none; stroke: #ff7f0e; stroke-width: 1.5; stroke-linecap: square"/>
   </g>
   <g id="line2d_14">
    <path d="M 214.220385 123.743636 
L 147.236305 97.140722 
L 106.743159 100.60374 
L 108.41944 145.665643 
L 153.959269 171.037707 
L 214.220385 123.743636 
" clip-path="url(#p170abf36a1)" style="fill: none; stroke: #2ca02c; stroke-width: 1.5; stroke-linecap: square"/>
   </g>
   <g id="text_12">
    <!-- lite -->
    <g transform="translate(129.214682 14.143786) scale(0.12 -0.12)">
     <defs>
      <path id="DejaVuSans-69" d="M 603 3500 
L 1178 3500 
L 1178 0 
L 603 0 
L 603 3500 
z
M 603 4863 
L 1178 4863 
L 1178 4134 
L 603 4134 
L 603 4863 
z
" transform="scale(0.015625)"/>
     </defs>
     <use xlink:href="#DejaVuSans-6c"/>
     <use xlink:href="#DejaVuSans-69" transform="translate(27.783203 0)"/>
     <use xlink:href="#DejaVuSans-74" transform="translate(55.566406 0)"/>
     <use xlink:href="#DejaVuSans-65" transform="translate(94.775391 0)"/>
    </g>
   </g>
   <g id="legend_1">
    <g id="line2d_15">
     <path d="M 17.539369 260.245584 
L 27.539369 260.245584 
L 37.539369 260.245584 
" style="fill: none; stroke: #1f77b4; stroke-width: 1.5; stroke-linecap: square"/>
    </g>
    <g id="text_13">
     <!-- llama-3.1-8b:yandex -->
     <g transform="translate(45.539369 263.745584) scale(0.1 -0.1)">
      <defs>
       <path id="DejaVuSans-33" d="M 2597 2516 
Q 3050 2419 3304 2112 
Q 3559 1806 3559 1356 
Q 3559 666 3084 287 
Q 2609 -91 1734 -91 
Q 1441 -91 1130 -33 
Q 819 25 488 141 
L 488 750 
Q 750 597 1062 519 
Q 1375 441 1716 441 
Q 2309 441 2620 675 
Q 2931 909 2931 1356 
Q 2931 1769 2642 2001 
Q 2353 2234 1838 2234 
L 1294 2234 
L 1294 2753 
L 1863 2753 
Q 2328 2753 2575 2939 
Q 2822 3125 2822 3475 
Q 2822 3834 2567 4026 
Q 2313 4219 1838 4219 
Q 1578 4219 1281 4162 
Q 984 4106 628 3988 
L 628 4550 
Q 988 4650 1302 4700 
Q 1616 4750 1894 4750 
Q 2613 4750 3031 4423 
Q 3450 4097 3450 3541 
Q 3450 3153 3228 2886 
Q 3006 2619 2597 2516 
z
" transform="scale(0.015625)"/>
       <path id="DejaVuSans-3a" d="M 750 794 
L 1409 794 
L 1409 0 
L 750 0 
L 750 794 
z
M 750 3309 
L 1409 3309 
L 1409 2516 
L 750 2516 
L 750 3309 
z
" transform="scale(0.015625)"/>
       <path id="DejaVuSans-79" d="M 2059 -325 
Q 1816 -950 1584 -1140 
Q 1353 -1331 966 -1331 
L 506 -1331 
L 506 -850 
L 844 -850 
Q 1081 -850 1212 -737 
Q 1344 -625 1503 -206 
L 1606 56 
L 191 3500 
L 800 3500 
L 1894 763 
L 2988 3500 
L 3597 3500 
L 2059 -325 
z
" transform="scale(0.015625)"/>
       <path id="DejaVuSans-64" d="M 2906 2969 
L 2906 4863 
L 3481 4863 
L 3481 0 
L 2906 0 
L 2906 525 
Q 2725 213 2448 61 
Q 2172 -91 1784 -91 
Q 1150 -91 751 415 
Q 353 922 353 1747 
Q 353 2572 751 3078 
Q 1150 3584 1784 3584 
Q 2172 3584 2448 3432 
Q 2725 3281 2906 2969 
z
M 947 1747 
Q 947 1113 1208 752 
Q 1469 391 1925 391 
Q 2381 391 2643 752 
Q 2906 1113 2906 1747 
Q 2906 2381 2643 2742 
Q 2381 3103 1925 3103 
Q 1469 3103 1208 2742 
Q 947 2381 947 1747 
z
" transform="scale(0.015625)"/>
       <path id="DejaVuSans-78" d="M 3513 3500 
L 2247 1797 
L 3578 0 
L 2900 0 
L 1881 1375 
L 863 0 
L 184 0 
L 1544 1831 
L 300 3500 
L 978 3500 
L 1906 2253 
L 2834 3500 
L 3513 3500 
z
" transform="scale(0.015625)"/>
      </defs>
      <use xlink:href="#DejaVuSans-6c"/>
      <use xlink:href="#DejaVuSans-6c" transform="translate(27.783203 0)"/>
      <use xlink:href="#DejaVuSans-61" transform="translate(55.566406 0)"/>
      <use xlink:href="#DejaVuSans-6d" transform="translate(116.845703 0)"/>
      <use xlink:href="#DejaVuSans-61" transform="translate(214.257812 0)"/>
      <use xlink:href="#DejaVuSans-2d" transform="translate(275.537109 0)"/>
      <use xlink:href="#DejaVuSans-33" transform="translate(311.621094 0)"/>
      <use xlink:href="#DejaVuSans-2e" transform="translate(375.244141 0)"/>
      <use xlink:href="#DejaVuSans-31" transform="translate(407.03125 0)"/>
      <use xlink:href="#DejaVuSans-2d" transform="translate(470.654297 0)"/>
      <use xlink:href="#DejaVuSans-38" transform="translate(506.738281 0)"/>
      <use xlink:href="#DejaVuSans-62" transform="translate(570.361328 0)"/>
      <use xlink:href="#DejaVuSans-3a" transform="translate(633.837891 0)"/>
      <use xlink:href="#DejaVuSans-79" transform="translate(667.529297 0)"/>
      <use xlink:href="#DejaVuSans-61" transform="translate(726.708984 0)"/>
      <use xlink:href="#DejaVuSans-6e" transform="translate(787.988281 0)"/>
      <use xlink:href="#DejaVuSans-64" transform="translate(851.367188 0)"/>
      <use xlink:href="#DejaVuSans-65" transform="translate(914.84375 0)"/>
      <use xlink:href="#DejaVuSans-78" transform="translate(974.617188 0)"/>
     </g>
    </g>
    <g id="line2d_16">
     <path d="M 17.539369 274.923709 
L 27.539369 274.923709 
L 37.539369 274.923709 
" style="fill: none; stroke: #ff7f0e; stroke-width: 1.5; stroke-linecap: square"/>
    </g>
    <g id="text_14">
     <!-- yandexgpt-4-lite -->
     <g transform="translate(45.539369 278.423709) scale(0.1 -0.1)">
      <use xlink:href="#DejaVuSans-79"/>
      <use xlink:href="#DejaVuSans-61" transform="translate(59.179688 0)"/>
      <use xlink:href="#DejaVuSans-6e" transform="translate(120.458984 0)"/>
      <use xlink:href="#DejaVuSans-64" transform="translate(183.837891 0)"/>
      <use xlink:href="#DejaVuSans-65" transform="translate(247.314453 0)"/>
      <use xlink:href="#DejaVuSans-78" transform="translate(307.087891 0)"/>
      <use xlink:href="#DejaVuSans-67" transform="translate(366.267578 0)"/>
      <use xlink:href="#DejaVuSans-70" transform="translate(429.744141 0)"/>
      <use xlink:href="#DejaVuSans-74" transform="translate(493.220703 0)"/>
      <use xlink:href="#DejaVuSans-2d" transform="translate(532.429688 0)"/>
      <use xlink:href="#DejaVuSans-34" transform="translate(568.513672 0)"/>
      <use xlink:href="#DejaVuSans-2d" transform="translate(632.136719 0)"/>
      <use xlink:href="#DejaVuSans-6c" transform="translate(668.220703 0)"/>
      <use xlink:href="#DejaVuSans-69" transform="translate(696.003906 0)"/>
      <use xlink:href="#DejaVuSans-74" transform="translate(723.787109 0)"/>
      <use xlink:href="#DejaVuSans-65" transform="translate(762.996094 0)"/>
     </g>
    </g>
    <g id="line2d_17">
     <path d="M 168.920619 260.245584 
L 178.920619 260.245584 
L 188.920619 260.245584 
" style="fill: none; stroke: #2ca02c; stroke-width: 1.5; stroke-linecap: square"/>
    </g>
    <g id="text_15">
     <!-- gigachat-lite -->
     <g transform="translate(196.920619 263.745584) scale(0.1 -0.1)">
      <defs>
       <path id="DejaVuSans-63" d="M 3122 3366 
L 3122 2828 
Q 2878 2963 2633 3030 
Q 2388 3097 2138 3097 
Q 1578 3097 1268 2742 
Q 959 2388 959 1747 
Q 959 1106 1268 751 
Q 1578 397 2138 397 
Q 2388 397 2633 464 
Q 2878 531 3122 666 
L 3122 134 
Q 2881 22 2623 -34 
Q 2366 -91 2075 -91 
Q 1284 -91 818 406 
Q 353 903 353 1747 
Q 353 2603 823 3093 
Q 1294 3584 2113 3584 
Q 2378 3584 2631 3529 
Q 2884 3475 3122 3366 
z
" transform="scale(0.015625)"/>
      </defs>
      <use xlink:href="#DejaVuSans-67"/>
      <use xlink:href="#DejaVuSans-69" transform="translate(63.476562 0)"/>
      <use xlink:href="#DejaVuSans-67" transform="translate(91.259766 0)"/>
      <use xlink:href="#DejaVuSans-61" transform="translate(154.736328 0)"/>
      <use xlink:href="#DejaVuSans-63" transform="translate(216.015625 0)"/>
      <use xlink:href="#DejaVuSans-68" transform="translate(270.996094 0)"/>
      <use xlink:href="#DejaVuSans-61" transform="translate(334.375 0)"/>
      <use xlink:href="#DejaVuSans-74" transform="translate(395.654297 0)"/>
      <use xlink:href="#DejaVuSans-2d" transform="translate(434.863281 0)"/>
      <use xlink:href="#DejaVuSans-6c" transform="translate(470.947266 0)"/>
      <use xlink:href="#DejaVuSans-69" transform="translate(498.730469 0)"/>
      <use xlink:href="#DejaVuSans-74" transform="translate(526.513672 0)"/>
      <use xlink:href="#DejaVuSans-65" transform="translate(565.722656 0)"/>
     </g>
    </g>
   </g>
  </g>
  <g id="axes_2">
   <g id="patch_3">
    <path d="M 527.62 123.743636 
C 527.62 110.139029 524.940189 96.666709 519.733931 84.09769 
C 514.527673 71.528671 506.896217 60.10739 497.276306 50.48748 
C 487.656396 40.867569 476.235115 33.236113 463.666096 28.029855 
C 451.097077 22.823597 437.624757 20.143786 424.02015 20.143786 
C 410.415542 20.143786 396.943222 22.823597 384.374203 28.029855 
C 371.805185 33.236113 360.383903 40.867569 350.763993 50.48748 
C 341.144083 60.10739 333.512626 71.528671 328.306368 84.09769 
C 323.10011 96.666709 320.420299 110.139029 320.420299 123.743636 
C 320.420299 137.348244 323.10011 150.820564 328.306368 163.389583 
C 333.512626 175.958601 341.144083 187.379883 350.763993 196.999793 
C 360.383903 206.619703 371.805185 214.25116 384.374203 219.457418 
C 396.943222 224.663676 410.415542 227.343487 424.02015 227.343487 
C 437.624757 227.343487 451.097077 224.663676 463.666096 219.457418 
C 476.235115 214.25116 487.656396 206.619703 497.276306 196.999793 
C 506.896217 187.379883 514.527673 175.958601 519.733931 163.389583 
C 524.940189 150.820564 527.62 137.348244 527.62 123.743636 
M 424.02015 123.743636 
C 424.02015 123.743636 424.02015 123.743636 424.02015 123.743636 
C 424.02015 123.743636 424.02015 123.743636 424.02015 123.743636 
C 424.02015 123.743636 424.02015 123.743636 424.02015 123.743636 
C 424.02015 123.743636 424.02015 123.743636 424.02015 123.743636 
C 424.02015 123.743636 424.02015 123.743636 424.02015 123.743636 
C 424.02015 123.743636 424.02015 123.743636 424.02015 123.743636 
C 424.02015 123.743636 424.02015 123.743636 424.02015 123.743636 
C 424.02015 123.743636 424.02015 123.743636 424.02015 123.743636 
C 424.02015 123.743636 424.02015 123.743636 424.02015 123.743636 
C 424.02015 123.743636 424.02015 123.743636 424.02015 123.743636 
C 424.02015 123.743636 424.02015 123.743636 424.02015 123.743636 
C 424.02015 123.743636 424.02015 123.743636 424.02015 123.743636 
C 424.02015 123.743636 424.02015 123.743636 424.02015 123.743636 
C 424.02015 123.743636 424.02015 123.743636 424.02015 123.743636 
C 424.02015 123.743636 424.02015 123.743636 424.02015 123.743636 
C 424.02015 123.743636 424.02015 123.743636 424.02015 123.743636 
z
" style="fill: #ffffff"/>
   </g>
   <g id="FillBetweenPolyCollection_4">
    <path d="M 525.548003 123.743636 
L 519.280212 123.743636 
L 446.217691 55.426628 
L 357.010825 75.058512 
L 369.541024 163.325038 
L 450.271723 204.537673 
L 519.280212 123.743636 
L 525.548003 123.743636 
L 525.548003 123.743636 
L 454.113417 216.36119 
L 356.130778 173.068152 
L 348.587514 68.938619 
L 450.80747 41.300742 
L 525.548003 123.743636 
z
" clip-path="url(#p5df1a3df5f)" style="fill: #1f77b4; fill-opacity: 0.2"/>
   </g>
   <g id="FillBetweenPolyCollection_5">
    <path d="M 514.152019 123.743636 
L 500.684039 123.743636 
L 431.063255 102.067188 
L 392.170815 100.60374 
L 395.523376 144.447754 
L 443.212611 182.811959 
L 500.684039 123.743636 
L 514.152019 123.743636 
L 514.152019 123.743636 
L 448.030735 197.640621 
L 382.11313 154.190868 
L 379.598709 91.46957 
L 436.185513 86.302497 
L 514.152019 123.743636 
z
" clip-path="url(#p5df1a3df5f)" style="fill: #ff7f0e; fill-opacity: 0.2"/>
   </g>
   <g id="FillBetweenPolyCollection_6">
    <path d="M 511.432523 123.743636 
L 499.561707 123.743636 
L 435.047233 89.805762 
L 389.24624 98.478912 
L 390.35788 148.200706 
L 441.286189 176.883041 
L 499.561707 123.743636 
L 511.432523 123.743636 
L 511.432523 123.743636 
L 447.059521 194.651529 
L 374.779401 159.519134 
L 376.763298 89.409524 
L 440.382919 73.38421 
L 511.432523 123.743636 
z
" clip-path="url(#p5df1a3df5f)" style="fill: #2ca02c; fill-opacity: 0.2"/>
   </g>
   <g id="FillBetweenPolyCollection_7">
    <path d="M 525.392046 123.743636 
L 516.480231 123.743636 
L 439.329027 76.627758 
L 367.242897 82.492548 
L 379.150007 156.343703 
L 445.90735 191.105513 
L 516.480231 123.743636 
L 525.392046 123.743636 
L 525.392046 123.743636 
L 450.80747 206.186531 
L 368.101793 164.370701 
L 355.481895 73.947679 
L 444.131144 61.848361 
L 525.392046 123.743636 
z
" clip-path="url(#p5df1a3df5f)" style="fill: #d62728; fill-opacity: 0.2"/>
   </g>
   <g id="matplotlib.axis_3">
    <g id="xtick_6">
     <g id="line2d_18">
      <path d="M 424.02015 123.743636 
L 527.62 123.743636 
" clip-path="url(#p5df1a3df5f)" style="fill: none; stroke-dasharray: 0.8,1.32; stroke-dashoffset: 0; stroke: #b0b0b0; stroke-width: 0.8"/>
     </g>
     <g id="text_16">
      <!-- mgsm-en -->
      <g transform="translate(518.05125 126.503011) scale(0.1 -0.1)">
       <use xlink:href="#DejaVuSans-6d"/>
       <use xlink:href="#DejaVuSans-67" transform="translate(97.412109 0)"/>
       <use xlink:href="#DejaVuSans-73" transform="translate(160.888672 0)"/>
       <use xlink:href="#DejaVuSans-6d" transform="translate(212.988281 0)"/>
       <use xlink:href="#DejaVuSans-2d" transform="translate(310.400391 0)"/>
       <use xlink:href="#DejaVuSans-65" transform="translate(346.484375 0)"/>
       <use xlink:href="#DejaVuSans-6e" transform="translate(408.007812 0)"/>
      </g>
     </g>
    </g>
    <g id="xtick_7">
     <g id="line2d_19">
      <path d="M 424.02015 123.743636 
L 456.034264 25.214324 
" clip-path="url(#p5df1a3df5f)" style="fill: none; stroke-dasharray: 0.8,1.32; stroke-dashoffset: 0; stroke: #b0b0b0; stroke-width: 0.8"/>
     </g>
     <g id="text_17">
      <!-- math-500 -->
      <g transform="translate(435.949564 14.658907) scale(0.1 -0.1)">
       <use xlink:href="#DejaVuSans-6d"/>
       <use xlink:href="#DejaVuSans-61" transform="translate(97.412109 0)"/>
       <use xlink:href="#DejaVuSans-74" transform="translate(158.691406 0)"/>
       <use xlink:href="#DejaVuSans-68" transform="translate(197.900391 0)"/>
       <use xlink:href="#DejaVuSans-2d" transform="translate(261.279297 0)"/>
       <use xlink:href="#DejaVuSans-35" transform="translate(297.363281 0)"/>
       <use xlink:href="#DejaVuSans-30" transform="translate(360.986328 0)"/>
       <use xlink:href="#DejaVuSans-30" transform="translate(424.609375 0)"/>
      </g>
     </g>
    </g>
    <g id="xtick_8">
     <g id="line2d_20">
      <path d="M 424.02015 123.743636 
L 340.20611 62.849172 
" clip-path="url(#p5df1a3df5f)" style="fill: none; stroke-dasharray: 0.8,1.32; stroke-dashoffset: 0; stroke: #b0b0b0; stroke-width: 0.8"/>
     </g>
     <g id="text_18">
      <!-- humaneval -->
      <g transform="translate(300.950185 57.379554) scale(0.1 -0.1)">
       <use xlink:href="#DejaVuSans-68"/>
       <use xlink:href="#DejaVuSans-75" transform="translate(63.378906 0)"/>
       <use xlink:href="#DejaVuSans-6d" transform="translate(126.757812 0)"/>
       <use xlink:href="#DejaVuSans-61" transform="translate(224.169922 0)"/>
       <use xlink:href="#DejaVuSans-6e" transform="translate(285.449219 0)"/>
       <use xlink:href="#DejaVuSans-65" transform="translate(348.828125 0)"/>
       <use xlink:href="#DejaVuSans-76" transform="translate(410.351562 0)"/>
       <use xlink:href="#DejaVuSans-61" transform="translate(469.53125 0)"/>
       <use xlink:href="#DejaVuSans-6c" transform="translate(530.810547 0)"/>
      </g>
     </g>
    </g>
    <g id="xtick_9">
     <g id="line2d_21">
      <path d="M 424.02015 123.743636 
L 340.20611 184.638101 
" clip-path="url(#p5df1a3df5f)" style="fill: none; stroke-dasharray: 0.8,1.32; stroke-dashoffset: 0; stroke: #b0b0b0; stroke-width: 0.8"/>
     </g>
     <g id="text_19">
      <!-- mmlu-pro-1k -->
      <g transform="translate(296.626747 195.626469) scale(0.1 -0.1)">
       <use xlink:href="#DejaVuSans-6d"/>
       <use xlink:href="#DejaVuSans-6d" transform="translate(97.412109 0)"/>
       <use xlink:href="#DejaVuSans-6c" transform="translate(194.824219 0)"/>
       <use xlink:href="#DejaVuSans-75" transform="translate(222.607422 0)"/>
       <use xlink:href="#DejaVuSans-2d" transform="translate(285.986328 0)"/>
       <use xlink:href="#DejaVuSans-70" transform="translate(322.070312 0)"/>
       <use xlink:href="#DejaVuSans-72" transform="translate(385.546875 0)"/>
       <use xlink:href="#DejaVuSans-6f" transform="translate(424.410156 0)"/>
       <use xlink:href="#DejaVuSans-2d" transform="translate(487.466797 0)"/>
       <use xlink:href="#DejaVuSans-31" transform="translate(523.550781 0)"/>
       <use xlink:href="#DejaVuSans-6b" transform="translate(587.173828 0)"/>
      </g>
     </g>
    </g>
    <g id="xtick_10">
     <g id="line2d_22">
      <path d="M 424.02015 123.743636 
L 456.034264 222.272949 
" clip-path="url(#p5df1a3df5f)" style="fill: none; stroke-dasharray: 0.8,1.32; stroke-dashoffset: 0; stroke: #b0b0b0; stroke-width: 0.8"/>
     </g>
     <g id="text_20">
      <!-- bbh-1k -->
      <g transform="translate(442.962846 238.347115) scale(0.1 -0.1)">
       <use xlink:href="#DejaVuSans-62"/>
       <use xlink:href="#DejaVuSans-62" transform="translate(63.476562 0)"/>
       <use xlink:href="#DejaVuSans-68" transform="translate(126.953125 0)"/>
       <use xlink:href="#DejaVuSans-2d" transform="translate(190.332031 0)"/>
       <use xlink:href="#DejaVuSans-31" transform="translate(226.416016 0)"/>
       <use xlink:href="#DejaVuSans-6b" transform="translate(290.039062 0)"/>
      </g>
     </g>
    </g>
   </g>
   <g id="matplotlib.axis_4">
    <g id="ytick_7">
     <g id="line2d_23">
      <path d="M 424.02015 123.743636 
C 424.02015 123.743636 424.02015 123.743636 424.02015 123.743636 
C 424.02015 123.743636 424.02015 123.743636 424.02015 123.743636 
C 424.02015 123.743636 424.02015 123.743636 424.02015 123.743636 
C 424.02015 123.743636 424.02015 123.743636 424.02015 123.743636 
C 424.02015 123.743636 424.02015 123.743636 424.02015 123.743636 
C 424.02015 123.743636 424.02015 123.743636 424.02015 123.743636 
C 424.02015 123.743636 424.02015 123.743636 424.02015 123.743636 
C 424.02015 123.743636 424.02015 123.743636 424.02015 123.743636 
C 424.02015 123.743636 424.02015 123.743636 424.02015 123.743636 
C 424.02015 123.743636 424.02015 123.743636 424.02015 123.743636 
C 424.02015 123.743636 424.02015 123.743636 424.02015 123.743636 
C 424.02015 123.743636 424.02015 123.743636 424.02015 123.743636 
C 424.02015 123.743636 424.02015 123.743636 424.02015 123.743636 
C 424.02015 123.743636 424.02015 123.743636 424.02015 123.743636 
C 424.02015 123.743636 424.02015 123.743636 424.02015 123.743636 
C 424.02015 123.743636 424.02015 123.743636 424.02015 123.743636 
" clip-path="url(#p5df1a3df5f)" style="fill: none; stroke-dasharray: 0.8,1.32; stroke-dashoffset: 0; stroke: #b0b0b0; stroke-width: 0.8"/>
     </g>
     <g id="text_21">
      <!-- 0.0 -->
      <g transform="translate(424.02015 121.663949) scale(0.1 -0.1)">
       <use xlink:href="#DejaVuSans-30"/>
       <use xlink:href="#DejaVuSans-2e" transform="translate(63.623047 0)"/>
       <use xlink:href="#DejaVuSans-30" transform="translate(95.410156 0)"/>
      </g>
     </g>
    </g>
    <g id="ytick_8">
     <g id="line2d_24">
      <path d="M 444.74012 123.743636 
C 444.74012 121.022715 444.204157 118.328251 443.162906 115.814447 
C 442.121654 113.300643 440.595363 111.016387 438.671381 109.092405 
C 436.747399 107.168423 434.463143 105.642132 431.949339 104.60088 
C 429.435535 103.559629 426.741071 103.023666 424.02015 103.023666 
C 421.299228 103.023666 418.604764 103.559629 416.09096 104.60088 
C 413.577157 105.642132 411.2929 107.168423 409.368918 109.092405 
C 407.444936 111.016387 405.918645 113.300643 404.877393 115.814447 
C 403.836142 118.328251 403.30018 121.022715 403.30018 123.743636 
C 403.30018 126.464558 403.836142 129.159022 404.877393 131.672826 
C 405.918645 134.186629 407.444936 136.470886 409.368918 138.394868 
C 411.2929 140.31885 413.577157 141.845141 416.09096 142.886393 
C 418.604764 143.927644 421.299228 144.463606 424.02015 144.463606 
C 426.741071 144.463606 429.435535 143.927644 431.949339 142.886393 
C 434.463143 141.845141 436.747399 140.31885 438.671381 138.394868 
C 440.595363 136.470886 442.121654 134.186629 443.162906 131.672826 
C 444.204157 129.159022 444.74012 126.464558 444.74012 123.743636 
" clip-path="url(#p5df1a3df5f)" style="fill: none; stroke-dasharray: 0.8,1.32; stroke-dashoffset: 0; stroke: #b0b0b0; stroke-width: 0.8"/>
     </g>
     <g id="text_22">
      <!-- 0.2 -->
      <g transform="translate(443.162906 113.73476) scale(0.1 -0.1)">
       <use xlink:href="#DejaVuSans-30"/>
       <use xlink:href="#DejaVuSans-2e" transform="translate(63.623047 0)"/>
       <use xlink:href="#DejaVuSans-32" transform="translate(95.410156 0)"/>
      </g>
     </g>
    </g>
    <g id="ytick_9">
     <g id="line2d_25">
      <path d="M 465.46009 123.743636 
C 465.46009 118.301793 464.388165 112.912865 462.305662 107.885258 
C 460.223159 102.85765 457.170576 98.289138 453.322612 94.441174 
C 449.474648 90.59321 444.906136 87.540627 439.878528 85.458124 
C 434.850921 83.375621 429.461993 82.303696 424.02015 82.303696 
C 418.578307 82.303696 413.189379 83.375621 408.161771 85.458124 
C 403.134164 87.540627 398.565651 90.59321 394.717687 94.441174 
C 390.869723 98.289138 387.81714 102.85765 385.734637 107.885258 
C 383.652134 112.912865 382.580209 118.301793 382.580209 123.743636 
C 382.580209 129.185479 383.652134 134.574407 385.734637 139.602015 
C 387.81714 144.629622 390.869723 149.198135 394.717687 153.046099 
C 398.565651 156.894063 403.134164 159.946646 408.161771 162.029149 
C 413.189379 164.111652 418.578307 165.183577 424.02015 165.183577 
C 429.461993 165.183577 434.850921 164.111652 439.878528 162.029149 
C 444.906136 159.946646 449.474648 156.894063 453.322612 153.046099 
C 457.170576 149.198135 460.223159 144.629622 462.305662 139.602015 
C 464.388165 134.574407 465.46009 129.185479 465.46009 123.743636 
" clip-path="url(#p5df1a3df5f)" style="fill: none; stroke-dasharray: 0.8,1.32; stroke-dashoffset: 0; stroke: #b0b0b0; stroke-width: 0.8"/>
     </g>
     <g id="text_23">
      <!-- 0.4 -->
      <g transform="translate(462.305662 105.80557) scale(0.1 -0.1)">
       <use xlink:href="#DejaVuSans-30"/>
       <use xlink:href="#DejaVuSans-2e" transform="translate(63.623047 0)"/>
       <use xlink:href="#DejaVuSans-34" transform="translate(95.410156 0)"/>
      </g>
     </g>
    </g>
    <g id="ytick_10">
     <g id="line2d_26">
      <path d="M 486.18006 123.743636 
C 486.18006 115.580872 484.572173 107.49748 481.448418 99.956069 
C 478.324664 92.414657 473.74579 85.561889 467.973844 79.789942 
C 462.201897 74.017996 455.349129 69.439122 447.807717 66.315368 
C 440.266306 63.191613 432.182914 61.583726 424.02015 61.583726 
C 415.857385 61.583726 407.773993 63.191613 400.232582 66.315368 
C 392.691171 69.439122 385.838402 74.017996 380.066456 79.789942 
C 374.294509 85.561889 369.715636 92.414657 366.591881 99.956069 
C 363.468126 107.49748 361.860239 115.580872 361.860239 123.743636 
C 361.860239 131.906401 363.468126 139.989793 366.591881 147.531204 
C 369.715636 155.072615 374.294509 161.925384 380.066456 167.69733 
C 385.838402 173.469277 392.691171 178.04815 400.232582 181.171905 
C 407.773993 184.29566 415.857385 185.903547 424.02015 185.903547 
C 432.182914 185.903547 440.266306 184.29566 447.807717 181.171905 
C 455.349129 178.04815 462.201897 173.469277 467.973844 167.69733 
C 473.74579 161.925384 478.324664 155.072615 481.448418 147.531204 
C 484.572173 139.989793 486.18006 131.906401 486.18006 123.743636 
" clip-path="url(#p5df1a3df5f)" style="fill: none; stroke-dasharray: 0.8,1.32; stroke-dashoffset: 0; stroke: #b0b0b0; stroke-width: 0.8"/>
     </g>
     <g id="text_24">
      <!-- 0.6 -->
      <g transform="translate(481.448418 97.876381) scale(0.1 -0.1)">
       <use xlink:href="#DejaVuSans-30"/>
       <use xlink:href="#DejaVuSans-2e" transform="translate(63.623047 0)"/>
       <use xlink:href="#DejaVuSans-36" transform="translate(95.410156 0)"/>
      </g>
     </g>
    </g>
    <g id="ytick_11">
     <g id="line2d_27">
      <path d="M 506.90003 123.743636 
C 506.90003 112.85995 504.756181 102.082094 500.591175 92.026879 
C 496.426168 81.971664 490.321003 72.834639 482.625075 65.138711 
C 474.929147 57.442783 465.792122 51.337618 455.736907 47.172611 
C 445.681692 43.007605 434.903836 40.863756 424.02015 40.863756 
C 413.136463 40.863756 402.358607 43.007605 392.303393 47.172611 
C 382.248178 51.337618 373.111153 57.442783 365.415224 65.138711 
C 357.719296 72.834639 351.614131 81.971664 347.449125 92.026879 
C 343.284118 102.082094 341.140269 112.85995 341.140269 123.743636 
C 341.140269 134.627323 343.284118 145.405179 347.449125 155.460393 
C 351.614131 165.515608 357.719296 174.652633 365.415224 182.348562 
C 373.111153 190.04449 382.248178 196.149655 392.303393 200.314661 
C 402.358607 204.479668 413.136463 206.623517 424.02015 206.623517 
C 434.903836 206.623517 445.681692 204.479668 455.736907 200.314661 
C 465.792122 196.149655 474.929147 190.04449 482.625075 182.348562 
C 490.321003 174.652633 496.426168 165.515608 500.591175 155.460393 
C 504.756181 145.405179 506.90003 134.627323 506.90003 123.743636 
" clip-path="url(#p5df1a3df5f)" style="fill: none; stroke-dasharray: 0.8,1.32; stroke-dashoffset: 0; stroke: #b0b0b0; stroke-width: 0.8"/>
     </g>
     <g id="text_25">
      <!-- 0.8 -->
      <g transform="translate(500.591175 89.947192) scale(0.1 -0.1)">
       <use xlink:href="#DejaVuSans-30"/>
       <use xlink:href="#DejaVuSans-2e" transform="translate(63.623047 0)"/>
       <use xlink:href="#DejaVuSans-38" transform="translate(95.410156 0)"/>
      </g>
     </g>
    </g>
    <g id="ytick_12">
     <g id="line2d_28">
      <path d="M 527.62 123.743636 
C 527.62 110.139029 524.940189 96.666709 519.733931 84.09769 
C 514.527673 71.528671 506.896217 60.10739 497.276306 50.48748 
C 487.656396 40.867569 476.235115 33.236113 463.666096 28.029855 
C 451.097077 22.823597 437.624757 20.143786 424.02015 20.143786 
C 410.415542 20.143786 396.943222 22.823597 384.374203 28.029855 
C 371.805185 33.236113 360.383903 40.867569 350.763993 50.48748 
C 341.144083 60.10739 333.512626 71.528671 328.306368 84.09769 
C 323.10011 96.666709 320.420299 110.139029 320.420299 123.743636 
C 320.420299 137.348244 323.10011 150.820564 328.306368 163.389583 
C 333.512626 175.958601 341.144083 187.379883 350.763993 196.999793 
C 360.383903 206.619703 371.805185 214.25116 384.374203 219.457418 
C 396.943222 224.663676 410.415542 227.343487 424.02015 227.343487 
C 437.624757 227.343487 451.097077 224.663676 463.666096 219.457418 
C 476.235115 214.25116 487.656396 206.619703 497.276306 196.999793 
C 506.896217 187.379883 514.527673 175.958601 519.733931 163.389583 
C 524.940189 150.820564 527.62 137.348244 527.62 123.743636 
" clip-path="url(#p5df1a3df5f)" style="fill: none; stroke-dasharray: 0.8,1.32; stroke-dashoffset: 0; stroke: #b0b0b0; stroke-width: 0.8"/>
     </g>
     <g id="text_26">
      <!-- 1.0 -->
      <g transform="translate(519.733931 82.018003) scale(0.1 -0.1)">
       <use xlink:href="#DejaVuSans-31"/>
       <use xlink:href="#DejaVuSans-2e" transform="translate(63.623047 0)"/>
       <use xlink:href="#DejaVuSans-30" transform="translate(95.410156 0)"/>
      </g>
     </g>
    </g>
   </g>
   <g id="line2d_29">
    <path d="M 522.440007 123.743636 
L 448.520747 48.33855 
L 352.778216 71.983342 
L 362.835901 168.196595 
L 452.19257 210.449432 
L 522.440007 123.743636 
" clip-path="url(#p5df1a3df5f)" style="fill: none; stroke: #1f77b4; stroke-width: 1.5; stroke-linecap: square"/>
   </g>
   <g id="line2d_30">
    <path d="M 506.90003 123.743636 
L 433.624384 94.184843 
L 386.303832 96.341127 
L 388.818253 149.319311 
L 445.469606 189.758276 
L 506.90003 123.743636 
" clip-path="url(#p5df1a3df5f)" style="fill: none; stroke: #ff7f0e; stroke-width: 1.5; stroke-linecap: square"/>
   </g>
   <g id="line2d_31">
    <path d="M 504.957533 123.743636 
L 437.53722 82.142371 
L 383.896407 94.592031 
L 383.024152 153.528972 
L 444.523571 186.846679 
L 504.957533 123.743636 
" clip-path="url(#p5df1a3df5f)" style="fill: none; stroke: #2ca02c; stroke-width: 1.5; stroke-linecap: square"/>
   </g>
   <g id="line2d_32">
    <path d="M 520.936139 123.743636 
L 442.070661 68.189875 
L 360.934313 77.909093 
L 374.070368 160.034277 
L 448.194073 198.143322 
L 520.936139 123.743636 
" clip-path="url(#p5df1a3df5f)" style="fill: none; stroke: #d62728; stroke-width: 1.5; stroke-linecap: square"/>
   </g>
   <g id="text_27">
    <!-- pro -->
    <g transform="translate(414.208275 14.143786) scale(0.12 -0.12)">
     <use xlink:href="#DejaVuSans-70"/>
     <use xlink:href="#DejaVuSans-72" transform="translate(63.476562 0)"/>
     <use xlink:href="#DejaVuSans-6f" transform="translate(102.339844 0)"/>
    </g>
   </g>
   <g id="legend_2">
    <g id="line2d_33">
     <path d="M 296.706868 260.245584 
L 306.706868 260.245584 
L 316.706868 260.245584 
" style="fill: none; stroke: #1f77b4; stroke-width: 1.5; stroke-linecap: square"/>
    </g>
    <g id="text_28">
     <!-- llama-3.3-70b:yandex -->
     <g transform="translate(324.706868 263.745584) scale(0.1 -0.1)">
      <defs>
       <path id="DejaVuSans-37" d="M 525 4666 
L 3525 4666 
L 3525 4397 
L 1831 0 
L 1172 0 
L 2766 4134 
L 525 4134 
L 525 4666 
z
" transform="scale(0.015625)"/>
      </defs>
      <use xlink:href="#DejaVuSans-6c"/>
      <use xlink:href="#DejaVuSans-6c" transform="translate(27.783203 0)"/>
      <use xlink:href="#DejaVuSans-61" transform="translate(55.566406 0)"/>
      <use xlink:href="#DejaVuSans-6d" transform="translate(116.845703 0)"/>
      <use xlink:href="#DejaVuSans-61" transform="translate(214.257812 0)"/>
      <use xlink:href="#DejaVuSans-2d" transform="translate(275.537109 0)"/>
      <use xlink:href="#DejaVuSans-33" transform="translate(311.621094 0)"/>
      <use xlink:href="#DejaVuSans-2e" transform="translate(375.244141 0)"/>
      <use xlink:href="#DejaVuSans-33" transform="translate(407.03125 0)"/>
      <use xlink:href="#DejaVuSans-2d" transform="translate(470.654297 0)"/>
      <use xlink:href="#DejaVuSans-37" transform="translate(506.738281 0)"/>
      <use xlink:href="#DejaVuSans-30" transform="translate(570.361328 0)"/>
      <use xlink:href="#DejaVuSans-62" transform="translate(633.984375 0)"/>
      <use xlink:href="#DejaVuSans-3a" transform="translate(697.460938 0)"/>
      <use xlink:href="#DejaVuSans-79" transform="translate(731.152344 0)"/>
      <use xlink:href="#DejaVuSans-61" transform="translate(790.332031 0)"/>
      <use xlink:href="#DejaVuSans-6e" transform="translate(851.611328 0)"/>
      <use xlink:href="#DejaVuSans-64" transform="translate(914.990234 0)"/>
      <use xlink:href="#DejaVuSans-65" transform="translate(978.466797 0)"/>
      <use xlink:href="#DejaVuSans-78" transform="translate(1038.240234 0)"/>
     </g>
    </g>
    <g id="line2d_34">
     <path d="M 296.706868 274.923709 
L 306.706868 274.923709 
L 316.706868 274.923709 
" style="fill: none; stroke: #ff7f0e; stroke-width: 1.5; stroke-linecap: square"/>
    </g>
    <g id="text_29">
     <!-- yandexgpt-4-pro -->
     <g transform="translate(324.706868 278.423709) scale(0.1 -0.1)">
      <use xlink:href="#DejaVuSans-79"/>
      <use xlink:href="#DejaVuSans-61" transform="translate(59.179688 0)"/>
      <use xlink:href="#DejaVuSans-6e" transform="translate(120.458984 0)"/>
      <use xlink:href="#DejaVuSans-64" transform="translate(183.837891 0)"/>
      <use xlink:href="#DejaVuSans-65" transform="translate(247.314453 0)"/>
      <use xlink:href="#DejaVuSans-78" transform="translate(307.087891 0)"/>
      <use xlink:href="#DejaVuSans-67" transform="translate(366.267578 0)"/>
      <use xlink:href="#DejaVuSans-70" transform="translate(429.744141 0)"/>
      <use xlink:href="#DejaVuSans-74" transform="translate(493.220703 0)"/>
      <use xlink:href="#DejaVuSans-2d" transform="translate(532.429688 0)"/>
      <use xlink:href="#DejaVuSans-34" transform="translate(568.513672 0)"/>
      <use xlink:href="#DejaVuSans-2d" transform="translate(632.136719 0)"/>
      <use xlink:href="#DejaVuSans-70" transform="translate(668.220703 0)"/>
      <use xlink:href="#DejaVuSans-72" transform="translate(731.697266 0)"/>
      <use xlink:href="#DejaVuSans-6f" transform="translate(770.560547 0)"/>
     </g>
    </g>
    <g id="line2d_35">
     <path d="M 454.450618 260.245584 
L 464.450618 260.245584 
L 474.450618 260.245584 
" style="fill: none; stroke: #2ca02c; stroke-width: 1.5; stroke-linecap: square"/>
    </g>
    <g id="text_30">
     <!-- gigachat-pro -->
     <g transform="translate(482.450618 263.745584) scale(0.1 -0.1)">
      <use xlink:href="#DejaVuSans-67"/>
      <use xlink:href="#DejaVuSans-69" transform="translate(63.476562 0)"/>
      <use xlink:href="#DejaVuSans-67" transform="translate(91.259766 0)"/>
      <use xlink:href="#DejaVuSans-61" transform="translate(154.736328 0)"/>
      <use xlink:href="#DejaVuSans-63" transform="translate(216.015625 0)"/>
      <use xlink:href="#DejaVuSans-68" transform="translate(270.996094 0)"/>
      <use xlink:href="#DejaVuSans-61" transform="translate(334.375 0)"/>
      <use xlink:href="#DejaVuSans-74" transform="translate(395.654297 0)"/>
      <use xlink:href="#DejaVuSans-2d" transform="translate(434.863281 0)"/>
      <use xlink:href="#DejaVuSans-70" transform="translate(470.947266 0)"/>
      <use xlink:href="#DejaVuSans-72" transform="translate(534.423828 0)"/>
      <use xlink:href="#DejaVuSans-6f" transform="translate(573.287109 0)"/>
     </g>
    </g>
    <g id="line2d_36">
     <path d="M 454.450618 274.923709 
L 464.450618 274.923709 
L 474.450618 274.923709 
" style="fill: none; stroke: #d62728; stroke-width: 1.5; stroke-linecap: square"/>
    </g>
    <g id="text_31">
     <!-- gigachat-max -->
     <g transform="translate(482.450618 278.423709) scale(0.1 -0.1)">
      <use xlink:href="#DejaVuSans-67"/>
      <use xlink:href="#DejaVuSans-69" transform="translate(63.476562 0)"/>
      <use xlink:href="#DejaVuSans-67" transform="translate(91.259766 0)"/>
      <use xlink:href="#DejaVuSans-61" transform="translate(154.736328 0)"/>
      <use xlink:href="#DejaVuSans-63" transform="translate(216.015625 0)"/>
      <use xlink:href="#DejaVuSans-68" transform="translate(270.996094 0)"/>
      <use xlink:href="#DejaVuSans-61" transform="translate(334.375 0)"/>
      <use xlink:href="#DejaVuSans-74" transform="translate(395.654297 0)"/>
      <use xlink:href="#DejaVuSans-2d" transform="translate(434.863281 0)"/>
      <use xlink:href="#DejaVuSans-6d" transform="translate(470.947266 0)"/>
      <use xlink:href="#DejaVuSans-61" transform="translate(568.359375 0)"/>
      <use xlink:href="#DejaVuSans-78" transform="translate(629.638672 0)"/>
     </g>
    </g>
   </g>
  </g>
 </g>
 <defs>
  <clipPath id="p170abf36a1">
   <path d="M 242.192345 123.743636 
C 242.192345 110.139029 239.512534 96.666709 234.306276 84.09769 
C 229.100018 71.528671 221.468561 60.10739 211.848651 50.48748 
C 202.228741 40.867569 190.807459 33.236113 178.238441 28.029855 
C 165.669422 22.823597 152.197102 20.143786 138.592494 20.143786 
C 124.987887 20.143786 111.515567 22.823597 98.946548 28.029855 
C 86.377529 33.236113 74.956248 40.867569 65.336338 50.48748 
C 55.716427 60.10739 48.084971 71.528671 42.878713 84.09769 
C 37.672455 96.666709 34.992644 110.139029 34.992644 123.743636 
C 34.992644 137.348244 37.672455 150.820564 42.878713 163.389583 
C 48.084971 175.958601 55.716427 187.379883 65.336338 196.999793 
C 74.956248 206.619703 86.377529 214.25116 98.946548 219.457418 
C 111.515567 224.663676 124.987887 227.343487 138.592494 227.343487 
C 152.197102 227.343487 165.669422 224.663676 178.238441 219.457418 
C 190.807459 214.25116 202.228741 206.619703 211.848651 196.999793 
C 221.468561 187.379883 229.100018 175.958601 234.306276 163.389583 
C 239.512534 150.820564 242.192345 137.348244 242.192345 123.743636 
M 138.592494 123.743636 
C 138.592494 123.743636 138.592494 123.743636 138.592494 123.743636 
C 138.592494 123.743636 138.592494 123.743636 138.592494 123.743636 
C 138.592494 123.743636 138.592494 123.743636 138.592494 123.743636 
C 138.592494 123.743636 138.592494 123.743636 138.592494 123.743636 
C 138.592494 123.743636 138.592494 123.743636 138.592494 123.743636 
C 138.592494 123.743636 138.592494 123.743636 138.592494 123.743636 
C 138.592494 123.743636 138.592494 123.743636 138.592494 123.743636 
C 138.592494 123.743636 138.592494 123.743636 138.592494 123.743636 
C 138.592494 123.743636 138.592494 123.743636 138.592494 123.743636 
C 138.592494 123.743636 138.592494 123.743636 138.592494 123.743636 
C 138.592494 123.743636 138.592494 123.743636 138.592494 123.743636 
C 138.592494 123.743636 138.592494 123.743636 138.592494 123.743636 
C 138.592494 123.743636 138.592494 123.743636 138.592494 123.743636 
C 138.592494 123.743636 138.592494 123.743636 138.592494 123.743636 
C 138.592494 123.743636 138.592494 123.743636 138.592494 123.743636 
C 138.592494 123.743636 138.592494 123.743636 138.592494 123.743636 
z
"/>
  </clipPath>
  <clipPath id="p5df1a3df5f">
   <path d="M 527.62 123.743636 
C 527.62 110.139029 524.940189 96.666709 519.733931 84.09769 
C 514.527673 71.528671 506.896217 60.10739 497.276306 50.48748 
C 487.656396 40.867569 476.235115 33.236113 463.666096 28.029855 
C 451.097077 22.823597 437.624757 20.143786 424.02015 20.143786 
C 410.415542 20.143786 396.943222 22.823597 384.374203 28.029855 
C 371.805185 33.236113 360.383903 40.867569 350.763993 50.48748 
C 341.144083 60.10739 333.512626 71.528671 328.306368 84.09769 
C 323.10011 96.666709 320.420299 110.139029 320.420299 123.743636 
C 320.420299 137.348244 323.10011 150.820564 328.306368 163.389583 
C 333.512626 175.958601 341.144083 187.379883 350.763993 196.999793 
C 360.383903 206.619703 371.805185 214.25116 384.374203 219.457418 
C 396.943222 224.663676 410.415542 227.343487 424.02015 227.343487 
C 437.624757 227.343487 451.097077 224.663676 463.666096 219.457418 
C 476.235115 214.25116 487.656396 206.619703 497.276306 196.999793 
C 506.896217 187.379883 514.527673 175.958601 519.733931 163.389583 
C 524.940189 150.820564 527.62 137.348244 527.62 123.743636 
M 424.02015 123.743636 
C 424.02015 123.743636 424.02015 123.743636 424.02015 123.743636 
C 424.02015 123.743636 424.02015 123.743636 424.02015 123.743636 
C 424.02015 123.743636 424.02015 123.743636 424.02015 123.743636 
C 424.02015 123.743636 424.02015 123.743636 424.02015 123.743636 
C 424.02015 123.743636 424.02015 123.743636 424.02015 123.743636 
C 424.02015 123.743636 424.02015 123.743636 424.02015 123.743636 
C 424.02015 123.743636 424.02015 123.743636 424.02015 123.743636 
C 424.02015 123.743636 424.02015 123.743636 424.02015 123.743636 
C 424.02015 123.743636 424.02015 123.743636 424.02015 123.743636 
C 424.02015 123.743636 424.02015 123.743636 424.02015 123.743636 
C 424.02015 123.743636 424.02015 123.743636 424.02015 123.743636 
C 424.02015 123.743636 424.02015 123.743636 424.02015 123.743636 
C 424.02015 123.743636 424.02015 123.743636 424.02015 123.743636 
C 424.02015 123.743636 424.02015 123.743636 424.02015 123.743636 
C 424.02015 123.743636 424.02015 123.743636 424.02015 123.743636 
C 424.02015 123.743636 424.02015 123.743636 424.02015 123.743636 
z
"/>
  </clipPath>
 </defs>
</svg>
